M48
; DRILL file {KiCad (5.1.4)-1} date 11/28/2020 10:24:58 PM
; FORMAT={-:-/ absolute / inch / decimal}
; #@! TF.CreationDate,2020-11-28T22:24:58-05:00
; #@! TF.GenerationSoftware,Kicad,Pcbnew,(5.1.4)-1
FMAT,2
INCH
T1C0.0300
T2C0.0315
T3C0.0433
T4C0.0469
T5C0.1201
T6C0.1260
%
G90
G05
T1
X5.425Y-4.325
X5.425Y-4.425
X5.425Y-4.525
X5.425Y-4.625
X5.425Y-4.725
X5.425Y-4.825
X5.425Y-4.925
X5.425Y-5.025
X5.425Y-5.125
X5.425Y-5.225
X5.425Y-5.325
X5.425Y-5.425
X5.425Y-5.525
X5.425Y-5.625
X6.025Y-4.325
X6.025Y-4.425
X6.025Y-4.525
X6.025Y-4.625
X6.025Y-4.725
X6.025Y-4.825
X6.025Y-4.925
X6.025Y-5.025
X6.025Y-5.125
X6.025Y-5.225
X6.025Y-5.325
X6.025Y-5.425
X6.025Y-5.525
X6.025Y-5.625
T2
X5.4Y-4.125
X5.475Y-4.225
X6.025Y-4.225
X6.15Y-4.2
X5.125Y-5.225
X5.125Y-5.525
X5.125Y-4.8
X5.125Y-5.1
X5.575Y-5.75
X5.875Y-5.75
X6.325Y-5.65
X6.325Y-5.95
X5.125Y-5.65
X5.125Y-5.95
X6.325Y-4.8
X6.325Y-5.1
X5.125Y-6.075
X5.125Y-6.375
X6.325Y-5.225
X6.325Y-5.525
X6.325Y-6.075
X6.325Y-6.375
T3
X5.6Y-5.875
X5.6Y-6.0522
X5.8559Y-5.875
X5.8559Y-6.0522
X5.6Y-6.475
X5.6Y-6.6522
X5.8559Y-6.475
X5.8559Y-6.6522
X5.3Y-6.175
X5.3Y-6.3522
X5.5559Y-6.175
X5.5559Y-6.3522
X5.9Y-6.175
X5.9Y-6.3522
X6.1559Y-6.175
X6.1559Y-6.3522
T4
X5.5094Y-4.05
X5.5545Y-3.95
X5.5545Y-4.15
X5.5996Y-4.05
X5.6447Y-3.95
X5.6447Y-4.15
X5.6898Y-4.05
X5.7348Y-3.95
X5.7348Y-4.15
X5.7799Y-4.05
X5.825Y-3.95
X5.825Y-4.15
X5.8701Y-4.05
X5.9152Y-3.95
X5.9152Y-4.15
T5
X5.2331Y-4.05
X6.2169Y-4.05
T6
X6.25Y-4.5
X6.225Y-6.575
X5.225Y-6.575
X5.2Y-4.5
T0
M30
