G04 #@! TF.GenerationSoftware,KiCad,Pcbnew,(5.1.4)-1*
G04 #@! TF.CreationDate,2020-11-28T22:24:57-05:00*
G04 #@! TF.ProjectId,snek,736e656b-2e6b-4696-9361-645f70636258,rev?*
G04 #@! TF.SameCoordinates,Original*
G04 #@! TF.FileFunction,Soldermask,Top*
G04 #@! TF.FilePolarity,Negative*
%FSLAX46Y46*%
G04 Gerber Fmt 4.6, Leading zero omitted, Abs format (unit mm)*
G04 Created by KiCad (PCBNEW (5.1.4)-1) date 2020-11-28 22:24:57*
%MOMM*%
%LPD*%
G04 APERTURE LIST*
%ADD10C,0.010000*%
%ADD11C,0.100000*%
G04 APERTURE END LIST*
D10*
G36*
X146733608Y-108919950D02*
G01*
X146876336Y-109162196D01*
X146969553Y-109564826D01*
X146990999Y-109749872D01*
X147017491Y-110064496D01*
X147017190Y-110253251D01*
X146979664Y-110358812D01*
X146894483Y-110423851D01*
X146817251Y-110460679D01*
X146561153Y-110512703D01*
X146363783Y-110406885D01*
X146222731Y-110142563D01*
X146161743Y-109962938D01*
X146128740Y-109873957D01*
X146128671Y-109873828D01*
X146048225Y-109886701D01*
X145844876Y-109941388D01*
X145556763Y-110027363D01*
X145439500Y-110063991D01*
X145017622Y-110222728D01*
X144681980Y-110398443D01*
X144446250Y-110576747D01*
X144324109Y-110743250D01*
X144329232Y-110883563D01*
X144475298Y-110983297D01*
X144547167Y-111002834D01*
X145027789Y-111122727D01*
X145488573Y-111265933D01*
X145882007Y-111415977D01*
X146160573Y-111556382D01*
X146179941Y-111569027D01*
X146552400Y-111903719D01*
X146793404Y-112297563D01*
X146903299Y-112721329D01*
X146882431Y-113145786D01*
X146731145Y-113541703D01*
X146449787Y-113879851D01*
X146150219Y-114079694D01*
X145832447Y-114209304D01*
X145477207Y-114281612D01*
X145091885Y-114309394D01*
X144754722Y-114315164D01*
X144466962Y-114309040D01*
X144284840Y-114292382D01*
X144272000Y-114289551D01*
X143793909Y-114134649D01*
X143421640Y-113946127D01*
X143167014Y-113737498D01*
X143041849Y-113522273D01*
X143057963Y-113313965D01*
X143227177Y-113126086D01*
X143244253Y-113114577D01*
X143369842Y-113046786D01*
X143491197Y-113039508D01*
X143661885Y-113100759D01*
X143880083Y-113209743D01*
X144195420Y-113348634D01*
X144503999Y-113417507D01*
X144887957Y-113435901D01*
X145386419Y-113402402D01*
X145735084Y-113299842D01*
X145940113Y-113125124D01*
X146007664Y-112875155D01*
X146007667Y-112873251D01*
X145959002Y-112607663D01*
X145802333Y-112389666D01*
X145521648Y-112208304D01*
X145100935Y-112052622D01*
X144637517Y-111935847D01*
X144294797Y-111845560D01*
X143992912Y-111739338D01*
X143791120Y-111638409D01*
X143775813Y-111627165D01*
X143542895Y-111344432D01*
X143435616Y-110987373D01*
X143452842Y-110593922D01*
X143593442Y-110202016D01*
X143828012Y-109878326D01*
X143972960Y-109751843D01*
X144169149Y-109633142D01*
X144445922Y-109508751D01*
X144832621Y-109365197D01*
X145257123Y-109222159D01*
X145681451Y-109085468D01*
X146053674Y-108970311D01*
X146341733Y-108886249D01*
X146513569Y-108842844D01*
X146541818Y-108839000D01*
X146733608Y-108919950D01*
X146733608Y-108919950D01*
G37*
X146733608Y-108919950D02*
X146876336Y-109162196D01*
X146969553Y-109564826D01*
X146990999Y-109749872D01*
X147017491Y-110064496D01*
X147017190Y-110253251D01*
X146979664Y-110358812D01*
X146894483Y-110423851D01*
X146817251Y-110460679D01*
X146561153Y-110512703D01*
X146363783Y-110406885D01*
X146222731Y-110142563D01*
X146161743Y-109962938D01*
X146128740Y-109873957D01*
X146128671Y-109873828D01*
X146048225Y-109886701D01*
X145844876Y-109941388D01*
X145556763Y-110027363D01*
X145439500Y-110063991D01*
X145017622Y-110222728D01*
X144681980Y-110398443D01*
X144446250Y-110576747D01*
X144324109Y-110743250D01*
X144329232Y-110883563D01*
X144475298Y-110983297D01*
X144547167Y-111002834D01*
X145027789Y-111122727D01*
X145488573Y-111265933D01*
X145882007Y-111415977D01*
X146160573Y-111556382D01*
X146179941Y-111569027D01*
X146552400Y-111903719D01*
X146793404Y-112297563D01*
X146903299Y-112721329D01*
X146882431Y-113145786D01*
X146731145Y-113541703D01*
X146449787Y-113879851D01*
X146150219Y-114079694D01*
X145832447Y-114209304D01*
X145477207Y-114281612D01*
X145091885Y-114309394D01*
X144754722Y-114315164D01*
X144466962Y-114309040D01*
X144284840Y-114292382D01*
X144272000Y-114289551D01*
X143793909Y-114134649D01*
X143421640Y-113946127D01*
X143167014Y-113737498D01*
X143041849Y-113522273D01*
X143057963Y-113313965D01*
X143227177Y-113126086D01*
X143244253Y-113114577D01*
X143369842Y-113046786D01*
X143491197Y-113039508D01*
X143661885Y-113100759D01*
X143880083Y-113209743D01*
X144195420Y-113348634D01*
X144503999Y-113417507D01*
X144887957Y-113435901D01*
X145386419Y-113402402D01*
X145735084Y-113299842D01*
X145940113Y-113125124D01*
X146007664Y-112875155D01*
X146007667Y-112873251D01*
X145959002Y-112607663D01*
X145802333Y-112389666D01*
X145521648Y-112208304D01*
X145100935Y-112052622D01*
X144637517Y-111935847D01*
X144294797Y-111845560D01*
X143992912Y-111739338D01*
X143791120Y-111638409D01*
X143775813Y-111627165D01*
X143542895Y-111344432D01*
X143435616Y-110987373D01*
X143452842Y-110593922D01*
X143593442Y-110202016D01*
X143828012Y-109878326D01*
X143972960Y-109751843D01*
X144169149Y-109633142D01*
X144445922Y-109508751D01*
X144832621Y-109365197D01*
X145257123Y-109222159D01*
X145681451Y-109085468D01*
X146053674Y-108970311D01*
X146341733Y-108886249D01*
X146513569Y-108842844D01*
X146541818Y-108839000D01*
X146733608Y-108919950D01*
G36*
X144246344Y-119088406D02*
G01*
X144311355Y-119162767D01*
X144364953Y-119345949D01*
X144395942Y-119612598D01*
X144399000Y-119721596D01*
X144399000Y-120116657D01*
X144869278Y-119686850D01*
X145325721Y-119343567D01*
X145773315Y-119148385D01*
X146197105Y-119103356D01*
X146582135Y-119210529D01*
X146859091Y-119414065D01*
X147036260Y-119640973D01*
X147159613Y-119928574D01*
X147236321Y-120306587D01*
X147273553Y-120804728D01*
X147279877Y-121158000D01*
X147294676Y-121640372D01*
X147331406Y-122194165D01*
X147383204Y-122723934D01*
X147404667Y-122893666D01*
X147464887Y-123335081D01*
X147502508Y-123639895D01*
X147516487Y-123839466D01*
X147505778Y-123965148D01*
X147469334Y-124048298D01*
X147406113Y-124120273D01*
X147362334Y-124163666D01*
X147144894Y-124311882D01*
X146939579Y-124294869D01*
X146783155Y-124177154D01*
X146692427Y-124002811D01*
X146610283Y-123684635D01*
X146539912Y-123248042D01*
X146484507Y-122718446D01*
X146447256Y-122121263D01*
X146431352Y-121481908D01*
X146431000Y-121372143D01*
X146424126Y-120858473D01*
X146398238Y-120490643D01*
X146345442Y-120245525D01*
X146257841Y-120099991D01*
X146127540Y-120030914D01*
X145967673Y-120015000D01*
X145643478Y-120097457D01*
X145314123Y-120337579D01*
X144990823Y-120724493D01*
X144684795Y-121247322D01*
X144673726Y-121269585D01*
X144538318Y-121550815D01*
X144447578Y-121775078D01*
X144391834Y-121990153D01*
X144361410Y-122243821D01*
X144346632Y-122583860D01*
X144340113Y-122917268D01*
X144323687Y-123395037D01*
X144293254Y-123758072D01*
X144251020Y-123984986D01*
X144223913Y-124043600D01*
X144039538Y-124151256D01*
X143808173Y-124153641D01*
X143607285Y-124058076D01*
X143544319Y-123979358D01*
X143518502Y-123844237D01*
X143500954Y-123569681D01*
X143491053Y-123182852D01*
X143488181Y-122710910D01*
X143491717Y-122181016D01*
X143501040Y-121620330D01*
X143515531Y-121056013D01*
X143534570Y-120515226D01*
X143557536Y-120025130D01*
X143583810Y-119612884D01*
X143612771Y-119305651D01*
X143643798Y-119130590D01*
X143655614Y-119104833D01*
X143825871Y-119011056D01*
X144050024Y-119007988D01*
X144246344Y-119088406D01*
X144246344Y-119088406D01*
G37*
X144246344Y-119088406D02*
X144311355Y-119162767D01*
X144364953Y-119345949D01*
X144395942Y-119612598D01*
X144399000Y-119721596D01*
X144399000Y-120116657D01*
X144869278Y-119686850D01*
X145325721Y-119343567D01*
X145773315Y-119148385D01*
X146197105Y-119103356D01*
X146582135Y-119210529D01*
X146859091Y-119414065D01*
X147036260Y-119640973D01*
X147159613Y-119928574D01*
X147236321Y-120306587D01*
X147273553Y-120804728D01*
X147279877Y-121158000D01*
X147294676Y-121640372D01*
X147331406Y-122194165D01*
X147383204Y-122723934D01*
X147404667Y-122893666D01*
X147464887Y-123335081D01*
X147502508Y-123639895D01*
X147516487Y-123839466D01*
X147505778Y-123965148D01*
X147469334Y-124048298D01*
X147406113Y-124120273D01*
X147362334Y-124163666D01*
X147144894Y-124311882D01*
X146939579Y-124294869D01*
X146783155Y-124177154D01*
X146692427Y-124002811D01*
X146610283Y-123684635D01*
X146539912Y-123248042D01*
X146484507Y-122718446D01*
X146447256Y-122121263D01*
X146431352Y-121481908D01*
X146431000Y-121372143D01*
X146424126Y-120858473D01*
X146398238Y-120490643D01*
X146345442Y-120245525D01*
X146257841Y-120099991D01*
X146127540Y-120030914D01*
X145967673Y-120015000D01*
X145643478Y-120097457D01*
X145314123Y-120337579D01*
X144990823Y-120724493D01*
X144684795Y-121247322D01*
X144673726Y-121269585D01*
X144538318Y-121550815D01*
X144447578Y-121775078D01*
X144391834Y-121990153D01*
X144361410Y-122243821D01*
X144346632Y-122583860D01*
X144340113Y-122917268D01*
X144323687Y-123395037D01*
X144293254Y-123758072D01*
X144251020Y-123984986D01*
X144223913Y-124043600D01*
X144039538Y-124151256D01*
X143808173Y-124153641D01*
X143607285Y-124058076D01*
X143544319Y-123979358D01*
X143518502Y-123844237D01*
X143500954Y-123569681D01*
X143491053Y-123182852D01*
X143488181Y-122710910D01*
X143491717Y-122181016D01*
X143501040Y-121620330D01*
X143515531Y-121056013D01*
X143534570Y-120515226D01*
X143557536Y-120025130D01*
X143583810Y-119612884D01*
X143612771Y-119305651D01*
X143643798Y-119130590D01*
X143655614Y-119104833D01*
X143825871Y-119011056D01*
X144050024Y-119007988D01*
X144246344Y-119088406D01*
G36*
X146236408Y-129106106D02*
G01*
X146714947Y-129259223D01*
X147063936Y-129507975D01*
X147277023Y-129848400D01*
X147339477Y-130115505D01*
X147350124Y-130369768D01*
X147292005Y-130557435D01*
X147136945Y-130764377D01*
X147120324Y-130783408D01*
X147004490Y-130902114D01*
X146859732Y-131019404D01*
X146665579Y-131146711D01*
X146401565Y-131295469D01*
X146047220Y-131477114D01*
X145582076Y-131703078D01*
X144985664Y-131984797D01*
X144887013Y-132030981D01*
X144046549Y-132424124D01*
X144284515Y-132662090D01*
X144603526Y-132932905D01*
X144932447Y-133093377D01*
X145329279Y-133165717D01*
X145626667Y-133176058D01*
X146218720Y-133133292D01*
X146681917Y-133001275D01*
X147034887Y-132773961D01*
X147116550Y-132692360D01*
X147300631Y-132525272D01*
X147462589Y-132478104D01*
X147565511Y-132493637D01*
X147764140Y-132616344D01*
X147847047Y-132827785D01*
X147802624Y-133083150D01*
X147745648Y-133189016D01*
X147597858Y-133334083D01*
X147346808Y-133505972D01*
X147046217Y-133668008D01*
X147039280Y-133671265D01*
X146700855Y-133814783D01*
X146397178Y-133899985D01*
X146052298Y-133943878D01*
X145755132Y-133958819D01*
X145209480Y-133951552D01*
X144774626Y-133892740D01*
X144653000Y-133859753D01*
X144260293Y-133678601D01*
X143890620Y-133414136D01*
X143601587Y-133111481D01*
X143506032Y-132961327D01*
X143331844Y-132458793D01*
X143271124Y-131882717D01*
X143302336Y-131460615D01*
X144027512Y-131460615D01*
X144074742Y-131528434D01*
X144087410Y-131529270D01*
X144196952Y-131493389D01*
X144426380Y-131395439D01*
X144744333Y-131249496D01*
X145119450Y-131069632D01*
X145203334Y-131028483D01*
X145604728Y-130827204D01*
X145971208Y-130636905D01*
X146265133Y-130477568D01*
X146448864Y-130369176D01*
X146462302Y-130360139D01*
X146705270Y-130192185D01*
X146470931Y-130038640D01*
X146218816Y-129934612D01*
X145858148Y-129865414D01*
X145696883Y-129850729D01*
X145375361Y-129840584D01*
X145152030Y-129869978D01*
X144957605Y-129953446D01*
X144830678Y-130032428D01*
X144525572Y-130321801D01*
X144262486Y-130744764D01*
X144062868Y-131266828D01*
X144062721Y-131267341D01*
X144027512Y-131460615D01*
X143302336Y-131460615D01*
X143316022Y-131275533D01*
X143458686Y-130679677D01*
X143691265Y-130137585D01*
X144005908Y-129691691D01*
X144134241Y-129565968D01*
X144516592Y-129288678D01*
X144924278Y-129125254D01*
X145411248Y-129057237D01*
X145634674Y-129052586D01*
X146236408Y-129106106D01*
X146236408Y-129106106D01*
G37*
X146236408Y-129106106D02*
X146714947Y-129259223D01*
X147063936Y-129507975D01*
X147277023Y-129848400D01*
X147339477Y-130115505D01*
X147350124Y-130369768D01*
X147292005Y-130557435D01*
X147136945Y-130764377D01*
X147120324Y-130783408D01*
X147004490Y-130902114D01*
X146859732Y-131019404D01*
X146665579Y-131146711D01*
X146401565Y-131295469D01*
X146047220Y-131477114D01*
X145582076Y-131703078D01*
X144985664Y-131984797D01*
X144887013Y-132030981D01*
X144046549Y-132424124D01*
X144284515Y-132662090D01*
X144603526Y-132932905D01*
X144932447Y-133093377D01*
X145329279Y-133165717D01*
X145626667Y-133176058D01*
X146218720Y-133133292D01*
X146681917Y-133001275D01*
X147034887Y-132773961D01*
X147116550Y-132692360D01*
X147300631Y-132525272D01*
X147462589Y-132478104D01*
X147565511Y-132493637D01*
X147764140Y-132616344D01*
X147847047Y-132827785D01*
X147802624Y-133083150D01*
X147745648Y-133189016D01*
X147597858Y-133334083D01*
X147346808Y-133505972D01*
X147046217Y-133668008D01*
X147039280Y-133671265D01*
X146700855Y-133814783D01*
X146397178Y-133899985D01*
X146052298Y-133943878D01*
X145755132Y-133958819D01*
X145209480Y-133951552D01*
X144774626Y-133892740D01*
X144653000Y-133859753D01*
X144260293Y-133678601D01*
X143890620Y-133414136D01*
X143601587Y-133111481D01*
X143506032Y-132961327D01*
X143331844Y-132458793D01*
X143271124Y-131882717D01*
X143302336Y-131460615D01*
X144027512Y-131460615D01*
X144074742Y-131528434D01*
X144087410Y-131529270D01*
X144196952Y-131493389D01*
X144426380Y-131395439D01*
X144744333Y-131249496D01*
X145119450Y-131069632D01*
X145203334Y-131028483D01*
X145604728Y-130827204D01*
X145971208Y-130636905D01*
X146265133Y-130477568D01*
X146448864Y-130369176D01*
X146462302Y-130360139D01*
X146705270Y-130192185D01*
X146470931Y-130038640D01*
X146218816Y-129934612D01*
X145858148Y-129865414D01*
X145696883Y-129850729D01*
X145375361Y-129840584D01*
X145152030Y-129869978D01*
X144957605Y-129953446D01*
X144830678Y-130032428D01*
X144525572Y-130321801D01*
X144262486Y-130744764D01*
X144062868Y-131266828D01*
X144062721Y-131267341D01*
X144027512Y-131460615D01*
X143302336Y-131460615D01*
X143316022Y-131275533D01*
X143458686Y-130679677D01*
X143691265Y-130137585D01*
X144005908Y-129691691D01*
X144134241Y-129565968D01*
X144516592Y-129288678D01*
X144924278Y-129125254D01*
X145411248Y-129057237D01*
X145634674Y-129052586D01*
X146236408Y-129106106D01*
G36*
X144259451Y-136393610D02*
G01*
X144293608Y-136405016D01*
X144407230Y-136467128D01*
X144495372Y-136576070D01*
X144560247Y-136749844D01*
X144604067Y-137006451D01*
X144629043Y-137363894D01*
X144637388Y-137840174D01*
X144631313Y-138453294D01*
X144617837Y-139043833D01*
X144604871Y-139678083D01*
X144602386Y-140186019D01*
X144610174Y-140556624D01*
X144628027Y-140778879D01*
X144651879Y-140843000D01*
X144758875Y-140786893D01*
X144962169Y-140632611D01*
X145237821Y-140401210D01*
X145561888Y-140113747D01*
X145910430Y-139791276D01*
X146259504Y-139454856D01*
X146471063Y-139243042D01*
X146735458Y-138987110D01*
X146968887Y-138785351D01*
X147139124Y-138664397D01*
X147198774Y-138641666D01*
X147385076Y-138715274D01*
X147541203Y-138894624D01*
X147615394Y-139117507D01*
X147616334Y-139143518D01*
X147548903Y-139309994D01*
X147346753Y-139578504D01*
X147010101Y-139948773D01*
X146870100Y-140092663D01*
X146123867Y-140849623D01*
X146791388Y-141756478D01*
X147198180Y-142325498D01*
X147495100Y-142782707D01*
X147686598Y-143141210D01*
X147777126Y-143414114D01*
X147771133Y-143614521D01*
X147673073Y-143755539D01*
X147500971Y-143845636D01*
X147410568Y-143877691D01*
X147335491Y-143890588D01*
X147259980Y-143867822D01*
X147168273Y-143792884D01*
X147044609Y-143649267D01*
X146873229Y-143420466D01*
X146638371Y-143089972D01*
X146324275Y-142641279D01*
X146250860Y-142536333D01*
X145999587Y-142179019D01*
X145780089Y-141870175D01*
X145611959Y-141637127D01*
X145514791Y-141507197D01*
X145502048Y-141492031D01*
X145401797Y-141497427D01*
X145209548Y-141582862D01*
X145010281Y-141702177D01*
X144791503Y-141865178D01*
X144642537Y-142036957D01*
X144550417Y-142253859D01*
X144502176Y-142552232D01*
X144484847Y-142968422D01*
X144483667Y-143178349D01*
X144469849Y-143463635D01*
X144416422Y-143636414D01*
X144305426Y-143752124D01*
X144295495Y-143759199D01*
X144118765Y-143867089D01*
X143991431Y-143867533D01*
X143829754Y-143757600D01*
X143810704Y-143742230D01*
X143626981Y-143593460D01*
X143711493Y-140673063D01*
X143730337Y-139958914D01*
X143744952Y-139275168D01*
X143755073Y-138646261D01*
X143760432Y-138096629D01*
X143760764Y-137650710D01*
X143755804Y-137332939D01*
X143749256Y-137202333D01*
X143729908Y-136894273D01*
X143743408Y-136703067D01*
X143799358Y-136577837D01*
X143883984Y-136488390D01*
X144062924Y-136376565D01*
X144259451Y-136393610D01*
X144259451Y-136393610D01*
G37*
X144259451Y-136393610D02*
X144293608Y-136405016D01*
X144407230Y-136467128D01*
X144495372Y-136576070D01*
X144560247Y-136749844D01*
X144604067Y-137006451D01*
X144629043Y-137363894D01*
X144637388Y-137840174D01*
X144631313Y-138453294D01*
X144617837Y-139043833D01*
X144604871Y-139678083D01*
X144602386Y-140186019D01*
X144610174Y-140556624D01*
X144628027Y-140778879D01*
X144651879Y-140843000D01*
X144758875Y-140786893D01*
X144962169Y-140632611D01*
X145237821Y-140401210D01*
X145561888Y-140113747D01*
X145910430Y-139791276D01*
X146259504Y-139454856D01*
X146471063Y-139243042D01*
X146735458Y-138987110D01*
X146968887Y-138785351D01*
X147139124Y-138664397D01*
X147198774Y-138641666D01*
X147385076Y-138715274D01*
X147541203Y-138894624D01*
X147615394Y-139117507D01*
X147616334Y-139143518D01*
X147548903Y-139309994D01*
X147346753Y-139578504D01*
X147010101Y-139948773D01*
X146870100Y-140092663D01*
X146123867Y-140849623D01*
X146791388Y-141756478D01*
X147198180Y-142325498D01*
X147495100Y-142782707D01*
X147686598Y-143141210D01*
X147777126Y-143414114D01*
X147771133Y-143614521D01*
X147673073Y-143755539D01*
X147500971Y-143845636D01*
X147410568Y-143877691D01*
X147335491Y-143890588D01*
X147259980Y-143867822D01*
X147168273Y-143792884D01*
X147044609Y-143649267D01*
X146873229Y-143420466D01*
X146638371Y-143089972D01*
X146324275Y-142641279D01*
X146250860Y-142536333D01*
X145999587Y-142179019D01*
X145780089Y-141870175D01*
X145611959Y-141637127D01*
X145514791Y-141507197D01*
X145502048Y-141492031D01*
X145401797Y-141497427D01*
X145209548Y-141582862D01*
X145010281Y-141702177D01*
X144791503Y-141865178D01*
X144642537Y-142036957D01*
X144550417Y-142253859D01*
X144502176Y-142552232D01*
X144484847Y-142968422D01*
X144483667Y-143178349D01*
X144469849Y-143463635D01*
X144416422Y-143636414D01*
X144305426Y-143752124D01*
X144295495Y-143759199D01*
X144118765Y-143867089D01*
X143991431Y-143867533D01*
X143829754Y-143757600D01*
X143810704Y-143742230D01*
X143626981Y-143593460D01*
X143711493Y-140673063D01*
X143730337Y-139958914D01*
X143744952Y-139275168D01*
X143755073Y-138646261D01*
X143760432Y-138096629D01*
X143760764Y-137650710D01*
X143755804Y-137332939D01*
X143749256Y-137202333D01*
X143729908Y-136894273D01*
X143743408Y-136703067D01*
X143799358Y-136577837D01*
X143883984Y-136488390D01*
X144062924Y-136376565D01*
X144259451Y-136393610D01*
D11*
G36*
X158641453Y-163795027D02*
G01*
X159063282Y-163878934D01*
X159654926Y-164124001D01*
X160187392Y-164479784D01*
X160640216Y-164932608D01*
X160995999Y-165465074D01*
X161241066Y-166056718D01*
X161366000Y-166684804D01*
X161366000Y-167325196D01*
X161241066Y-167953282D01*
X160995999Y-168544926D01*
X160640216Y-169077392D01*
X160187392Y-169530216D01*
X159654926Y-169885999D01*
X159063282Y-170131066D01*
X158749239Y-170193533D01*
X158435197Y-170256000D01*
X157794803Y-170256000D01*
X157480761Y-170193533D01*
X157166718Y-170131066D01*
X156575074Y-169885999D01*
X156042608Y-169530216D01*
X155589784Y-169077392D01*
X155234001Y-168544926D01*
X154988934Y-167953282D01*
X154864000Y-167325196D01*
X154864000Y-166684804D01*
X154988934Y-166056718D01*
X155234001Y-165465074D01*
X155589784Y-164932608D01*
X156042608Y-164479784D01*
X156575074Y-164124001D01*
X157166718Y-163878934D01*
X157588547Y-163795027D01*
X157794803Y-163754000D01*
X158435197Y-163754000D01*
X158641453Y-163795027D01*
X158641453Y-163795027D01*
G37*
G36*
X133241453Y-163795027D02*
G01*
X133663282Y-163878934D01*
X134254926Y-164124001D01*
X134787392Y-164479784D01*
X135240216Y-164932608D01*
X135595999Y-165465074D01*
X135841066Y-166056718D01*
X135966000Y-166684804D01*
X135966000Y-167325196D01*
X135841066Y-167953282D01*
X135595999Y-168544926D01*
X135240216Y-169077392D01*
X134787392Y-169530216D01*
X134254926Y-169885999D01*
X133663282Y-170131066D01*
X133349239Y-170193533D01*
X133035197Y-170256000D01*
X132394803Y-170256000D01*
X132080761Y-170193533D01*
X131766718Y-170131066D01*
X131175074Y-169885999D01*
X130642608Y-169530216D01*
X130189784Y-169077392D01*
X129834001Y-168544926D01*
X129588934Y-167953282D01*
X129464000Y-167325196D01*
X129464000Y-166684804D01*
X129588934Y-166056718D01*
X129834001Y-165465074D01*
X130189784Y-164932608D01*
X130642608Y-164479784D01*
X131175074Y-164124001D01*
X131766718Y-163878934D01*
X132188547Y-163795027D01*
X132394803Y-163754000D01*
X133035197Y-163754000D01*
X133241453Y-163795027D01*
X133241453Y-163795027D01*
G37*
G36*
X149046564Y-167954389D02*
G01*
X149237833Y-168033615D01*
X149237835Y-168033616D01*
X149409973Y-168148635D01*
X149556365Y-168295027D01*
X149671385Y-168467167D01*
X149750611Y-168658436D01*
X149791000Y-168861484D01*
X149791000Y-169068516D01*
X149750611Y-169271564D01*
X149671385Y-169462833D01*
X149671384Y-169462835D01*
X149556365Y-169634973D01*
X149409973Y-169781365D01*
X149237835Y-169896384D01*
X149237834Y-169896385D01*
X149237833Y-169896385D01*
X149046564Y-169975611D01*
X148843516Y-170016000D01*
X148636484Y-170016000D01*
X148433436Y-169975611D01*
X148242167Y-169896385D01*
X148242166Y-169896385D01*
X148242165Y-169896384D01*
X148070027Y-169781365D01*
X147923635Y-169634973D01*
X147808616Y-169462835D01*
X147808615Y-169462833D01*
X147729389Y-169271564D01*
X147689000Y-169068516D01*
X147689000Y-168861484D01*
X147729389Y-168658436D01*
X147808615Y-168467167D01*
X147923635Y-168295027D01*
X148070027Y-168148635D01*
X148242165Y-168033616D01*
X148242167Y-168033615D01*
X148433436Y-167954389D01*
X148636484Y-167914000D01*
X148843516Y-167914000D01*
X149046564Y-167954389D01*
X149046564Y-167954389D01*
G37*
G36*
X142546564Y-167954389D02*
G01*
X142737833Y-168033615D01*
X142737835Y-168033616D01*
X142909973Y-168148635D01*
X143056365Y-168295027D01*
X143171385Y-168467167D01*
X143250611Y-168658436D01*
X143291000Y-168861484D01*
X143291000Y-169068516D01*
X143250611Y-169271564D01*
X143171385Y-169462833D01*
X143171384Y-169462835D01*
X143056365Y-169634973D01*
X142909973Y-169781365D01*
X142737835Y-169896384D01*
X142737834Y-169896385D01*
X142737833Y-169896385D01*
X142546564Y-169975611D01*
X142343516Y-170016000D01*
X142136484Y-170016000D01*
X141933436Y-169975611D01*
X141742167Y-169896385D01*
X141742166Y-169896385D01*
X141742165Y-169896384D01*
X141570027Y-169781365D01*
X141423635Y-169634973D01*
X141308616Y-169462835D01*
X141308615Y-169462833D01*
X141229389Y-169271564D01*
X141189000Y-169068516D01*
X141189000Y-168861484D01*
X141229389Y-168658436D01*
X141308615Y-168467167D01*
X141423635Y-168295027D01*
X141570027Y-168148635D01*
X141742165Y-168033616D01*
X141742167Y-168033615D01*
X141933436Y-167954389D01*
X142136484Y-167914000D01*
X142343516Y-167914000D01*
X142546564Y-167954389D01*
X142546564Y-167954389D01*
G37*
G36*
X149046564Y-163454389D02*
G01*
X149237833Y-163533615D01*
X149237835Y-163533616D01*
X149409973Y-163648635D01*
X149556365Y-163795027D01*
X149671385Y-163967167D01*
X149750611Y-164158436D01*
X149791000Y-164361484D01*
X149791000Y-164568516D01*
X149750611Y-164771564D01*
X149683904Y-164932609D01*
X149671384Y-164962835D01*
X149556365Y-165134973D01*
X149409973Y-165281365D01*
X149237835Y-165396384D01*
X149237834Y-165396385D01*
X149237833Y-165396385D01*
X149046564Y-165475611D01*
X148843516Y-165516000D01*
X148636484Y-165516000D01*
X148433436Y-165475611D01*
X148242167Y-165396385D01*
X148242166Y-165396385D01*
X148242165Y-165396384D01*
X148070027Y-165281365D01*
X147923635Y-165134973D01*
X147808616Y-164962835D01*
X147796096Y-164932609D01*
X147729389Y-164771564D01*
X147689000Y-164568516D01*
X147689000Y-164361484D01*
X147729389Y-164158436D01*
X147808615Y-163967167D01*
X147923635Y-163795027D01*
X148070027Y-163648635D01*
X148242165Y-163533616D01*
X148242167Y-163533615D01*
X148433436Y-163454389D01*
X148636484Y-163414000D01*
X148843516Y-163414000D01*
X149046564Y-163454389D01*
X149046564Y-163454389D01*
G37*
G36*
X142546564Y-163454389D02*
G01*
X142737833Y-163533615D01*
X142737835Y-163533616D01*
X142909973Y-163648635D01*
X143056365Y-163795027D01*
X143171385Y-163967167D01*
X143250611Y-164158436D01*
X143291000Y-164361484D01*
X143291000Y-164568516D01*
X143250611Y-164771564D01*
X143183904Y-164932609D01*
X143171384Y-164962835D01*
X143056365Y-165134973D01*
X142909973Y-165281365D01*
X142737835Y-165396384D01*
X142737834Y-165396385D01*
X142737833Y-165396385D01*
X142546564Y-165475611D01*
X142343516Y-165516000D01*
X142136484Y-165516000D01*
X141933436Y-165475611D01*
X141742167Y-165396385D01*
X141742166Y-165396385D01*
X141742165Y-165396384D01*
X141570027Y-165281365D01*
X141423635Y-165134973D01*
X141308616Y-164962835D01*
X141296096Y-164932609D01*
X141229389Y-164771564D01*
X141189000Y-164568516D01*
X141189000Y-164361484D01*
X141229389Y-164158436D01*
X141308615Y-163967167D01*
X141423635Y-163795027D01*
X141570027Y-163648635D01*
X141742165Y-163533616D01*
X141742167Y-163533615D01*
X141933436Y-163454389D01*
X142136484Y-163414000D01*
X142343516Y-163414000D01*
X142546564Y-163454389D01*
X142546564Y-163454389D01*
G37*
G36*
X160821823Y-161086313D02*
G01*
X160982242Y-161134976D01*
X161114906Y-161205886D01*
X161130078Y-161213996D01*
X161259659Y-161320341D01*
X161366004Y-161449922D01*
X161366005Y-161449924D01*
X161445024Y-161597758D01*
X161493687Y-161758177D01*
X161510117Y-161925000D01*
X161493687Y-162091823D01*
X161445024Y-162252242D01*
X161389772Y-162355611D01*
X161366004Y-162400078D01*
X161259659Y-162529659D01*
X161130078Y-162636004D01*
X161130076Y-162636005D01*
X160982242Y-162715024D01*
X160821823Y-162763687D01*
X160696804Y-162776000D01*
X160613196Y-162776000D01*
X160488177Y-162763687D01*
X160327758Y-162715024D01*
X160179924Y-162636005D01*
X160179922Y-162636004D01*
X160050341Y-162529659D01*
X159943996Y-162400078D01*
X159920228Y-162355611D01*
X159864976Y-162252242D01*
X159816313Y-162091823D01*
X159799883Y-161925000D01*
X159816313Y-161758177D01*
X159864976Y-161597758D01*
X159943995Y-161449924D01*
X159943996Y-161449922D01*
X160050341Y-161320341D01*
X160179922Y-161213996D01*
X160195094Y-161205886D01*
X160327758Y-161134976D01*
X160488177Y-161086313D01*
X160613196Y-161074000D01*
X160696804Y-161074000D01*
X160821823Y-161086313D01*
X160821823Y-161086313D01*
G37*
G36*
X130341823Y-161086313D02*
G01*
X130502242Y-161134976D01*
X130634906Y-161205886D01*
X130650078Y-161213996D01*
X130779659Y-161320341D01*
X130886004Y-161449922D01*
X130886005Y-161449924D01*
X130965024Y-161597758D01*
X131013687Y-161758177D01*
X131030117Y-161925000D01*
X131013687Y-162091823D01*
X130965024Y-162252242D01*
X130909772Y-162355611D01*
X130886004Y-162400078D01*
X130779659Y-162529659D01*
X130650078Y-162636004D01*
X130650076Y-162636005D01*
X130502242Y-162715024D01*
X130341823Y-162763687D01*
X130216804Y-162776000D01*
X130133196Y-162776000D01*
X130008177Y-162763687D01*
X129847758Y-162715024D01*
X129699924Y-162636005D01*
X129699922Y-162636004D01*
X129570341Y-162529659D01*
X129463996Y-162400078D01*
X129440228Y-162355611D01*
X129384976Y-162252242D01*
X129336313Y-162091823D01*
X129319883Y-161925000D01*
X129336313Y-161758177D01*
X129384976Y-161597758D01*
X129463995Y-161449924D01*
X129463996Y-161449922D01*
X129570341Y-161320341D01*
X129699922Y-161213996D01*
X129715094Y-161205886D01*
X129847758Y-161134976D01*
X130008177Y-161086313D01*
X130133196Y-161074000D01*
X130216804Y-161074000D01*
X130341823Y-161086313D01*
X130341823Y-161086313D01*
G37*
G36*
X141426564Y-160334389D02*
G01*
X141617833Y-160413615D01*
X141617835Y-160413616D01*
X141789973Y-160528635D01*
X141936365Y-160675027D01*
X142051385Y-160847167D01*
X142130611Y-161038436D01*
X142171000Y-161241484D01*
X142171000Y-161448516D01*
X142130611Y-161651564D01*
X142051385Y-161842833D01*
X142051384Y-161842835D01*
X141936365Y-162014973D01*
X141789973Y-162161365D01*
X141617835Y-162276384D01*
X141617834Y-162276385D01*
X141617833Y-162276385D01*
X141426564Y-162355611D01*
X141223516Y-162396000D01*
X141016484Y-162396000D01*
X140813436Y-162355611D01*
X140622167Y-162276385D01*
X140622166Y-162276385D01*
X140622165Y-162276384D01*
X140450027Y-162161365D01*
X140303635Y-162014973D01*
X140188616Y-161842835D01*
X140188615Y-161842833D01*
X140109389Y-161651564D01*
X140069000Y-161448516D01*
X140069000Y-161241484D01*
X140109389Y-161038436D01*
X140188615Y-160847167D01*
X140303635Y-160675027D01*
X140450027Y-160528635D01*
X140622165Y-160413616D01*
X140622167Y-160413615D01*
X140813436Y-160334389D01*
X141016484Y-160294000D01*
X141223516Y-160294000D01*
X141426564Y-160334389D01*
X141426564Y-160334389D01*
G37*
G36*
X134926564Y-160334389D02*
G01*
X135117833Y-160413615D01*
X135117835Y-160413616D01*
X135289973Y-160528635D01*
X135436365Y-160675027D01*
X135551385Y-160847167D01*
X135630611Y-161038436D01*
X135671000Y-161241484D01*
X135671000Y-161448516D01*
X135630611Y-161651564D01*
X135551385Y-161842833D01*
X135551384Y-161842835D01*
X135436365Y-162014973D01*
X135289973Y-162161365D01*
X135117835Y-162276384D01*
X135117834Y-162276385D01*
X135117833Y-162276385D01*
X134926564Y-162355611D01*
X134723516Y-162396000D01*
X134516484Y-162396000D01*
X134313436Y-162355611D01*
X134122167Y-162276385D01*
X134122166Y-162276385D01*
X134122165Y-162276384D01*
X133950027Y-162161365D01*
X133803635Y-162014973D01*
X133688616Y-161842835D01*
X133688615Y-161842833D01*
X133609389Y-161651564D01*
X133569000Y-161448516D01*
X133569000Y-161241484D01*
X133609389Y-161038436D01*
X133688615Y-160847167D01*
X133803635Y-160675027D01*
X133950027Y-160528635D01*
X134122165Y-160413616D01*
X134122167Y-160413615D01*
X134313436Y-160334389D01*
X134516484Y-160294000D01*
X134723516Y-160294000D01*
X134926564Y-160334389D01*
X134926564Y-160334389D01*
G37*
G36*
X156666564Y-160334389D02*
G01*
X156857833Y-160413615D01*
X156857835Y-160413616D01*
X157029973Y-160528635D01*
X157176365Y-160675027D01*
X157291385Y-160847167D01*
X157370611Y-161038436D01*
X157411000Y-161241484D01*
X157411000Y-161448516D01*
X157370611Y-161651564D01*
X157291385Y-161842833D01*
X157291384Y-161842835D01*
X157176365Y-162014973D01*
X157029973Y-162161365D01*
X156857835Y-162276384D01*
X156857834Y-162276385D01*
X156857833Y-162276385D01*
X156666564Y-162355611D01*
X156463516Y-162396000D01*
X156256484Y-162396000D01*
X156053436Y-162355611D01*
X155862167Y-162276385D01*
X155862166Y-162276385D01*
X155862165Y-162276384D01*
X155690027Y-162161365D01*
X155543635Y-162014973D01*
X155428616Y-161842835D01*
X155428615Y-161842833D01*
X155349389Y-161651564D01*
X155309000Y-161448516D01*
X155309000Y-161241484D01*
X155349389Y-161038436D01*
X155428615Y-160847167D01*
X155543635Y-160675027D01*
X155690027Y-160528635D01*
X155862165Y-160413616D01*
X155862167Y-160413615D01*
X156053436Y-160334389D01*
X156256484Y-160294000D01*
X156463516Y-160294000D01*
X156666564Y-160334389D01*
X156666564Y-160334389D01*
G37*
G36*
X150166564Y-160334389D02*
G01*
X150357833Y-160413615D01*
X150357835Y-160413616D01*
X150529973Y-160528635D01*
X150676365Y-160675027D01*
X150791385Y-160847167D01*
X150870611Y-161038436D01*
X150911000Y-161241484D01*
X150911000Y-161448516D01*
X150870611Y-161651564D01*
X150791385Y-161842833D01*
X150791384Y-161842835D01*
X150676365Y-162014973D01*
X150529973Y-162161365D01*
X150357835Y-162276384D01*
X150357834Y-162276385D01*
X150357833Y-162276385D01*
X150166564Y-162355611D01*
X149963516Y-162396000D01*
X149756484Y-162396000D01*
X149553436Y-162355611D01*
X149362167Y-162276385D01*
X149362166Y-162276385D01*
X149362165Y-162276384D01*
X149190027Y-162161365D01*
X149043635Y-162014973D01*
X148928616Y-161842835D01*
X148928615Y-161842833D01*
X148849389Y-161651564D01*
X148809000Y-161448516D01*
X148809000Y-161241484D01*
X148849389Y-161038436D01*
X148928615Y-160847167D01*
X149043635Y-160675027D01*
X149190027Y-160528635D01*
X149362165Y-160413616D01*
X149362167Y-160413615D01*
X149553436Y-160334389D01*
X149756484Y-160294000D01*
X149963516Y-160294000D01*
X150166564Y-160334389D01*
X150166564Y-160334389D01*
G37*
G36*
X150166564Y-155834389D02*
G01*
X150357833Y-155913615D01*
X150357835Y-155913616D01*
X150529973Y-156028635D01*
X150676365Y-156175027D01*
X150791385Y-156347167D01*
X150870611Y-156538436D01*
X150911000Y-156741484D01*
X150911000Y-156948516D01*
X150870611Y-157151564D01*
X150791385Y-157342833D01*
X150791384Y-157342835D01*
X150676365Y-157514973D01*
X150529973Y-157661365D01*
X150357835Y-157776384D01*
X150357834Y-157776385D01*
X150357833Y-157776385D01*
X150166564Y-157855611D01*
X149963516Y-157896000D01*
X149756484Y-157896000D01*
X149553436Y-157855611D01*
X149362167Y-157776385D01*
X149362166Y-157776385D01*
X149362165Y-157776384D01*
X149190027Y-157661365D01*
X149043635Y-157514973D01*
X148928616Y-157342835D01*
X148928615Y-157342833D01*
X148849389Y-157151564D01*
X148809000Y-156948516D01*
X148809000Y-156741484D01*
X148849389Y-156538436D01*
X148928615Y-156347167D01*
X149043635Y-156175027D01*
X149190027Y-156028635D01*
X149362165Y-155913616D01*
X149362167Y-155913615D01*
X149553436Y-155834389D01*
X149756484Y-155794000D01*
X149963516Y-155794000D01*
X150166564Y-155834389D01*
X150166564Y-155834389D01*
G37*
G36*
X156666564Y-155834389D02*
G01*
X156857833Y-155913615D01*
X156857835Y-155913616D01*
X157029973Y-156028635D01*
X157176365Y-156175027D01*
X157291385Y-156347167D01*
X157370611Y-156538436D01*
X157411000Y-156741484D01*
X157411000Y-156948516D01*
X157370611Y-157151564D01*
X157291385Y-157342833D01*
X157291384Y-157342835D01*
X157176365Y-157514973D01*
X157029973Y-157661365D01*
X156857835Y-157776384D01*
X156857834Y-157776385D01*
X156857833Y-157776385D01*
X156666564Y-157855611D01*
X156463516Y-157896000D01*
X156256484Y-157896000D01*
X156053436Y-157855611D01*
X155862167Y-157776385D01*
X155862166Y-157776385D01*
X155862165Y-157776384D01*
X155690027Y-157661365D01*
X155543635Y-157514973D01*
X155428616Y-157342835D01*
X155428615Y-157342833D01*
X155349389Y-157151564D01*
X155309000Y-156948516D01*
X155309000Y-156741484D01*
X155349389Y-156538436D01*
X155428615Y-156347167D01*
X155543635Y-156175027D01*
X155690027Y-156028635D01*
X155862165Y-155913616D01*
X155862167Y-155913615D01*
X156053436Y-155834389D01*
X156256484Y-155794000D01*
X156463516Y-155794000D01*
X156666564Y-155834389D01*
X156666564Y-155834389D01*
G37*
G36*
X134926564Y-155834389D02*
G01*
X135117833Y-155913615D01*
X135117835Y-155913616D01*
X135289973Y-156028635D01*
X135436365Y-156175027D01*
X135551385Y-156347167D01*
X135630611Y-156538436D01*
X135671000Y-156741484D01*
X135671000Y-156948516D01*
X135630611Y-157151564D01*
X135551385Y-157342833D01*
X135551384Y-157342835D01*
X135436365Y-157514973D01*
X135289973Y-157661365D01*
X135117835Y-157776384D01*
X135117834Y-157776385D01*
X135117833Y-157776385D01*
X134926564Y-157855611D01*
X134723516Y-157896000D01*
X134516484Y-157896000D01*
X134313436Y-157855611D01*
X134122167Y-157776385D01*
X134122166Y-157776385D01*
X134122165Y-157776384D01*
X133950027Y-157661365D01*
X133803635Y-157514973D01*
X133688616Y-157342835D01*
X133688615Y-157342833D01*
X133609389Y-157151564D01*
X133569000Y-156948516D01*
X133569000Y-156741484D01*
X133609389Y-156538436D01*
X133688615Y-156347167D01*
X133803635Y-156175027D01*
X133950027Y-156028635D01*
X134122165Y-155913616D01*
X134122167Y-155913615D01*
X134313436Y-155834389D01*
X134516484Y-155794000D01*
X134723516Y-155794000D01*
X134926564Y-155834389D01*
X134926564Y-155834389D01*
G37*
G36*
X141426564Y-155834389D02*
G01*
X141617833Y-155913615D01*
X141617835Y-155913616D01*
X141789973Y-156028635D01*
X141936365Y-156175027D01*
X142051385Y-156347167D01*
X142130611Y-156538436D01*
X142171000Y-156741484D01*
X142171000Y-156948516D01*
X142130611Y-157151564D01*
X142051385Y-157342833D01*
X142051384Y-157342835D01*
X141936365Y-157514973D01*
X141789973Y-157661365D01*
X141617835Y-157776384D01*
X141617834Y-157776385D01*
X141617833Y-157776385D01*
X141426564Y-157855611D01*
X141223516Y-157896000D01*
X141016484Y-157896000D01*
X140813436Y-157855611D01*
X140622167Y-157776385D01*
X140622166Y-157776385D01*
X140622165Y-157776384D01*
X140450027Y-157661365D01*
X140303635Y-157514973D01*
X140188616Y-157342835D01*
X140188615Y-157342833D01*
X140109389Y-157151564D01*
X140069000Y-156948516D01*
X140069000Y-156741484D01*
X140109389Y-156538436D01*
X140188615Y-156347167D01*
X140303635Y-156175027D01*
X140450027Y-156028635D01*
X140622165Y-155913616D01*
X140622167Y-155913615D01*
X140813436Y-155834389D01*
X141016484Y-155794000D01*
X141223516Y-155794000D01*
X141426564Y-155834389D01*
X141426564Y-155834389D01*
G37*
G36*
X130423228Y-153486703D02*
G01*
X130578100Y-153550853D01*
X130717481Y-153643985D01*
X130836015Y-153762519D01*
X130929147Y-153901900D01*
X130993297Y-154056772D01*
X131026000Y-154221184D01*
X131026000Y-154388816D01*
X130993297Y-154553228D01*
X130929147Y-154708100D01*
X130836015Y-154847481D01*
X130717481Y-154966015D01*
X130578100Y-155059147D01*
X130423228Y-155123297D01*
X130258816Y-155156000D01*
X130091184Y-155156000D01*
X129926772Y-155123297D01*
X129771900Y-155059147D01*
X129632519Y-154966015D01*
X129513985Y-154847481D01*
X129420853Y-154708100D01*
X129356703Y-154553228D01*
X129324000Y-154388816D01*
X129324000Y-154221184D01*
X129356703Y-154056772D01*
X129420853Y-153901900D01*
X129513985Y-153762519D01*
X129632519Y-153643985D01*
X129771900Y-153550853D01*
X129926772Y-153486703D01*
X130091184Y-153454000D01*
X130258816Y-153454000D01*
X130423228Y-153486703D01*
X130423228Y-153486703D01*
G37*
G36*
X160903228Y-153486703D02*
G01*
X161058100Y-153550853D01*
X161197481Y-153643985D01*
X161316015Y-153762519D01*
X161409147Y-153901900D01*
X161473297Y-154056772D01*
X161506000Y-154221184D01*
X161506000Y-154388816D01*
X161473297Y-154553228D01*
X161409147Y-154708100D01*
X161316015Y-154847481D01*
X161197481Y-154966015D01*
X161058100Y-155059147D01*
X160903228Y-155123297D01*
X160738816Y-155156000D01*
X160571184Y-155156000D01*
X160406772Y-155123297D01*
X160251900Y-155059147D01*
X160112519Y-154966015D01*
X159993985Y-154847481D01*
X159900853Y-154708100D01*
X159836703Y-154553228D01*
X159804000Y-154388816D01*
X159804000Y-154221184D01*
X159836703Y-154056772D01*
X159900853Y-153901900D01*
X159993985Y-153762519D01*
X160112519Y-153643985D01*
X160251900Y-153550853D01*
X160406772Y-153486703D01*
X160571184Y-153454000D01*
X160738816Y-153454000D01*
X160903228Y-153486703D01*
X160903228Y-153486703D01*
G37*
G36*
X149046564Y-152714389D02*
G01*
X149237833Y-152793615D01*
X149237835Y-152793616D01*
X149409973Y-152908635D01*
X149556365Y-153055027D01*
X149671385Y-153227167D01*
X149750611Y-153418436D01*
X149791000Y-153621484D01*
X149791000Y-153828516D01*
X149750611Y-154031564D01*
X149671385Y-154222833D01*
X149671384Y-154222835D01*
X149556365Y-154394973D01*
X149409973Y-154541365D01*
X149237835Y-154656384D01*
X149237834Y-154656385D01*
X149237833Y-154656385D01*
X149046564Y-154735611D01*
X148843516Y-154776000D01*
X148636484Y-154776000D01*
X148433436Y-154735611D01*
X148242167Y-154656385D01*
X148242166Y-154656385D01*
X148242165Y-154656384D01*
X148070027Y-154541365D01*
X147923635Y-154394973D01*
X147808616Y-154222835D01*
X147808615Y-154222833D01*
X147729389Y-154031564D01*
X147689000Y-153828516D01*
X147689000Y-153621484D01*
X147729389Y-153418436D01*
X147808615Y-153227167D01*
X147923635Y-153055027D01*
X148070027Y-152908635D01*
X148242165Y-152793616D01*
X148242167Y-152793615D01*
X148433436Y-152714389D01*
X148636484Y-152674000D01*
X148843516Y-152674000D01*
X149046564Y-152714389D01*
X149046564Y-152714389D01*
G37*
G36*
X142546564Y-152714389D02*
G01*
X142737833Y-152793615D01*
X142737835Y-152793616D01*
X142909973Y-152908635D01*
X143056365Y-153055027D01*
X143171385Y-153227167D01*
X143250611Y-153418436D01*
X143291000Y-153621484D01*
X143291000Y-153828516D01*
X143250611Y-154031564D01*
X143171385Y-154222833D01*
X143171384Y-154222835D01*
X143056365Y-154394973D01*
X142909973Y-154541365D01*
X142737835Y-154656384D01*
X142737834Y-154656385D01*
X142737833Y-154656385D01*
X142546564Y-154735611D01*
X142343516Y-154776000D01*
X142136484Y-154776000D01*
X141933436Y-154735611D01*
X141742167Y-154656385D01*
X141742166Y-154656385D01*
X141742165Y-154656384D01*
X141570027Y-154541365D01*
X141423635Y-154394973D01*
X141308616Y-154222835D01*
X141308615Y-154222833D01*
X141229389Y-154031564D01*
X141189000Y-153828516D01*
X141189000Y-153621484D01*
X141229389Y-153418436D01*
X141308615Y-153227167D01*
X141423635Y-153055027D01*
X141570027Y-152908635D01*
X141742165Y-152793616D01*
X141742167Y-152793615D01*
X141933436Y-152714389D01*
X142136484Y-152674000D01*
X142343516Y-152674000D01*
X142546564Y-152714389D01*
X142546564Y-152714389D01*
G37*
G36*
X160903228Y-150311703D02*
G01*
X161058100Y-150375853D01*
X161197481Y-150468985D01*
X161316015Y-150587519D01*
X161409147Y-150726900D01*
X161473297Y-150881772D01*
X161506000Y-151046184D01*
X161506000Y-151213816D01*
X161473297Y-151378228D01*
X161409147Y-151533100D01*
X161316015Y-151672481D01*
X161197481Y-151791015D01*
X161058100Y-151884147D01*
X160903228Y-151948297D01*
X160738816Y-151981000D01*
X160571184Y-151981000D01*
X160406772Y-151948297D01*
X160251900Y-151884147D01*
X160112519Y-151791015D01*
X159993985Y-151672481D01*
X159900853Y-151533100D01*
X159836703Y-151378228D01*
X159804000Y-151213816D01*
X159804000Y-151046184D01*
X159836703Y-150881772D01*
X159900853Y-150726900D01*
X159993985Y-150587519D01*
X160112519Y-150468985D01*
X160251900Y-150375853D01*
X160406772Y-150311703D01*
X160571184Y-150279000D01*
X160738816Y-150279000D01*
X160903228Y-150311703D01*
X160903228Y-150311703D01*
G37*
G36*
X130341823Y-150291313D02*
G01*
X130502242Y-150339976D01*
X130569361Y-150375852D01*
X130650078Y-150418996D01*
X130779659Y-150525341D01*
X130886004Y-150654922D01*
X130886005Y-150654924D01*
X130965024Y-150802758D01*
X131013687Y-150963177D01*
X131030117Y-151130000D01*
X131013687Y-151296823D01*
X130965024Y-151457242D01*
X130924477Y-151533100D01*
X130886004Y-151605078D01*
X130779659Y-151734659D01*
X130650078Y-151841004D01*
X130650076Y-151841005D01*
X130502242Y-151920024D01*
X130341823Y-151968687D01*
X130216804Y-151981000D01*
X130133196Y-151981000D01*
X130008177Y-151968687D01*
X129847758Y-151920024D01*
X129699924Y-151841005D01*
X129699922Y-151841004D01*
X129570341Y-151734659D01*
X129463996Y-151605078D01*
X129425523Y-151533100D01*
X129384976Y-151457242D01*
X129336313Y-151296823D01*
X129319883Y-151130000D01*
X129336313Y-150963177D01*
X129384976Y-150802758D01*
X129463995Y-150654924D01*
X129463996Y-150654922D01*
X129570341Y-150525341D01*
X129699922Y-150418996D01*
X129780639Y-150375852D01*
X129847758Y-150339976D01*
X130008177Y-150291313D01*
X130133196Y-150279000D01*
X130216804Y-150279000D01*
X130341823Y-150291313D01*
X130341823Y-150291313D01*
G37*
G36*
X149046564Y-148214389D02*
G01*
X149237833Y-148293615D01*
X149237835Y-148293616D01*
X149409973Y-148408635D01*
X149556365Y-148555027D01*
X149671385Y-148727167D01*
X149750611Y-148918436D01*
X149791000Y-149121484D01*
X149791000Y-149328516D01*
X149750611Y-149531564D01*
X149671385Y-149722833D01*
X149671384Y-149722835D01*
X149556365Y-149894973D01*
X149409973Y-150041365D01*
X149237835Y-150156384D01*
X149237834Y-150156385D01*
X149237833Y-150156385D01*
X149046564Y-150235611D01*
X148843516Y-150276000D01*
X148636484Y-150276000D01*
X148433436Y-150235611D01*
X148242167Y-150156385D01*
X148242166Y-150156385D01*
X148242165Y-150156384D01*
X148070027Y-150041365D01*
X147923635Y-149894973D01*
X147808616Y-149722835D01*
X147808615Y-149722833D01*
X147729389Y-149531564D01*
X147689000Y-149328516D01*
X147689000Y-149121484D01*
X147729389Y-148918436D01*
X147808615Y-148727167D01*
X147923635Y-148555027D01*
X148070027Y-148408635D01*
X148242165Y-148293616D01*
X148242167Y-148293615D01*
X148433436Y-148214389D01*
X148636484Y-148174000D01*
X148843516Y-148174000D01*
X149046564Y-148214389D01*
X149046564Y-148214389D01*
G37*
G36*
X142546564Y-148214389D02*
G01*
X142737833Y-148293615D01*
X142737835Y-148293616D01*
X142909973Y-148408635D01*
X143056365Y-148555027D01*
X143171385Y-148727167D01*
X143250611Y-148918436D01*
X143291000Y-149121484D01*
X143291000Y-149328516D01*
X143250611Y-149531564D01*
X143171385Y-149722833D01*
X143171384Y-149722835D01*
X143056365Y-149894973D01*
X142909973Y-150041365D01*
X142737835Y-150156384D01*
X142737834Y-150156385D01*
X142737833Y-150156385D01*
X142546564Y-150235611D01*
X142343516Y-150276000D01*
X142136484Y-150276000D01*
X141933436Y-150235611D01*
X141742167Y-150156385D01*
X141742166Y-150156385D01*
X141742165Y-150156384D01*
X141570027Y-150041365D01*
X141423635Y-149894973D01*
X141308616Y-149722835D01*
X141308615Y-149722833D01*
X141229389Y-149531564D01*
X141189000Y-149328516D01*
X141189000Y-149121484D01*
X141229389Y-148918436D01*
X141308615Y-148727167D01*
X141423635Y-148555027D01*
X141570027Y-148408635D01*
X141742165Y-148293616D01*
X141742167Y-148293615D01*
X141933436Y-148214389D01*
X142136484Y-148174000D01*
X142343516Y-148174000D01*
X142546564Y-148214389D01*
X142546564Y-148214389D01*
G37*
G36*
X141853228Y-145231703D02*
G01*
X142008100Y-145295853D01*
X142147481Y-145388985D01*
X142266015Y-145507519D01*
X142359147Y-145646900D01*
X142423297Y-145801772D01*
X142456000Y-145966184D01*
X142456000Y-146133816D01*
X142423297Y-146298228D01*
X142359147Y-146453100D01*
X142266015Y-146592481D01*
X142147481Y-146711015D01*
X142008100Y-146804147D01*
X141853228Y-146868297D01*
X141688816Y-146901000D01*
X141521184Y-146901000D01*
X141356772Y-146868297D01*
X141201900Y-146804147D01*
X141062519Y-146711015D01*
X140943985Y-146592481D01*
X140850853Y-146453100D01*
X140786703Y-146298228D01*
X140754000Y-146133816D01*
X140754000Y-145966184D01*
X140786703Y-145801772D01*
X140850853Y-145646900D01*
X140943985Y-145507519D01*
X141062519Y-145388985D01*
X141201900Y-145295853D01*
X141356772Y-145231703D01*
X141521184Y-145199000D01*
X141688816Y-145199000D01*
X141853228Y-145231703D01*
X141853228Y-145231703D01*
G37*
G36*
X149391823Y-145211313D02*
G01*
X149552242Y-145259976D01*
X149619361Y-145295852D01*
X149700078Y-145338996D01*
X149829659Y-145445341D01*
X149936004Y-145574922D01*
X149936005Y-145574924D01*
X150015024Y-145722758D01*
X150063687Y-145883177D01*
X150080117Y-146050000D01*
X150063687Y-146216823D01*
X150015024Y-146377242D01*
X149974477Y-146453100D01*
X149936004Y-146525078D01*
X149829659Y-146654659D01*
X149700078Y-146761004D01*
X149700076Y-146761005D01*
X149552242Y-146840024D01*
X149391823Y-146888687D01*
X149266804Y-146901000D01*
X149183196Y-146901000D01*
X149058177Y-146888687D01*
X148897758Y-146840024D01*
X148749924Y-146761005D01*
X148749922Y-146761004D01*
X148620341Y-146654659D01*
X148513996Y-146525078D01*
X148475523Y-146453100D01*
X148434976Y-146377242D01*
X148386313Y-146216823D01*
X148369883Y-146050000D01*
X148386313Y-145883177D01*
X148434976Y-145722758D01*
X148513995Y-145574924D01*
X148513996Y-145574922D01*
X148620341Y-145445341D01*
X148749922Y-145338996D01*
X148830639Y-145295852D01*
X148897758Y-145259976D01*
X149058177Y-145211313D01*
X149183196Y-145199000D01*
X149266804Y-145199000D01*
X149391823Y-145211313D01*
X149391823Y-145211313D01*
G37*
G36*
X130423228Y-142691703D02*
G01*
X130578100Y-142755853D01*
X130717481Y-142848985D01*
X130836015Y-142967519D01*
X130929147Y-143106900D01*
X130993297Y-143261772D01*
X131026000Y-143426184D01*
X131026000Y-143593816D01*
X130993297Y-143758228D01*
X130929147Y-143913100D01*
X130836015Y-144052481D01*
X130717481Y-144171015D01*
X130578100Y-144264147D01*
X130423228Y-144328297D01*
X130258816Y-144361000D01*
X130091184Y-144361000D01*
X129926772Y-144328297D01*
X129771900Y-144264147D01*
X129632519Y-144171015D01*
X129513985Y-144052481D01*
X129420853Y-143913100D01*
X129356703Y-143758228D01*
X129324000Y-143593816D01*
X129324000Y-143426184D01*
X129356703Y-143261772D01*
X129420853Y-143106900D01*
X129513985Y-142967519D01*
X129632519Y-142848985D01*
X129771900Y-142755853D01*
X129926772Y-142691703D01*
X130091184Y-142659000D01*
X130258816Y-142659000D01*
X130423228Y-142691703D01*
X130423228Y-142691703D01*
G37*
G36*
X160821823Y-142671313D02*
G01*
X160982242Y-142719976D01*
X161049361Y-142755852D01*
X161130078Y-142798996D01*
X161259659Y-142905341D01*
X161366004Y-143034922D01*
X161366005Y-143034924D01*
X161445024Y-143182758D01*
X161493687Y-143343177D01*
X161510117Y-143510000D01*
X161493687Y-143676823D01*
X161445024Y-143837242D01*
X161404477Y-143913100D01*
X161366004Y-143985078D01*
X161259659Y-144114659D01*
X161130078Y-144221004D01*
X161130076Y-144221005D01*
X160982242Y-144300024D01*
X160821823Y-144348687D01*
X160696804Y-144361000D01*
X160613196Y-144361000D01*
X160488177Y-144348687D01*
X160327758Y-144300024D01*
X160179924Y-144221005D01*
X160179922Y-144221004D01*
X160050341Y-144114659D01*
X159943996Y-143985078D01*
X159905523Y-143913100D01*
X159864976Y-143837242D01*
X159816313Y-143676823D01*
X159799883Y-143510000D01*
X159816313Y-143343177D01*
X159864976Y-143182758D01*
X159943995Y-143034924D01*
X159943996Y-143034922D01*
X160050341Y-142905341D01*
X160179922Y-142798996D01*
X160260639Y-142755852D01*
X160327758Y-142719976D01*
X160488177Y-142671313D01*
X160613196Y-142659000D01*
X160696804Y-142659000D01*
X160821823Y-142671313D01*
X160821823Y-142671313D01*
G37*
G36*
X138032142Y-142093242D02*
G01*
X138180101Y-142154529D01*
X138313255Y-142243499D01*
X138426501Y-142356745D01*
X138515471Y-142489899D01*
X138576758Y-142637858D01*
X138608000Y-142794925D01*
X138608000Y-142955075D01*
X138576758Y-143112142D01*
X138515471Y-143260101D01*
X138426501Y-143393255D01*
X138313255Y-143506501D01*
X138180101Y-143595471D01*
X138032142Y-143656758D01*
X137875075Y-143688000D01*
X137714925Y-143688000D01*
X137557858Y-143656758D01*
X137409899Y-143595471D01*
X137276745Y-143506501D01*
X137163499Y-143393255D01*
X137074529Y-143260101D01*
X137013242Y-143112142D01*
X136982000Y-142955075D01*
X136982000Y-142794925D01*
X137013242Y-142637858D01*
X137074529Y-142489899D01*
X137163499Y-142356745D01*
X137276745Y-142243499D01*
X137409899Y-142154529D01*
X137557858Y-142093242D01*
X137714925Y-142062000D01*
X137875075Y-142062000D01*
X138032142Y-142093242D01*
X138032142Y-142093242D01*
G37*
G36*
X153272142Y-142093242D02*
G01*
X153420101Y-142154529D01*
X153553255Y-142243499D01*
X153666501Y-142356745D01*
X153755471Y-142489899D01*
X153816758Y-142637858D01*
X153848000Y-142794925D01*
X153848000Y-142955075D01*
X153816758Y-143112142D01*
X153755471Y-143260101D01*
X153666501Y-143393255D01*
X153553255Y-143506501D01*
X153420101Y-143595471D01*
X153272142Y-143656758D01*
X153115075Y-143688000D01*
X152954925Y-143688000D01*
X152797858Y-143656758D01*
X152649899Y-143595471D01*
X152516745Y-143506501D01*
X152403499Y-143393255D01*
X152314529Y-143260101D01*
X152253242Y-143112142D01*
X152222000Y-142955075D01*
X152222000Y-142794925D01*
X152253242Y-142637858D01*
X152314529Y-142489899D01*
X152403499Y-142356745D01*
X152516745Y-142243499D01*
X152649899Y-142154529D01*
X152797858Y-142093242D01*
X152954925Y-142062000D01*
X153115075Y-142062000D01*
X153272142Y-142093242D01*
X153272142Y-142093242D01*
G37*
G36*
X160903228Y-139516703D02*
G01*
X161058100Y-139580853D01*
X161197481Y-139673985D01*
X161316015Y-139792519D01*
X161409147Y-139931900D01*
X161473297Y-140086772D01*
X161506000Y-140251184D01*
X161506000Y-140418816D01*
X161473297Y-140583228D01*
X161409147Y-140738100D01*
X161316015Y-140877481D01*
X161197481Y-140996015D01*
X161058100Y-141089147D01*
X160903228Y-141153297D01*
X160738816Y-141186000D01*
X160571184Y-141186000D01*
X160406772Y-141153297D01*
X160251900Y-141089147D01*
X160112519Y-140996015D01*
X159993985Y-140877481D01*
X159900853Y-140738100D01*
X159836703Y-140583228D01*
X159804000Y-140418816D01*
X159804000Y-140251184D01*
X159836703Y-140086772D01*
X159900853Y-139931900D01*
X159993985Y-139792519D01*
X160112519Y-139673985D01*
X160251900Y-139580853D01*
X160406772Y-139516703D01*
X160571184Y-139484000D01*
X160738816Y-139484000D01*
X160903228Y-139516703D01*
X160903228Y-139516703D01*
G37*
G36*
X130341823Y-139496313D02*
G01*
X130502242Y-139544976D01*
X130569361Y-139580852D01*
X130650078Y-139623996D01*
X130779659Y-139730341D01*
X130886004Y-139859922D01*
X130886005Y-139859924D01*
X130965024Y-140007758D01*
X131013687Y-140168177D01*
X131030117Y-140335000D01*
X131013687Y-140501823D01*
X130965024Y-140662242D01*
X130924477Y-140738100D01*
X130886004Y-140810078D01*
X130779659Y-140939659D01*
X130650078Y-141046004D01*
X130650076Y-141046005D01*
X130502242Y-141125024D01*
X130341823Y-141173687D01*
X130216804Y-141186000D01*
X130133196Y-141186000D01*
X130008177Y-141173687D01*
X129847758Y-141125024D01*
X129699924Y-141046005D01*
X129699922Y-141046004D01*
X129570341Y-140939659D01*
X129463996Y-140810078D01*
X129425523Y-140738100D01*
X129384976Y-140662242D01*
X129336313Y-140501823D01*
X129319883Y-140335000D01*
X129336313Y-140168177D01*
X129384976Y-140007758D01*
X129463995Y-139859924D01*
X129463996Y-139859922D01*
X129570341Y-139730341D01*
X129699922Y-139623996D01*
X129780639Y-139580852D01*
X129847758Y-139544976D01*
X130008177Y-139496313D01*
X130133196Y-139484000D01*
X130216804Y-139484000D01*
X130341823Y-139496313D01*
X130341823Y-139496313D01*
G37*
G36*
X153272142Y-139553242D02*
G01*
X153420101Y-139614529D01*
X153553255Y-139703499D01*
X153666501Y-139816745D01*
X153755471Y-139949899D01*
X153816758Y-140097858D01*
X153848000Y-140254925D01*
X153848000Y-140415075D01*
X153816758Y-140572142D01*
X153755471Y-140720101D01*
X153666501Y-140853255D01*
X153553255Y-140966501D01*
X153420101Y-141055471D01*
X153272142Y-141116758D01*
X153115075Y-141148000D01*
X152954925Y-141148000D01*
X152797858Y-141116758D01*
X152649899Y-141055471D01*
X152516745Y-140966501D01*
X152403499Y-140853255D01*
X152314529Y-140720101D01*
X152253242Y-140572142D01*
X152222000Y-140415075D01*
X152222000Y-140254925D01*
X152253242Y-140097858D01*
X152314529Y-139949899D01*
X152403499Y-139816745D01*
X152516745Y-139703499D01*
X152649899Y-139614529D01*
X152797858Y-139553242D01*
X152954925Y-139522000D01*
X153115075Y-139522000D01*
X153272142Y-139553242D01*
X153272142Y-139553242D01*
G37*
G36*
X138032142Y-139553242D02*
G01*
X138180101Y-139614529D01*
X138313255Y-139703499D01*
X138426501Y-139816745D01*
X138515471Y-139949899D01*
X138576758Y-140097858D01*
X138608000Y-140254925D01*
X138608000Y-140415075D01*
X138576758Y-140572142D01*
X138515471Y-140720101D01*
X138426501Y-140853255D01*
X138313255Y-140966501D01*
X138180101Y-141055471D01*
X138032142Y-141116758D01*
X137875075Y-141148000D01*
X137714925Y-141148000D01*
X137557858Y-141116758D01*
X137409899Y-141055471D01*
X137276745Y-140966501D01*
X137163499Y-140853255D01*
X137074529Y-140720101D01*
X137013242Y-140572142D01*
X136982000Y-140415075D01*
X136982000Y-140254925D01*
X137013242Y-140097858D01*
X137074529Y-139949899D01*
X137163499Y-139816745D01*
X137276745Y-139703499D01*
X137409899Y-139614529D01*
X137557858Y-139553242D01*
X137714925Y-139522000D01*
X137875075Y-139522000D01*
X138032142Y-139553242D01*
X138032142Y-139553242D01*
G37*
G36*
X153272142Y-137013242D02*
G01*
X153420101Y-137074529D01*
X153553255Y-137163499D01*
X153666501Y-137276745D01*
X153755471Y-137409899D01*
X153816758Y-137557858D01*
X153848000Y-137714925D01*
X153848000Y-137875075D01*
X153816758Y-138032142D01*
X153755471Y-138180101D01*
X153666501Y-138313255D01*
X153553255Y-138426501D01*
X153420101Y-138515471D01*
X153272142Y-138576758D01*
X153115075Y-138608000D01*
X152954925Y-138608000D01*
X152797858Y-138576758D01*
X152649899Y-138515471D01*
X152516745Y-138426501D01*
X152403499Y-138313255D01*
X152314529Y-138180101D01*
X152253242Y-138032142D01*
X152222000Y-137875075D01*
X152222000Y-137714925D01*
X152253242Y-137557858D01*
X152314529Y-137409899D01*
X152403499Y-137276745D01*
X152516745Y-137163499D01*
X152649899Y-137074529D01*
X152797858Y-137013242D01*
X152954925Y-136982000D01*
X153115075Y-136982000D01*
X153272142Y-137013242D01*
X153272142Y-137013242D01*
G37*
G36*
X138032142Y-137013242D02*
G01*
X138180101Y-137074529D01*
X138313255Y-137163499D01*
X138426501Y-137276745D01*
X138515471Y-137409899D01*
X138576758Y-137557858D01*
X138608000Y-137714925D01*
X138608000Y-137875075D01*
X138576758Y-138032142D01*
X138515471Y-138180101D01*
X138426501Y-138313255D01*
X138313255Y-138426501D01*
X138180101Y-138515471D01*
X138032142Y-138576758D01*
X137875075Y-138608000D01*
X137714925Y-138608000D01*
X137557858Y-138576758D01*
X137409899Y-138515471D01*
X137276745Y-138426501D01*
X137163499Y-138313255D01*
X137074529Y-138180101D01*
X137013242Y-138032142D01*
X136982000Y-137875075D01*
X136982000Y-137714925D01*
X137013242Y-137557858D01*
X137074529Y-137409899D01*
X137163499Y-137276745D01*
X137276745Y-137163499D01*
X137409899Y-137074529D01*
X137557858Y-137013242D01*
X137714925Y-136982000D01*
X137875075Y-136982000D01*
X138032142Y-137013242D01*
X138032142Y-137013242D01*
G37*
G36*
X138032142Y-134473242D02*
G01*
X138180101Y-134534529D01*
X138313255Y-134623499D01*
X138426501Y-134736745D01*
X138515471Y-134869899D01*
X138576758Y-135017858D01*
X138608000Y-135174925D01*
X138608000Y-135335075D01*
X138576758Y-135492142D01*
X138515471Y-135640101D01*
X138426501Y-135773255D01*
X138313255Y-135886501D01*
X138180101Y-135975471D01*
X138032142Y-136036758D01*
X137875075Y-136068000D01*
X137714925Y-136068000D01*
X137557858Y-136036758D01*
X137409899Y-135975471D01*
X137276745Y-135886501D01*
X137163499Y-135773255D01*
X137074529Y-135640101D01*
X137013242Y-135492142D01*
X136982000Y-135335075D01*
X136982000Y-135174925D01*
X137013242Y-135017858D01*
X137074529Y-134869899D01*
X137163499Y-134736745D01*
X137276745Y-134623499D01*
X137409899Y-134534529D01*
X137557858Y-134473242D01*
X137714925Y-134442000D01*
X137875075Y-134442000D01*
X138032142Y-134473242D01*
X138032142Y-134473242D01*
G37*
G36*
X153272142Y-134473242D02*
G01*
X153420101Y-134534529D01*
X153553255Y-134623499D01*
X153666501Y-134736745D01*
X153755471Y-134869899D01*
X153816758Y-135017858D01*
X153848000Y-135174925D01*
X153848000Y-135335075D01*
X153816758Y-135492142D01*
X153755471Y-135640101D01*
X153666501Y-135773255D01*
X153553255Y-135886501D01*
X153420101Y-135975471D01*
X153272142Y-136036758D01*
X153115075Y-136068000D01*
X152954925Y-136068000D01*
X152797858Y-136036758D01*
X152649899Y-135975471D01*
X152516745Y-135886501D01*
X152403499Y-135773255D01*
X152314529Y-135640101D01*
X152253242Y-135492142D01*
X152222000Y-135335075D01*
X152222000Y-135174925D01*
X152253242Y-135017858D01*
X152314529Y-134869899D01*
X152403499Y-134736745D01*
X152516745Y-134623499D01*
X152649899Y-134534529D01*
X152797858Y-134473242D01*
X152954925Y-134442000D01*
X153115075Y-134442000D01*
X153272142Y-134473242D01*
X153272142Y-134473242D01*
G37*
G36*
X130423228Y-131896703D02*
G01*
X130578100Y-131960853D01*
X130717481Y-132053985D01*
X130836015Y-132172519D01*
X130929147Y-132311900D01*
X130993297Y-132466772D01*
X131026000Y-132631184D01*
X131026000Y-132798816D01*
X130993297Y-132963228D01*
X130929147Y-133118100D01*
X130836015Y-133257481D01*
X130717481Y-133376015D01*
X130578100Y-133469147D01*
X130423228Y-133533297D01*
X130258816Y-133566000D01*
X130091184Y-133566000D01*
X129926772Y-133533297D01*
X129771900Y-133469147D01*
X129632519Y-133376015D01*
X129513985Y-133257481D01*
X129420853Y-133118100D01*
X129356703Y-132963228D01*
X129324000Y-132798816D01*
X129324000Y-132631184D01*
X129356703Y-132466772D01*
X129420853Y-132311900D01*
X129513985Y-132172519D01*
X129632519Y-132053985D01*
X129771900Y-131960853D01*
X129926772Y-131896703D01*
X130091184Y-131864000D01*
X130258816Y-131864000D01*
X130423228Y-131896703D01*
X130423228Y-131896703D01*
G37*
G36*
X160821823Y-131876313D02*
G01*
X160982242Y-131924976D01*
X161049361Y-131960852D01*
X161130078Y-132003996D01*
X161259659Y-132110341D01*
X161366004Y-132239922D01*
X161366005Y-132239924D01*
X161445024Y-132387758D01*
X161493687Y-132548177D01*
X161510117Y-132715000D01*
X161493687Y-132881823D01*
X161445024Y-133042242D01*
X161404477Y-133118100D01*
X161366004Y-133190078D01*
X161259659Y-133319659D01*
X161130078Y-133426004D01*
X161130076Y-133426005D01*
X160982242Y-133505024D01*
X160821823Y-133553687D01*
X160696804Y-133566000D01*
X160613196Y-133566000D01*
X160488177Y-133553687D01*
X160327758Y-133505024D01*
X160179924Y-133426005D01*
X160179922Y-133426004D01*
X160050341Y-133319659D01*
X159943996Y-133190078D01*
X159905523Y-133118100D01*
X159864976Y-133042242D01*
X159816313Y-132881823D01*
X159799883Y-132715000D01*
X159816313Y-132548177D01*
X159864976Y-132387758D01*
X159943995Y-132239924D01*
X159943996Y-132239922D01*
X160050341Y-132110341D01*
X160179922Y-132003996D01*
X160260639Y-131960852D01*
X160327758Y-131924976D01*
X160488177Y-131876313D01*
X160613196Y-131864000D01*
X160696804Y-131864000D01*
X160821823Y-131876313D01*
X160821823Y-131876313D01*
G37*
G36*
X153272142Y-131933242D02*
G01*
X153420101Y-131994529D01*
X153553255Y-132083499D01*
X153666501Y-132196745D01*
X153755471Y-132329899D01*
X153816758Y-132477858D01*
X153848000Y-132634925D01*
X153848000Y-132795075D01*
X153816758Y-132952142D01*
X153755471Y-133100101D01*
X153666501Y-133233255D01*
X153553255Y-133346501D01*
X153420101Y-133435471D01*
X153272142Y-133496758D01*
X153115075Y-133528000D01*
X152954925Y-133528000D01*
X152797858Y-133496758D01*
X152649899Y-133435471D01*
X152516745Y-133346501D01*
X152403499Y-133233255D01*
X152314529Y-133100101D01*
X152253242Y-132952142D01*
X152222000Y-132795075D01*
X152222000Y-132634925D01*
X152253242Y-132477858D01*
X152314529Y-132329899D01*
X152403499Y-132196745D01*
X152516745Y-132083499D01*
X152649899Y-131994529D01*
X152797858Y-131933242D01*
X152954925Y-131902000D01*
X153115075Y-131902000D01*
X153272142Y-131933242D01*
X153272142Y-131933242D01*
G37*
G36*
X138032142Y-131933242D02*
G01*
X138180101Y-131994529D01*
X138313255Y-132083499D01*
X138426501Y-132196745D01*
X138515471Y-132329899D01*
X138576758Y-132477858D01*
X138608000Y-132634925D01*
X138608000Y-132795075D01*
X138576758Y-132952142D01*
X138515471Y-133100101D01*
X138426501Y-133233255D01*
X138313255Y-133346501D01*
X138180101Y-133435471D01*
X138032142Y-133496758D01*
X137875075Y-133528000D01*
X137714925Y-133528000D01*
X137557858Y-133496758D01*
X137409899Y-133435471D01*
X137276745Y-133346501D01*
X137163499Y-133233255D01*
X137074529Y-133100101D01*
X137013242Y-132952142D01*
X136982000Y-132795075D01*
X136982000Y-132634925D01*
X137013242Y-132477858D01*
X137074529Y-132329899D01*
X137163499Y-132196745D01*
X137276745Y-132083499D01*
X137409899Y-131994529D01*
X137557858Y-131933242D01*
X137714925Y-131902000D01*
X137875075Y-131902000D01*
X138032142Y-131933242D01*
X138032142Y-131933242D01*
G37*
G36*
X138032142Y-129393242D02*
G01*
X138180101Y-129454529D01*
X138313255Y-129543499D01*
X138426501Y-129656745D01*
X138515471Y-129789899D01*
X138576758Y-129937858D01*
X138608000Y-130094925D01*
X138608000Y-130255075D01*
X138576758Y-130412142D01*
X138515471Y-130560101D01*
X138426501Y-130693255D01*
X138313255Y-130806501D01*
X138180101Y-130895471D01*
X138032142Y-130956758D01*
X137875075Y-130988000D01*
X137714925Y-130988000D01*
X137557858Y-130956758D01*
X137409899Y-130895471D01*
X137276745Y-130806501D01*
X137163499Y-130693255D01*
X137074529Y-130560101D01*
X137013242Y-130412142D01*
X136982000Y-130255075D01*
X136982000Y-130094925D01*
X137013242Y-129937858D01*
X137074529Y-129789899D01*
X137163499Y-129656745D01*
X137276745Y-129543499D01*
X137409899Y-129454529D01*
X137557858Y-129393242D01*
X137714925Y-129362000D01*
X137875075Y-129362000D01*
X138032142Y-129393242D01*
X138032142Y-129393242D01*
G37*
G36*
X153272142Y-129393242D02*
G01*
X153420101Y-129454529D01*
X153553255Y-129543499D01*
X153666501Y-129656745D01*
X153755471Y-129789899D01*
X153816758Y-129937858D01*
X153848000Y-130094925D01*
X153848000Y-130255075D01*
X153816758Y-130412142D01*
X153755471Y-130560101D01*
X153666501Y-130693255D01*
X153553255Y-130806501D01*
X153420101Y-130895471D01*
X153272142Y-130956758D01*
X153115075Y-130988000D01*
X152954925Y-130988000D01*
X152797858Y-130956758D01*
X152649899Y-130895471D01*
X152516745Y-130806501D01*
X152403499Y-130693255D01*
X152314529Y-130560101D01*
X152253242Y-130412142D01*
X152222000Y-130255075D01*
X152222000Y-130094925D01*
X152253242Y-129937858D01*
X152314529Y-129789899D01*
X152403499Y-129656745D01*
X152516745Y-129543499D01*
X152649899Y-129454529D01*
X152797858Y-129393242D01*
X152954925Y-129362000D01*
X153115075Y-129362000D01*
X153272142Y-129393242D01*
X153272142Y-129393242D01*
G37*
G36*
X160821823Y-128701313D02*
G01*
X160982242Y-128749976D01*
X161114906Y-128820886D01*
X161130078Y-128828996D01*
X161259659Y-128935341D01*
X161366004Y-129064922D01*
X161366005Y-129064924D01*
X161445024Y-129212758D01*
X161493687Y-129373177D01*
X161510117Y-129540000D01*
X161493687Y-129706823D01*
X161445024Y-129867242D01*
X161407279Y-129937857D01*
X161366004Y-130015078D01*
X161259659Y-130144659D01*
X161130078Y-130251004D01*
X161122462Y-130255075D01*
X160982242Y-130330024D01*
X160821823Y-130378687D01*
X160696804Y-130391000D01*
X160613196Y-130391000D01*
X160488177Y-130378687D01*
X160327758Y-130330024D01*
X160187538Y-130255075D01*
X160179922Y-130251004D01*
X160050341Y-130144659D01*
X159943996Y-130015078D01*
X159902721Y-129937857D01*
X159864976Y-129867242D01*
X159816313Y-129706823D01*
X159799883Y-129540000D01*
X159816313Y-129373177D01*
X159864976Y-129212758D01*
X159943995Y-129064924D01*
X159943996Y-129064922D01*
X160050341Y-128935341D01*
X160179922Y-128828996D01*
X160195094Y-128820886D01*
X160327758Y-128749976D01*
X160488177Y-128701313D01*
X160613196Y-128689000D01*
X160696804Y-128689000D01*
X160821823Y-128701313D01*
X160821823Y-128701313D01*
G37*
G36*
X130341823Y-128701313D02*
G01*
X130502242Y-128749976D01*
X130634906Y-128820886D01*
X130650078Y-128828996D01*
X130779659Y-128935341D01*
X130886004Y-129064922D01*
X130886005Y-129064924D01*
X130965024Y-129212758D01*
X131013687Y-129373177D01*
X131030117Y-129540000D01*
X131013687Y-129706823D01*
X130965024Y-129867242D01*
X130927279Y-129937857D01*
X130886004Y-130015078D01*
X130779659Y-130144659D01*
X130650078Y-130251004D01*
X130642462Y-130255075D01*
X130502242Y-130330024D01*
X130341823Y-130378687D01*
X130216804Y-130391000D01*
X130133196Y-130391000D01*
X130008177Y-130378687D01*
X129847758Y-130330024D01*
X129707538Y-130255075D01*
X129699922Y-130251004D01*
X129570341Y-130144659D01*
X129463996Y-130015078D01*
X129422721Y-129937857D01*
X129384976Y-129867242D01*
X129336313Y-129706823D01*
X129319883Y-129540000D01*
X129336313Y-129373177D01*
X129384976Y-129212758D01*
X129463995Y-129064924D01*
X129463996Y-129064922D01*
X129570341Y-128935341D01*
X129699922Y-128828996D01*
X129715094Y-128820886D01*
X129847758Y-128749976D01*
X130008177Y-128701313D01*
X130133196Y-128689000D01*
X130216804Y-128689000D01*
X130341823Y-128701313D01*
X130341823Y-128701313D01*
G37*
G36*
X153272142Y-126853242D02*
G01*
X153420101Y-126914529D01*
X153553255Y-127003499D01*
X153666501Y-127116745D01*
X153755471Y-127249899D01*
X153816758Y-127397858D01*
X153848000Y-127554925D01*
X153848000Y-127715075D01*
X153816758Y-127872142D01*
X153755471Y-128020101D01*
X153666501Y-128153255D01*
X153553255Y-128266501D01*
X153420101Y-128355471D01*
X153272142Y-128416758D01*
X153115075Y-128448000D01*
X152954925Y-128448000D01*
X152797858Y-128416758D01*
X152649899Y-128355471D01*
X152516745Y-128266501D01*
X152403499Y-128153255D01*
X152314529Y-128020101D01*
X152253242Y-127872142D01*
X152222000Y-127715075D01*
X152222000Y-127554925D01*
X152253242Y-127397858D01*
X152314529Y-127249899D01*
X152403499Y-127116745D01*
X152516745Y-127003499D01*
X152649899Y-126914529D01*
X152797858Y-126853242D01*
X152954925Y-126822000D01*
X153115075Y-126822000D01*
X153272142Y-126853242D01*
X153272142Y-126853242D01*
G37*
G36*
X138032142Y-126853242D02*
G01*
X138180101Y-126914529D01*
X138313255Y-127003499D01*
X138426501Y-127116745D01*
X138515471Y-127249899D01*
X138576758Y-127397858D01*
X138608000Y-127554925D01*
X138608000Y-127715075D01*
X138576758Y-127872142D01*
X138515471Y-128020101D01*
X138426501Y-128153255D01*
X138313255Y-128266501D01*
X138180101Y-128355471D01*
X138032142Y-128416758D01*
X137875075Y-128448000D01*
X137714925Y-128448000D01*
X137557858Y-128416758D01*
X137409899Y-128355471D01*
X137276745Y-128266501D01*
X137163499Y-128153255D01*
X137074529Y-128020101D01*
X137013242Y-127872142D01*
X136982000Y-127715075D01*
X136982000Y-127554925D01*
X137013242Y-127397858D01*
X137074529Y-127249899D01*
X137163499Y-127116745D01*
X137276745Y-127003499D01*
X137409899Y-126914529D01*
X137557858Y-126853242D01*
X137714925Y-126822000D01*
X137875075Y-126822000D01*
X138032142Y-126853242D01*
X138032142Y-126853242D01*
G37*
G36*
X153272142Y-124313242D02*
G01*
X153420101Y-124374529D01*
X153553255Y-124463499D01*
X153666501Y-124576745D01*
X153755471Y-124709899D01*
X153816758Y-124857858D01*
X153848000Y-125014925D01*
X153848000Y-125175075D01*
X153816758Y-125332142D01*
X153755471Y-125480101D01*
X153666501Y-125613255D01*
X153553255Y-125726501D01*
X153420101Y-125815471D01*
X153272142Y-125876758D01*
X153115075Y-125908000D01*
X152954925Y-125908000D01*
X152797858Y-125876758D01*
X152649899Y-125815471D01*
X152516745Y-125726501D01*
X152403499Y-125613255D01*
X152314529Y-125480101D01*
X152253242Y-125332142D01*
X152222000Y-125175075D01*
X152222000Y-125014925D01*
X152253242Y-124857858D01*
X152314529Y-124709899D01*
X152403499Y-124576745D01*
X152516745Y-124463499D01*
X152649899Y-124374529D01*
X152797858Y-124313242D01*
X152954925Y-124282000D01*
X153115075Y-124282000D01*
X153272142Y-124313242D01*
X153272142Y-124313242D01*
G37*
G36*
X138032142Y-124313242D02*
G01*
X138180101Y-124374529D01*
X138313255Y-124463499D01*
X138426501Y-124576745D01*
X138515471Y-124709899D01*
X138576758Y-124857858D01*
X138608000Y-125014925D01*
X138608000Y-125175075D01*
X138576758Y-125332142D01*
X138515471Y-125480101D01*
X138426501Y-125613255D01*
X138313255Y-125726501D01*
X138180101Y-125815471D01*
X138032142Y-125876758D01*
X137875075Y-125908000D01*
X137714925Y-125908000D01*
X137557858Y-125876758D01*
X137409899Y-125815471D01*
X137276745Y-125726501D01*
X137163499Y-125613255D01*
X137074529Y-125480101D01*
X137013242Y-125332142D01*
X136982000Y-125175075D01*
X136982000Y-125014925D01*
X137013242Y-124857858D01*
X137074529Y-124709899D01*
X137163499Y-124576745D01*
X137276745Y-124463499D01*
X137409899Y-124374529D01*
X137557858Y-124313242D01*
X137714925Y-124282000D01*
X137875075Y-124282000D01*
X138032142Y-124313242D01*
X138032142Y-124313242D01*
G37*
G36*
X138032142Y-121773242D02*
G01*
X138180101Y-121834529D01*
X138313255Y-121923499D01*
X138426501Y-122036745D01*
X138515471Y-122169899D01*
X138576758Y-122317858D01*
X138608000Y-122474925D01*
X138608000Y-122635075D01*
X138576758Y-122792142D01*
X138515471Y-122940101D01*
X138426501Y-123073255D01*
X138313255Y-123186501D01*
X138180101Y-123275471D01*
X138032142Y-123336758D01*
X137875075Y-123368000D01*
X137714925Y-123368000D01*
X137557858Y-123336758D01*
X137409899Y-123275471D01*
X137276745Y-123186501D01*
X137163499Y-123073255D01*
X137074529Y-122940101D01*
X137013242Y-122792142D01*
X136982000Y-122635075D01*
X136982000Y-122474925D01*
X137013242Y-122317858D01*
X137074529Y-122169899D01*
X137163499Y-122036745D01*
X137276745Y-121923499D01*
X137409899Y-121834529D01*
X137557858Y-121773242D01*
X137714925Y-121742000D01*
X137875075Y-121742000D01*
X138032142Y-121773242D01*
X138032142Y-121773242D01*
G37*
G36*
X153272142Y-121773242D02*
G01*
X153420101Y-121834529D01*
X153553255Y-121923499D01*
X153666501Y-122036745D01*
X153755471Y-122169899D01*
X153816758Y-122317858D01*
X153848000Y-122474925D01*
X153848000Y-122635075D01*
X153816758Y-122792142D01*
X153755471Y-122940101D01*
X153666501Y-123073255D01*
X153553255Y-123186501D01*
X153420101Y-123275471D01*
X153272142Y-123336758D01*
X153115075Y-123368000D01*
X152954925Y-123368000D01*
X152797858Y-123336758D01*
X152649899Y-123275471D01*
X152516745Y-123186501D01*
X152403499Y-123073255D01*
X152314529Y-122940101D01*
X152253242Y-122792142D01*
X152222000Y-122635075D01*
X152222000Y-122474925D01*
X152253242Y-122317858D01*
X152314529Y-122169899D01*
X152403499Y-122036745D01*
X152516745Y-121923499D01*
X152649899Y-121834529D01*
X152797858Y-121773242D01*
X152954925Y-121742000D01*
X153115075Y-121742000D01*
X153272142Y-121773242D01*
X153272142Y-121773242D01*
G37*
G36*
X130423228Y-121101703D02*
G01*
X130578100Y-121165853D01*
X130717481Y-121258985D01*
X130836015Y-121377519D01*
X130929147Y-121516900D01*
X130993297Y-121671772D01*
X131026000Y-121836184D01*
X131026000Y-122003816D01*
X130993297Y-122168228D01*
X130929147Y-122323100D01*
X130836015Y-122462481D01*
X130717481Y-122581015D01*
X130578100Y-122674147D01*
X130423228Y-122738297D01*
X130258816Y-122771000D01*
X130091184Y-122771000D01*
X129926772Y-122738297D01*
X129771900Y-122674147D01*
X129632519Y-122581015D01*
X129513985Y-122462481D01*
X129420853Y-122323100D01*
X129356703Y-122168228D01*
X129324000Y-122003816D01*
X129324000Y-121836184D01*
X129356703Y-121671772D01*
X129420853Y-121516900D01*
X129513985Y-121377519D01*
X129632519Y-121258985D01*
X129771900Y-121165853D01*
X129926772Y-121101703D01*
X130091184Y-121069000D01*
X130258816Y-121069000D01*
X130423228Y-121101703D01*
X130423228Y-121101703D01*
G37*
G36*
X160903228Y-121101703D02*
G01*
X161058100Y-121165853D01*
X161197481Y-121258985D01*
X161316015Y-121377519D01*
X161409147Y-121516900D01*
X161473297Y-121671772D01*
X161506000Y-121836184D01*
X161506000Y-122003816D01*
X161473297Y-122168228D01*
X161409147Y-122323100D01*
X161316015Y-122462481D01*
X161197481Y-122581015D01*
X161058100Y-122674147D01*
X160903228Y-122738297D01*
X160738816Y-122771000D01*
X160571184Y-122771000D01*
X160406772Y-122738297D01*
X160251900Y-122674147D01*
X160112519Y-122581015D01*
X159993985Y-122462481D01*
X159900853Y-122323100D01*
X159836703Y-122168228D01*
X159804000Y-122003816D01*
X159804000Y-121836184D01*
X159836703Y-121671772D01*
X159900853Y-121516900D01*
X159993985Y-121377519D01*
X160112519Y-121258985D01*
X160251900Y-121165853D01*
X160406772Y-121101703D01*
X160571184Y-121069000D01*
X160738816Y-121069000D01*
X160903228Y-121101703D01*
X160903228Y-121101703D01*
G37*
G36*
X153272142Y-119233242D02*
G01*
X153420101Y-119294529D01*
X153553255Y-119383499D01*
X153666501Y-119496745D01*
X153755471Y-119629899D01*
X153816758Y-119777858D01*
X153848000Y-119934925D01*
X153848000Y-120095075D01*
X153816758Y-120252142D01*
X153755471Y-120400101D01*
X153666501Y-120533255D01*
X153553255Y-120646501D01*
X153420101Y-120735471D01*
X153272142Y-120796758D01*
X153115075Y-120828000D01*
X152954925Y-120828000D01*
X152797858Y-120796758D01*
X152649899Y-120735471D01*
X152516745Y-120646501D01*
X152403499Y-120533255D01*
X152314529Y-120400101D01*
X152253242Y-120252142D01*
X152222000Y-120095075D01*
X152222000Y-119934925D01*
X152253242Y-119777858D01*
X152314529Y-119629899D01*
X152403499Y-119496745D01*
X152516745Y-119383499D01*
X152649899Y-119294529D01*
X152797858Y-119233242D01*
X152954925Y-119202000D01*
X153115075Y-119202000D01*
X153272142Y-119233242D01*
X153272142Y-119233242D01*
G37*
G36*
X138032142Y-119233242D02*
G01*
X138180101Y-119294529D01*
X138313255Y-119383499D01*
X138426501Y-119496745D01*
X138515471Y-119629899D01*
X138576758Y-119777858D01*
X138608000Y-119934925D01*
X138608000Y-120095075D01*
X138576758Y-120252142D01*
X138515471Y-120400101D01*
X138426501Y-120533255D01*
X138313255Y-120646501D01*
X138180101Y-120735471D01*
X138032142Y-120796758D01*
X137875075Y-120828000D01*
X137714925Y-120828000D01*
X137557858Y-120796758D01*
X137409899Y-120735471D01*
X137276745Y-120646501D01*
X137163499Y-120533255D01*
X137074529Y-120400101D01*
X137013242Y-120252142D01*
X136982000Y-120095075D01*
X136982000Y-119934925D01*
X137013242Y-119777858D01*
X137074529Y-119629899D01*
X137163499Y-119496745D01*
X137276745Y-119383499D01*
X137409899Y-119294529D01*
X137557858Y-119233242D01*
X137714925Y-119202000D01*
X137875075Y-119202000D01*
X138032142Y-119233242D01*
X138032142Y-119233242D01*
G37*
G36*
X138032142Y-116693242D02*
G01*
X138180101Y-116754529D01*
X138313255Y-116843499D01*
X138426501Y-116956745D01*
X138515471Y-117089899D01*
X138576758Y-117237858D01*
X138608000Y-117394925D01*
X138608000Y-117555075D01*
X138576758Y-117712142D01*
X138515471Y-117860101D01*
X138426501Y-117993255D01*
X138313255Y-118106501D01*
X138180101Y-118195471D01*
X138032142Y-118256758D01*
X137875075Y-118288000D01*
X137714925Y-118288000D01*
X137557858Y-118256758D01*
X137409899Y-118195471D01*
X137276745Y-118106501D01*
X137163499Y-117993255D01*
X137074529Y-117860101D01*
X137013242Y-117712142D01*
X136982000Y-117555075D01*
X136982000Y-117394925D01*
X137013242Y-117237858D01*
X137074529Y-117089899D01*
X137163499Y-116956745D01*
X137276745Y-116843499D01*
X137409899Y-116754529D01*
X137557858Y-116693242D01*
X137714925Y-116662000D01*
X137875075Y-116662000D01*
X138032142Y-116693242D01*
X138032142Y-116693242D01*
G37*
G36*
X153272142Y-116693242D02*
G01*
X153420101Y-116754529D01*
X153553255Y-116843499D01*
X153666501Y-116956745D01*
X153755471Y-117089899D01*
X153816758Y-117237858D01*
X153848000Y-117394925D01*
X153848000Y-117555075D01*
X153816758Y-117712142D01*
X153755471Y-117860101D01*
X153666501Y-117993255D01*
X153553255Y-118106501D01*
X153420101Y-118195471D01*
X153272142Y-118256758D01*
X153115075Y-118288000D01*
X152954925Y-118288000D01*
X152797858Y-118256758D01*
X152649899Y-118195471D01*
X152516745Y-118106501D01*
X152403499Y-117993255D01*
X152314529Y-117860101D01*
X152253242Y-117712142D01*
X152222000Y-117555075D01*
X152222000Y-117394925D01*
X152253242Y-117237858D01*
X152314529Y-117089899D01*
X152403499Y-116956745D01*
X152516745Y-116843499D01*
X152649899Y-116754529D01*
X152797858Y-116693242D01*
X152954925Y-116662000D01*
X153115075Y-116662000D01*
X153272142Y-116693242D01*
X153272142Y-116693242D01*
G37*
G36*
X132714239Y-111111467D02*
G01*
X133028282Y-111173934D01*
X133619926Y-111419001D01*
X133910629Y-111613243D01*
X134152391Y-111774783D01*
X134605217Y-112227609D01*
X134663560Y-112314926D01*
X134960999Y-112760074D01*
X135206066Y-113351718D01*
X135331000Y-113979804D01*
X135331000Y-114620196D01*
X135206066Y-115248282D01*
X134960999Y-115839926D01*
X134605216Y-116372392D01*
X134152392Y-116825216D01*
X133619926Y-117180999D01*
X133028282Y-117426066D01*
X132714239Y-117488533D01*
X132400197Y-117551000D01*
X131759803Y-117551000D01*
X131445761Y-117488533D01*
X131131718Y-117426066D01*
X130540074Y-117180999D01*
X130007608Y-116825216D01*
X129554784Y-116372392D01*
X129199001Y-115839926D01*
X128953934Y-115248282D01*
X128829000Y-114620196D01*
X128829000Y-113979804D01*
X128953934Y-113351718D01*
X129199001Y-112760074D01*
X129496440Y-112314926D01*
X129554783Y-112227609D01*
X130007609Y-111774783D01*
X130249371Y-111613243D01*
X130540074Y-111419001D01*
X131131718Y-111173934D01*
X131445761Y-111111467D01*
X131759803Y-111049000D01*
X132400197Y-111049000D01*
X132714239Y-111111467D01*
X132714239Y-111111467D01*
G37*
G36*
X159384239Y-111111467D02*
G01*
X159698282Y-111173934D01*
X160289926Y-111419001D01*
X160580629Y-111613243D01*
X160822391Y-111774783D01*
X161275217Y-112227609D01*
X161333560Y-112314926D01*
X161630999Y-112760074D01*
X161876066Y-113351718D01*
X162001000Y-113979804D01*
X162001000Y-114620196D01*
X161876066Y-115248282D01*
X161630999Y-115839926D01*
X161275216Y-116372392D01*
X160822392Y-116825216D01*
X160289926Y-117180999D01*
X159698282Y-117426066D01*
X159384239Y-117488533D01*
X159070197Y-117551000D01*
X158429803Y-117551000D01*
X158115761Y-117488533D01*
X157801718Y-117426066D01*
X157210074Y-117180999D01*
X156677608Y-116825216D01*
X156224784Y-116372392D01*
X155869001Y-115839926D01*
X155623934Y-115248282D01*
X155499000Y-114620196D01*
X155499000Y-113979804D01*
X155623934Y-113351718D01*
X155869001Y-112760074D01*
X156166440Y-112314926D01*
X156224783Y-112227609D01*
X156677609Y-111774783D01*
X156919371Y-111613243D01*
X157210074Y-111419001D01*
X157801718Y-111173934D01*
X158115761Y-111111467D01*
X158429803Y-111049000D01*
X159070197Y-111049000D01*
X159384239Y-111111467D01*
X159384239Y-111111467D01*
G37*
G36*
X153272142Y-114153242D02*
G01*
X153420101Y-114214529D01*
X153553255Y-114303499D01*
X153666501Y-114416745D01*
X153755471Y-114549899D01*
X153816758Y-114697858D01*
X153848000Y-114854925D01*
X153848000Y-115015075D01*
X153816758Y-115172142D01*
X153755471Y-115320101D01*
X153666501Y-115453255D01*
X153553255Y-115566501D01*
X153420101Y-115655471D01*
X153272142Y-115716758D01*
X153115075Y-115748000D01*
X152954925Y-115748000D01*
X152797858Y-115716758D01*
X152649899Y-115655471D01*
X152516745Y-115566501D01*
X152403499Y-115453255D01*
X152314529Y-115320101D01*
X152253242Y-115172142D01*
X152222000Y-115015075D01*
X152222000Y-114854925D01*
X152253242Y-114697858D01*
X152314529Y-114549899D01*
X152403499Y-114416745D01*
X152516745Y-114303499D01*
X152649899Y-114214529D01*
X152797858Y-114153242D01*
X152954925Y-114122000D01*
X153115075Y-114122000D01*
X153272142Y-114153242D01*
X153272142Y-114153242D01*
G37*
G36*
X138032142Y-114153242D02*
G01*
X138180101Y-114214529D01*
X138313255Y-114303499D01*
X138426501Y-114416745D01*
X138515471Y-114549899D01*
X138576758Y-114697858D01*
X138608000Y-114854925D01*
X138608000Y-115015075D01*
X138576758Y-115172142D01*
X138515471Y-115320101D01*
X138426501Y-115453255D01*
X138313255Y-115566501D01*
X138180101Y-115655471D01*
X138032142Y-115716758D01*
X137875075Y-115748000D01*
X137714925Y-115748000D01*
X137557858Y-115716758D01*
X137409899Y-115655471D01*
X137276745Y-115566501D01*
X137163499Y-115453255D01*
X137074529Y-115320101D01*
X137013242Y-115172142D01*
X136982000Y-115015075D01*
X136982000Y-114854925D01*
X137013242Y-114697858D01*
X137074529Y-114549899D01*
X137163499Y-114416745D01*
X137276745Y-114303499D01*
X137409899Y-114214529D01*
X137557858Y-114153242D01*
X137714925Y-114122000D01*
X137875075Y-114122000D01*
X138032142Y-114153242D01*
X138032142Y-114153242D01*
G37*
G36*
X138032142Y-111613242D02*
G01*
X138180101Y-111674529D01*
X138313255Y-111763499D01*
X138426501Y-111876745D01*
X138515471Y-112009899D01*
X138576758Y-112157858D01*
X138608000Y-112314925D01*
X138608000Y-112475075D01*
X138576758Y-112632142D01*
X138515471Y-112780101D01*
X138426501Y-112913255D01*
X138313255Y-113026501D01*
X138180101Y-113115471D01*
X138032142Y-113176758D01*
X137875075Y-113208000D01*
X137714925Y-113208000D01*
X137557858Y-113176758D01*
X137409899Y-113115471D01*
X137276745Y-113026501D01*
X137163499Y-112913255D01*
X137074529Y-112780101D01*
X137013242Y-112632142D01*
X136982000Y-112475075D01*
X136982000Y-112314925D01*
X137013242Y-112157858D01*
X137074529Y-112009899D01*
X137163499Y-111876745D01*
X137276745Y-111763499D01*
X137409899Y-111674529D01*
X137557858Y-111613242D01*
X137714925Y-111582000D01*
X137875075Y-111582000D01*
X138032142Y-111613242D01*
X138032142Y-111613242D01*
G37*
G36*
X153272142Y-111613242D02*
G01*
X153420101Y-111674529D01*
X153553255Y-111763499D01*
X153666501Y-111876745D01*
X153755471Y-112009899D01*
X153816758Y-112157858D01*
X153848000Y-112314925D01*
X153848000Y-112475075D01*
X153816758Y-112632142D01*
X153755471Y-112780101D01*
X153666501Y-112913255D01*
X153553255Y-113026501D01*
X153420101Y-113115471D01*
X153272142Y-113176758D01*
X153115075Y-113208000D01*
X152954925Y-113208000D01*
X152797858Y-113176758D01*
X152649899Y-113115471D01*
X152516745Y-113026501D01*
X152403499Y-112913255D01*
X152314529Y-112780101D01*
X152253242Y-112632142D01*
X152222000Y-112475075D01*
X152222000Y-112314925D01*
X152253242Y-112157858D01*
X152314529Y-112009899D01*
X152403499Y-111876745D01*
X152516745Y-111763499D01*
X152649899Y-111674529D01*
X152797858Y-111613242D01*
X152954925Y-111582000D01*
X153115075Y-111582000D01*
X153272142Y-111613242D01*
X153272142Y-111613242D01*
G37*
G36*
X153848000Y-110668000D02*
G01*
X152222000Y-110668000D01*
X152222000Y-109042000D01*
X153848000Y-109042000D01*
X153848000Y-110668000D01*
X153848000Y-110668000D01*
G37*
G36*
X138032142Y-109073242D02*
G01*
X138180101Y-109134529D01*
X138313255Y-109223499D01*
X138426501Y-109336745D01*
X138515471Y-109469899D01*
X138576758Y-109617858D01*
X138608000Y-109774925D01*
X138608000Y-109935075D01*
X138576758Y-110092142D01*
X138515471Y-110240101D01*
X138426501Y-110373255D01*
X138313255Y-110486501D01*
X138180101Y-110575471D01*
X138032142Y-110636758D01*
X137875075Y-110668000D01*
X137714925Y-110668000D01*
X137557858Y-110636758D01*
X137409899Y-110575471D01*
X137276745Y-110486501D01*
X137163499Y-110373255D01*
X137074529Y-110240101D01*
X137013242Y-110092142D01*
X136982000Y-109935075D01*
X136982000Y-109774925D01*
X137013242Y-109617858D01*
X137074529Y-109469899D01*
X137163499Y-109336745D01*
X137276745Y-109223499D01*
X137409899Y-109134529D01*
X137557858Y-109073242D01*
X137714925Y-109042000D01*
X137875075Y-109042000D01*
X138032142Y-109073242D01*
X138032142Y-109073242D01*
G37*
G36*
X143559068Y-104484629D02*
G01*
X143650209Y-104502758D01*
X143821915Y-104573881D01*
X143976446Y-104677136D01*
X144107864Y-104808554D01*
X144211119Y-104963085D01*
X144282242Y-105134791D01*
X144318500Y-105317073D01*
X144318500Y-105502927D01*
X144282242Y-105685209D01*
X144211119Y-105856915D01*
X144107864Y-106011446D01*
X143976446Y-106142864D01*
X143821915Y-106246119D01*
X143650209Y-106317242D01*
X143559068Y-106335371D01*
X143467928Y-106353500D01*
X143282072Y-106353500D01*
X143190932Y-106335371D01*
X143099791Y-106317242D01*
X142928085Y-106246119D01*
X142773554Y-106142864D01*
X142642136Y-106011446D01*
X142538881Y-105856915D01*
X142467758Y-105685209D01*
X142431500Y-105502927D01*
X142431500Y-105317073D01*
X142467758Y-105134791D01*
X142538881Y-104963085D01*
X142642136Y-104808554D01*
X142773554Y-104677136D01*
X142928085Y-104573881D01*
X143099791Y-104502758D01*
X143190932Y-104484629D01*
X143282072Y-104466500D01*
X143467928Y-104466500D01*
X143559068Y-104484629D01*
X143559068Y-104484629D01*
G37*
G36*
X145849068Y-104484629D02*
G01*
X145940209Y-104502758D01*
X146111915Y-104573881D01*
X146266446Y-104677136D01*
X146397864Y-104808554D01*
X146501119Y-104963085D01*
X146572242Y-105134791D01*
X146608500Y-105317073D01*
X146608500Y-105502927D01*
X146572242Y-105685209D01*
X146501119Y-105856915D01*
X146397864Y-106011446D01*
X146266446Y-106142864D01*
X146111915Y-106246119D01*
X145940209Y-106317242D01*
X145849068Y-106335371D01*
X145757928Y-106353500D01*
X145572072Y-106353500D01*
X145480932Y-106335371D01*
X145389791Y-106317242D01*
X145218085Y-106246119D01*
X145063554Y-106142864D01*
X144932136Y-106011446D01*
X144828881Y-105856915D01*
X144757758Y-105685209D01*
X144721500Y-105502927D01*
X144721500Y-105317073D01*
X144757758Y-105134791D01*
X144828881Y-104963085D01*
X144932136Y-104808554D01*
X145063554Y-104677136D01*
X145218085Y-104573881D01*
X145389791Y-104502758D01*
X145480932Y-104484629D01*
X145572072Y-104466500D01*
X145757928Y-104466500D01*
X145849068Y-104484629D01*
X145849068Y-104484629D01*
G37*
G36*
X148139068Y-104484629D02*
G01*
X148230209Y-104502758D01*
X148401915Y-104573881D01*
X148556446Y-104677136D01*
X148687864Y-104808554D01*
X148791119Y-104963085D01*
X148862242Y-105134791D01*
X148898500Y-105317073D01*
X148898500Y-105502927D01*
X148862242Y-105685209D01*
X148791119Y-105856915D01*
X148687864Y-106011446D01*
X148556446Y-106142864D01*
X148401915Y-106246119D01*
X148230209Y-106317242D01*
X148139068Y-106335371D01*
X148047928Y-106353500D01*
X147862072Y-106353500D01*
X147770932Y-106335371D01*
X147679791Y-106317242D01*
X147508085Y-106246119D01*
X147353554Y-106142864D01*
X147222136Y-106011446D01*
X147118881Y-105856915D01*
X147047758Y-105685209D01*
X147011500Y-105502927D01*
X147011500Y-105317073D01*
X147047758Y-105134791D01*
X147118881Y-104963085D01*
X147222136Y-104808554D01*
X147353554Y-104677136D01*
X147508085Y-104573881D01*
X147679791Y-104502758D01*
X147770932Y-104484629D01*
X147862072Y-104466500D01*
X148047928Y-104466500D01*
X148139068Y-104484629D01*
X148139068Y-104484629D01*
G37*
G36*
X150429068Y-104484629D02*
G01*
X150520209Y-104502758D01*
X150691915Y-104573881D01*
X150846446Y-104677136D01*
X150977864Y-104808554D01*
X151081119Y-104963085D01*
X151152242Y-105134791D01*
X151188500Y-105317073D01*
X151188500Y-105502927D01*
X151152242Y-105685209D01*
X151081119Y-105856915D01*
X150977864Y-106011446D01*
X150846446Y-106142864D01*
X150691915Y-106246119D01*
X150520209Y-106317242D01*
X150429068Y-106335371D01*
X150337928Y-106353500D01*
X150152072Y-106353500D01*
X150060932Y-106335371D01*
X149969791Y-106317242D01*
X149798085Y-106246119D01*
X149643554Y-106142864D01*
X149512136Y-106011446D01*
X149408881Y-105856915D01*
X149337758Y-105685209D01*
X149301500Y-105502927D01*
X149301500Y-105317073D01*
X149337758Y-105134791D01*
X149408881Y-104963085D01*
X149512136Y-104808554D01*
X149643554Y-104677136D01*
X149798085Y-104573881D01*
X149969791Y-104502758D01*
X150060932Y-104484629D01*
X150152072Y-104466500D01*
X150337928Y-104466500D01*
X150429068Y-104484629D01*
X150429068Y-104484629D01*
G37*
G36*
X142028500Y-106353500D02*
G01*
X140141500Y-106353500D01*
X140141500Y-104466500D01*
X142028500Y-104466500D01*
X142028500Y-106353500D01*
X142028500Y-106353500D01*
G37*
G36*
X158316568Y-100826044D02*
G01*
X158517880Y-100866087D01*
X158897144Y-101023183D01*
X159238473Y-101251251D01*
X159528749Y-101541527D01*
X159756817Y-101882856D01*
X159913913Y-102262120D01*
X159913913Y-102262121D01*
X159994000Y-102664743D01*
X159994000Y-103075257D01*
X159953957Y-103276568D01*
X159913913Y-103477880D01*
X159756817Y-103857144D01*
X159528749Y-104198473D01*
X159238473Y-104488749D01*
X158897144Y-104716817D01*
X158517880Y-104873913D01*
X158316568Y-104913956D01*
X158115257Y-104954000D01*
X157704743Y-104954000D01*
X157503432Y-104913956D01*
X157302120Y-104873913D01*
X156922856Y-104716817D01*
X156581527Y-104488749D01*
X156291251Y-104198473D01*
X156063183Y-103857144D01*
X155906087Y-103477880D01*
X155866043Y-103276568D01*
X155826000Y-103075257D01*
X155826000Y-102664743D01*
X155906087Y-102262121D01*
X155906087Y-102262120D01*
X156063183Y-101882856D01*
X156291251Y-101541527D01*
X156581527Y-101251251D01*
X156922856Y-101023183D01*
X157302120Y-100866087D01*
X157503432Y-100826044D01*
X157704743Y-100786000D01*
X158115257Y-100786000D01*
X158316568Y-100826044D01*
X158316568Y-100826044D01*
G37*
G36*
X133326568Y-100826044D02*
G01*
X133527880Y-100866087D01*
X133907144Y-101023183D01*
X134248473Y-101251251D01*
X134538749Y-101541527D01*
X134766817Y-101882856D01*
X134923913Y-102262120D01*
X134923913Y-102262121D01*
X135004000Y-102664743D01*
X135004000Y-103075257D01*
X134963957Y-103276568D01*
X134923913Y-103477880D01*
X134766817Y-103857144D01*
X134538749Y-104198473D01*
X134248473Y-104488749D01*
X133907144Y-104716817D01*
X133527880Y-104873913D01*
X133326568Y-104913956D01*
X133125257Y-104954000D01*
X132714743Y-104954000D01*
X132513432Y-104913956D01*
X132312120Y-104873913D01*
X131932856Y-104716817D01*
X131591527Y-104488749D01*
X131301251Y-104198473D01*
X131073183Y-103857144D01*
X130916087Y-103477880D01*
X130876043Y-103276568D01*
X130836000Y-103075257D01*
X130836000Y-102664743D01*
X130916087Y-102262121D01*
X130916087Y-102262120D01*
X131073183Y-101882856D01*
X131301251Y-101541527D01*
X131591527Y-101251251D01*
X131932856Y-101023183D01*
X132312120Y-100866087D01*
X132513432Y-100826044D01*
X132714743Y-100786000D01*
X133125257Y-100786000D01*
X133326568Y-100826044D01*
X133326568Y-100826044D01*
G37*
G36*
X149284068Y-101944629D02*
G01*
X149375209Y-101962758D01*
X149546915Y-102033881D01*
X149701446Y-102137136D01*
X149832864Y-102268554D01*
X149936119Y-102423085D01*
X150007242Y-102594791D01*
X150043500Y-102777073D01*
X150043500Y-102962927D01*
X150007242Y-103145209D01*
X149936119Y-103316915D01*
X149832864Y-103471446D01*
X149701446Y-103602864D01*
X149546915Y-103706119D01*
X149375209Y-103777242D01*
X149284068Y-103795371D01*
X149192928Y-103813500D01*
X149007072Y-103813500D01*
X148915932Y-103795371D01*
X148824791Y-103777242D01*
X148653085Y-103706119D01*
X148498554Y-103602864D01*
X148367136Y-103471446D01*
X148263881Y-103316915D01*
X148192758Y-103145209D01*
X148156500Y-102962927D01*
X148156500Y-102777073D01*
X148192758Y-102594791D01*
X148263881Y-102423085D01*
X148367136Y-102268554D01*
X148498554Y-102137136D01*
X148653085Y-102033881D01*
X148824791Y-101962758D01*
X148915932Y-101944629D01*
X149007072Y-101926500D01*
X149192928Y-101926500D01*
X149284068Y-101944629D01*
X149284068Y-101944629D01*
G37*
G36*
X140124068Y-101944629D02*
G01*
X140215209Y-101962758D01*
X140386915Y-102033881D01*
X140541446Y-102137136D01*
X140672864Y-102268554D01*
X140776119Y-102423085D01*
X140847242Y-102594791D01*
X140883500Y-102777073D01*
X140883500Y-102962927D01*
X140847242Y-103145209D01*
X140776119Y-103316915D01*
X140672864Y-103471446D01*
X140541446Y-103602864D01*
X140386915Y-103706119D01*
X140215209Y-103777242D01*
X140124068Y-103795371D01*
X140032928Y-103813500D01*
X139847072Y-103813500D01*
X139755932Y-103795371D01*
X139664791Y-103777242D01*
X139493085Y-103706119D01*
X139338554Y-103602864D01*
X139207136Y-103471446D01*
X139103881Y-103316915D01*
X139032758Y-103145209D01*
X138996500Y-102962927D01*
X138996500Y-102777073D01*
X139032758Y-102594791D01*
X139103881Y-102423085D01*
X139207136Y-102268554D01*
X139338554Y-102137136D01*
X139493085Y-102033881D01*
X139664791Y-101962758D01*
X139755932Y-101944629D01*
X139847072Y-101926500D01*
X140032928Y-101926500D01*
X140124068Y-101944629D01*
X140124068Y-101944629D01*
G37*
G36*
X142414068Y-101944629D02*
G01*
X142505209Y-101962758D01*
X142676915Y-102033881D01*
X142831446Y-102137136D01*
X142962864Y-102268554D01*
X143066119Y-102423085D01*
X143137242Y-102594791D01*
X143173500Y-102777073D01*
X143173500Y-102962927D01*
X143137242Y-103145209D01*
X143066119Y-103316915D01*
X142962864Y-103471446D01*
X142831446Y-103602864D01*
X142676915Y-103706119D01*
X142505209Y-103777242D01*
X142414068Y-103795371D01*
X142322928Y-103813500D01*
X142137072Y-103813500D01*
X142045932Y-103795371D01*
X141954791Y-103777242D01*
X141783085Y-103706119D01*
X141628554Y-103602864D01*
X141497136Y-103471446D01*
X141393881Y-103316915D01*
X141322758Y-103145209D01*
X141286500Y-102962927D01*
X141286500Y-102777073D01*
X141322758Y-102594791D01*
X141393881Y-102423085D01*
X141497136Y-102268554D01*
X141628554Y-102137136D01*
X141783085Y-102033881D01*
X141954791Y-101962758D01*
X142045932Y-101944629D01*
X142137072Y-101926500D01*
X142322928Y-101926500D01*
X142414068Y-101944629D01*
X142414068Y-101944629D01*
G37*
G36*
X144704068Y-101944629D02*
G01*
X144795209Y-101962758D01*
X144966915Y-102033881D01*
X145121446Y-102137136D01*
X145252864Y-102268554D01*
X145356119Y-102423085D01*
X145427242Y-102594791D01*
X145463500Y-102777073D01*
X145463500Y-102962927D01*
X145427242Y-103145209D01*
X145356119Y-103316915D01*
X145252864Y-103471446D01*
X145121446Y-103602864D01*
X144966915Y-103706119D01*
X144795209Y-103777242D01*
X144704068Y-103795371D01*
X144612928Y-103813500D01*
X144427072Y-103813500D01*
X144335932Y-103795371D01*
X144244791Y-103777242D01*
X144073085Y-103706119D01*
X143918554Y-103602864D01*
X143787136Y-103471446D01*
X143683881Y-103316915D01*
X143612758Y-103145209D01*
X143576500Y-102962927D01*
X143576500Y-102777073D01*
X143612758Y-102594791D01*
X143683881Y-102423085D01*
X143787136Y-102268554D01*
X143918554Y-102137136D01*
X144073085Y-102033881D01*
X144244791Y-101962758D01*
X144335932Y-101944629D01*
X144427072Y-101926500D01*
X144612928Y-101926500D01*
X144704068Y-101944629D01*
X144704068Y-101944629D01*
G37*
G36*
X146994068Y-101944629D02*
G01*
X147085209Y-101962758D01*
X147256915Y-102033881D01*
X147411446Y-102137136D01*
X147542864Y-102268554D01*
X147646119Y-102423085D01*
X147717242Y-102594791D01*
X147753500Y-102777073D01*
X147753500Y-102962927D01*
X147717242Y-103145209D01*
X147646119Y-103316915D01*
X147542864Y-103471446D01*
X147411446Y-103602864D01*
X147256915Y-103706119D01*
X147085209Y-103777242D01*
X146994068Y-103795371D01*
X146902928Y-103813500D01*
X146717072Y-103813500D01*
X146625932Y-103795371D01*
X146534791Y-103777242D01*
X146363085Y-103706119D01*
X146208554Y-103602864D01*
X146077136Y-103471446D01*
X145973881Y-103316915D01*
X145902758Y-103145209D01*
X145866500Y-102962927D01*
X145866500Y-102777073D01*
X145902758Y-102594791D01*
X145973881Y-102423085D01*
X146077136Y-102268554D01*
X146208554Y-102137136D01*
X146363085Y-102033881D01*
X146534791Y-101962758D01*
X146625932Y-101944629D01*
X146717072Y-101926500D01*
X146902928Y-101926500D01*
X146994068Y-101944629D01*
X146994068Y-101944629D01*
G37*
G36*
X141269068Y-99404629D02*
G01*
X141360209Y-99422758D01*
X141531915Y-99493881D01*
X141686446Y-99597136D01*
X141817864Y-99728554D01*
X141921119Y-99883085D01*
X141992242Y-100054791D01*
X142028500Y-100237073D01*
X142028500Y-100422927D01*
X141992242Y-100605209D01*
X141921119Y-100776915D01*
X141817864Y-100931446D01*
X141686446Y-101062864D01*
X141531915Y-101166119D01*
X141360209Y-101237242D01*
X141269068Y-101255371D01*
X141177928Y-101273500D01*
X140992072Y-101273500D01*
X140900932Y-101255371D01*
X140809791Y-101237242D01*
X140638085Y-101166119D01*
X140483554Y-101062864D01*
X140352136Y-100931446D01*
X140248881Y-100776915D01*
X140177758Y-100605209D01*
X140141500Y-100422927D01*
X140141500Y-100237073D01*
X140177758Y-100054791D01*
X140248881Y-99883085D01*
X140352136Y-99728554D01*
X140483554Y-99597136D01*
X140638085Y-99493881D01*
X140809791Y-99422758D01*
X140900932Y-99404629D01*
X140992072Y-99386500D01*
X141177928Y-99386500D01*
X141269068Y-99404629D01*
X141269068Y-99404629D01*
G37*
G36*
X143559068Y-99404629D02*
G01*
X143650209Y-99422758D01*
X143821915Y-99493881D01*
X143976446Y-99597136D01*
X144107864Y-99728554D01*
X144211119Y-99883085D01*
X144282242Y-100054791D01*
X144318500Y-100237073D01*
X144318500Y-100422927D01*
X144282242Y-100605209D01*
X144211119Y-100776915D01*
X144107864Y-100931446D01*
X143976446Y-101062864D01*
X143821915Y-101166119D01*
X143650209Y-101237242D01*
X143559068Y-101255371D01*
X143467928Y-101273500D01*
X143282072Y-101273500D01*
X143190932Y-101255371D01*
X143099791Y-101237242D01*
X142928085Y-101166119D01*
X142773554Y-101062864D01*
X142642136Y-100931446D01*
X142538881Y-100776915D01*
X142467758Y-100605209D01*
X142431500Y-100422927D01*
X142431500Y-100237073D01*
X142467758Y-100054791D01*
X142538881Y-99883085D01*
X142642136Y-99728554D01*
X142773554Y-99597136D01*
X142928085Y-99493881D01*
X143099791Y-99422758D01*
X143190932Y-99404629D01*
X143282072Y-99386500D01*
X143467928Y-99386500D01*
X143559068Y-99404629D01*
X143559068Y-99404629D01*
G37*
G36*
X150429068Y-99404629D02*
G01*
X150520209Y-99422758D01*
X150691915Y-99493881D01*
X150846446Y-99597136D01*
X150977864Y-99728554D01*
X151081119Y-99883085D01*
X151152242Y-100054791D01*
X151188500Y-100237073D01*
X151188500Y-100422927D01*
X151152242Y-100605209D01*
X151081119Y-100776915D01*
X150977864Y-100931446D01*
X150846446Y-101062864D01*
X150691915Y-101166119D01*
X150520209Y-101237242D01*
X150429068Y-101255371D01*
X150337928Y-101273500D01*
X150152072Y-101273500D01*
X150060932Y-101255371D01*
X149969791Y-101237242D01*
X149798085Y-101166119D01*
X149643554Y-101062864D01*
X149512136Y-100931446D01*
X149408881Y-100776915D01*
X149337758Y-100605209D01*
X149301500Y-100422927D01*
X149301500Y-100237073D01*
X149337758Y-100054791D01*
X149408881Y-99883085D01*
X149512136Y-99728554D01*
X149643554Y-99597136D01*
X149798085Y-99493881D01*
X149969791Y-99422758D01*
X150060932Y-99404629D01*
X150152072Y-99386500D01*
X150337928Y-99386500D01*
X150429068Y-99404629D01*
X150429068Y-99404629D01*
G37*
G36*
X145849068Y-99404629D02*
G01*
X145940209Y-99422758D01*
X146111915Y-99493881D01*
X146266446Y-99597136D01*
X146397864Y-99728554D01*
X146501119Y-99883085D01*
X146572242Y-100054791D01*
X146608500Y-100237073D01*
X146608500Y-100422927D01*
X146572242Y-100605209D01*
X146501119Y-100776915D01*
X146397864Y-100931446D01*
X146266446Y-101062864D01*
X146111915Y-101166119D01*
X145940209Y-101237242D01*
X145849068Y-101255371D01*
X145757928Y-101273500D01*
X145572072Y-101273500D01*
X145480932Y-101255371D01*
X145389791Y-101237242D01*
X145218085Y-101166119D01*
X145063554Y-101062864D01*
X144932136Y-100931446D01*
X144828881Y-100776915D01*
X144757758Y-100605209D01*
X144721500Y-100422927D01*
X144721500Y-100237073D01*
X144757758Y-100054791D01*
X144828881Y-99883085D01*
X144932136Y-99728554D01*
X145063554Y-99597136D01*
X145218085Y-99493881D01*
X145389791Y-99422758D01*
X145480932Y-99404629D01*
X145572072Y-99386500D01*
X145757928Y-99386500D01*
X145849068Y-99404629D01*
X145849068Y-99404629D01*
G37*
G36*
X148139068Y-99404629D02*
G01*
X148230209Y-99422758D01*
X148401915Y-99493881D01*
X148556446Y-99597136D01*
X148687864Y-99728554D01*
X148791119Y-99883085D01*
X148862242Y-100054791D01*
X148898500Y-100237073D01*
X148898500Y-100422927D01*
X148862242Y-100605209D01*
X148791119Y-100776915D01*
X148687864Y-100931446D01*
X148556446Y-101062864D01*
X148401915Y-101166119D01*
X148230209Y-101237242D01*
X148139068Y-101255371D01*
X148047928Y-101273500D01*
X147862072Y-101273500D01*
X147770932Y-101255371D01*
X147679791Y-101237242D01*
X147508085Y-101166119D01*
X147353554Y-101062864D01*
X147222136Y-100931446D01*
X147118881Y-100776915D01*
X147047758Y-100605209D01*
X147011500Y-100422927D01*
X147011500Y-100237073D01*
X147047758Y-100054791D01*
X147118881Y-99883085D01*
X147222136Y-99728554D01*
X147353554Y-99597136D01*
X147508085Y-99493881D01*
X147679791Y-99422758D01*
X147770932Y-99404629D01*
X147862072Y-99386500D01*
X148047928Y-99386500D01*
X148139068Y-99404629D01*
X148139068Y-99404629D01*
G37*
M02*
