G04 #@! TF.GenerationSoftware,KiCad,Pcbnew,(5.1.4)-1*
G04 #@! TF.CreationDate,2020-11-28T22:24:56-05:00*
G04 #@! TF.ProjectId,snek,736e656b-2e6b-4696-9361-645f70636258,rev?*
G04 #@! TF.SameCoordinates,Original*
G04 #@! TF.FileFunction,Copper,L1,Top*
G04 #@! TF.FilePolarity,Positive*
%FSLAX46Y46*%
G04 Gerber Fmt 4.6, Leading zero omitted, Abs format (unit mm)*
G04 Created by KiCad (PCBNEW (5.1.4)-1) date 2020-11-28 22:24:57*
%MOMM*%
%LPD*%
G04 APERTURE LIST*
%ADD10C,4.066000*%
%ADD11C,1.785000*%
%ADD12R,1.785000X1.785000*%
%ADD13C,6.400000*%
%ADD14C,1.524000*%
%ADD15R,1.524000X1.524000*%
%ADD16C,2.000000*%
%ADD17O,1.600000X1.600000*%
%ADD18C,1.600000*%
%ADD19C,0.250000*%
%ADD20C,0.500000*%
%ADD21C,0.254000*%
G04 APERTURE END LIST*
D10*
X132920000Y-102870000D03*
X157910000Y-102870000D03*
D11*
X150245000Y-100330000D03*
X147955000Y-100330000D03*
X145665000Y-100330000D03*
X143375000Y-100330000D03*
X141085000Y-100330000D03*
X149100000Y-102870000D03*
X146810000Y-102870000D03*
X144520000Y-102870000D03*
X142230000Y-102870000D03*
X139940000Y-102870000D03*
X150245000Y-105410000D03*
X147955000Y-105410000D03*
X145665000Y-105410000D03*
X143375000Y-105410000D03*
D12*
X141085000Y-105410000D03*
D13*
X132715000Y-167005000D03*
X158115000Y-167005000D03*
X132080000Y-114300000D03*
X158750000Y-114300000D03*
D14*
X137795000Y-109855000D03*
X137795000Y-112395000D03*
X137795000Y-114935000D03*
X137795000Y-117475000D03*
X137795000Y-120015000D03*
X137795000Y-122555000D03*
X137795000Y-125095000D03*
X137795000Y-127635000D03*
X137795000Y-130175000D03*
X137795000Y-132715000D03*
X137795000Y-135255000D03*
X137795000Y-137795000D03*
X137795000Y-140335000D03*
X137795000Y-142875000D03*
X153035000Y-142875000D03*
X153035000Y-140335000D03*
X153035000Y-137795000D03*
X153035000Y-135255000D03*
X153035000Y-132715000D03*
X153035000Y-130175000D03*
X153035000Y-127635000D03*
X153035000Y-125095000D03*
X153035000Y-122555000D03*
X153035000Y-120015000D03*
X153035000Y-117475000D03*
X153035000Y-114935000D03*
X153035000Y-112395000D03*
D15*
X153035000Y-109855000D03*
D16*
X156360000Y-156845000D03*
X156360000Y-161345000D03*
X149860000Y-156845000D03*
X149860000Y-161345000D03*
X148740000Y-164465000D03*
X148740000Y-168965000D03*
X142240000Y-164465000D03*
X142240000Y-168965000D03*
X141120000Y-156845000D03*
X141120000Y-161345000D03*
X134620000Y-156845000D03*
X134620000Y-161345000D03*
X148740000Y-149225000D03*
X148740000Y-153725000D03*
X142240000Y-149225000D03*
X142240000Y-153725000D03*
D17*
X149225000Y-146050000D03*
D18*
X141605000Y-146050000D03*
D17*
X160655000Y-129540000D03*
D18*
X160655000Y-121920000D03*
D17*
X130175000Y-140335000D03*
D18*
X130175000Y-132715000D03*
D17*
X130175000Y-129540000D03*
D18*
X130175000Y-121920000D03*
D17*
X130175000Y-151130000D03*
D18*
X130175000Y-143510000D03*
D17*
X130175000Y-161925000D03*
D18*
X130175000Y-154305000D03*
D17*
X160655000Y-161925000D03*
D18*
X160655000Y-154305000D03*
D17*
X160655000Y-132715000D03*
D18*
X160655000Y-140335000D03*
D17*
X160655000Y-143510000D03*
D18*
X160655000Y-151130000D03*
X137160000Y-104775000D03*
X139065000Y-107315000D03*
X156210000Y-106680000D03*
X153035000Y-107315000D03*
D19*
X146557499Y-99437501D02*
X145665000Y-100330000D01*
X146882501Y-99112499D02*
X146557499Y-99437501D01*
X150829401Y-99112499D02*
X146882501Y-99112499D01*
X154122001Y-102405099D02*
X150829401Y-99112499D01*
X160655000Y-121920000D02*
X154122001Y-115387001D01*
X154122001Y-115387001D02*
X154122001Y-102405099D01*
X136072999Y-116022001D02*
X138612999Y-116022001D01*
X130175000Y-121920000D02*
X136072999Y-116022001D01*
X138612999Y-116022001D02*
X139700000Y-114935000D01*
X139700000Y-109085000D02*
X143375000Y-105410000D01*
X139700000Y-114935000D02*
X139700000Y-109085000D01*
D20*
X137160000Y-105410000D02*
X139065000Y-107315000D01*
X137160000Y-104775000D02*
X137160000Y-105410000D01*
D19*
X147325787Y-168965000D02*
X142240000Y-168965000D01*
X148740000Y-168965000D02*
X147325787Y-168965000D01*
X159855001Y-144309999D02*
X160655000Y-143510000D01*
X148740000Y-168965000D02*
X153670000Y-164035000D01*
X153035000Y-125731410D02*
X153035000Y-125095000D01*
X154122001Y-126818411D02*
X153035000Y-125731410D01*
X154122001Y-135845631D02*
X154122001Y-126818411D01*
X160655000Y-142378630D02*
X154122001Y-135845631D01*
X160655000Y-143510000D02*
X160655000Y-142378630D01*
X159529999Y-144635001D02*
X159855001Y-144309999D01*
X159529999Y-156213999D02*
X159529999Y-144635001D01*
X153670000Y-162073998D02*
X159529999Y-156213999D01*
X153670000Y-164035000D02*
X153670000Y-162073998D01*
X140120001Y-162344999D02*
X141120000Y-161345000D01*
X135619999Y-162344999D02*
X140120001Y-162344999D01*
X134620000Y-161345000D02*
X135619999Y-162344999D01*
X153796999Y-118236999D02*
X153035000Y-117475000D01*
X154122001Y-118562001D02*
X153796999Y-118236999D01*
X154122001Y-126182001D02*
X154122001Y-118562001D01*
X160655000Y-132715000D02*
X154122001Y-126182001D01*
X142240000Y-153725000D02*
X148740000Y-153725000D01*
X149860000Y-118110000D02*
X153035000Y-114935000D01*
X149860000Y-143510000D02*
X149860000Y-118110000D01*
X147320000Y-146050000D02*
X149860000Y-143510000D01*
X148740000Y-153725000D02*
X147320000Y-152305000D01*
X147320000Y-152305000D02*
X147320000Y-146050000D01*
X139332010Y-119012010D02*
X137795000Y-117475000D01*
X139332010Y-152778012D02*
X139332010Y-119012010D01*
X149860000Y-156845000D02*
X143398998Y-156845000D01*
X143398998Y-156845000D02*
X139332010Y-152778012D01*
X136725986Y-152778012D02*
X139332010Y-152778012D01*
X130974999Y-158528999D02*
X136725986Y-152778012D01*
X130974999Y-161125001D02*
X130974999Y-158528999D01*
X130175000Y-161925000D02*
X130974999Y-161125001D01*
X149860000Y-156845000D02*
X156360000Y-156845000D01*
X137033001Y-125856999D02*
X137795000Y-125095000D01*
X136707999Y-126182001D02*
X137033001Y-125856999D01*
X136707999Y-144597001D02*
X136707999Y-126182001D01*
X130175000Y-151130000D02*
X136707999Y-144597001D01*
X138556999Y-126873001D02*
X137795000Y-127635000D01*
X138882001Y-126547999D02*
X138556999Y-126873001D01*
X138882001Y-124573239D02*
X138882001Y-126547999D01*
X138316761Y-124007999D02*
X138882001Y-124573239D01*
X135707001Y-124007999D02*
X138316761Y-124007999D01*
X130175000Y-129540000D02*
X135707001Y-124007999D01*
D21*
G36*
X162510000Y-170146497D02*
G01*
X162483543Y-170416327D01*
X162414908Y-170643656D01*
X162303428Y-170853320D01*
X162153343Y-171037341D01*
X161970380Y-171188701D01*
X161761493Y-171301646D01*
X161534653Y-171371865D01*
X161266966Y-171400000D01*
X129573503Y-171400000D01*
X129303673Y-171373543D01*
X129076344Y-171304908D01*
X128866680Y-171193428D01*
X128682659Y-171043343D01*
X128531299Y-170860380D01*
X128418354Y-170651493D01*
X128348135Y-170424653D01*
X128320000Y-170156966D01*
X128320000Y-166627285D01*
X128880000Y-166627285D01*
X128880000Y-167382715D01*
X129027377Y-168123628D01*
X129316467Y-168821554D01*
X129736161Y-169449670D01*
X130270330Y-169983839D01*
X130898446Y-170403533D01*
X131596372Y-170692623D01*
X132337285Y-170840000D01*
X133092715Y-170840000D01*
X133833628Y-170692623D01*
X134531554Y-170403533D01*
X135159670Y-169983839D01*
X135693839Y-169449670D01*
X136113533Y-168821554D01*
X136402623Y-168123628D01*
X136550000Y-167382715D01*
X136550000Y-166627285D01*
X136402623Y-165886372D01*
X136284176Y-165600413D01*
X141284192Y-165600413D01*
X141379956Y-165864814D01*
X141669571Y-166005704D01*
X141981108Y-166087384D01*
X142302595Y-166106718D01*
X142621675Y-166062961D01*
X142926088Y-165957795D01*
X143100044Y-165864814D01*
X143195808Y-165600413D01*
X147784192Y-165600413D01*
X147879956Y-165864814D01*
X148169571Y-166005704D01*
X148481108Y-166087384D01*
X148802595Y-166106718D01*
X149121675Y-166062961D01*
X149426088Y-165957795D01*
X149600044Y-165864814D01*
X149695808Y-165600413D01*
X148740000Y-164644605D01*
X147784192Y-165600413D01*
X143195808Y-165600413D01*
X142240000Y-164644605D01*
X141284192Y-165600413D01*
X136284176Y-165600413D01*
X136113533Y-165188446D01*
X135693839Y-164560330D01*
X135661104Y-164527595D01*
X140598282Y-164527595D01*
X140642039Y-164846675D01*
X140747205Y-165151088D01*
X140840186Y-165325044D01*
X141104587Y-165420808D01*
X142060395Y-164465000D01*
X142419605Y-164465000D01*
X143375413Y-165420808D01*
X143639814Y-165325044D01*
X143780704Y-165035429D01*
X143862384Y-164723892D01*
X143874189Y-164527595D01*
X147098282Y-164527595D01*
X147142039Y-164846675D01*
X147247205Y-165151088D01*
X147340186Y-165325044D01*
X147604587Y-165420808D01*
X148560395Y-164465000D01*
X148919605Y-164465000D01*
X149875413Y-165420808D01*
X150139814Y-165325044D01*
X150280704Y-165035429D01*
X150362384Y-164723892D01*
X150381718Y-164402405D01*
X150337961Y-164083325D01*
X150232795Y-163778912D01*
X150139814Y-163604956D01*
X149875413Y-163509192D01*
X148919605Y-164465000D01*
X148560395Y-164465000D01*
X147604587Y-163509192D01*
X147340186Y-163604956D01*
X147199296Y-163894571D01*
X147117616Y-164206108D01*
X147098282Y-164527595D01*
X143874189Y-164527595D01*
X143881718Y-164402405D01*
X143837961Y-164083325D01*
X143732795Y-163778912D01*
X143639814Y-163604956D01*
X143375413Y-163509192D01*
X142419605Y-164465000D01*
X142060395Y-164465000D01*
X141104587Y-163509192D01*
X140840186Y-163604956D01*
X140699296Y-163894571D01*
X140617616Y-164206108D01*
X140598282Y-164527595D01*
X135661104Y-164527595D01*
X135159670Y-164026161D01*
X134531554Y-163606467D01*
X133863106Y-163329587D01*
X141284192Y-163329587D01*
X142240000Y-164285395D01*
X143195808Y-163329587D01*
X147784192Y-163329587D01*
X148740000Y-164285395D01*
X149695808Y-163329587D01*
X149600044Y-163065186D01*
X149310429Y-162924296D01*
X148998892Y-162842616D01*
X148677405Y-162823282D01*
X148358325Y-162867039D01*
X148053912Y-162972205D01*
X147879956Y-163065186D01*
X147784192Y-163329587D01*
X143195808Y-163329587D01*
X143100044Y-163065186D01*
X142810429Y-162924296D01*
X142498892Y-162842616D01*
X142177405Y-162823282D01*
X141858325Y-162867039D01*
X141553912Y-162972205D01*
X141379956Y-163065186D01*
X141284192Y-163329587D01*
X133863106Y-163329587D01*
X133833628Y-163317377D01*
X133092715Y-163170000D01*
X132337285Y-163170000D01*
X131596372Y-163317377D01*
X130898446Y-163606467D01*
X130270330Y-164026161D01*
X129736161Y-164560330D01*
X129316467Y-165188446D01*
X129027377Y-165886372D01*
X128880000Y-166627285D01*
X128320000Y-166627285D01*
X128320000Y-154163665D01*
X128740000Y-154163665D01*
X128740000Y-154446335D01*
X128795147Y-154723574D01*
X128903320Y-154984727D01*
X129060363Y-155219759D01*
X129260241Y-155419637D01*
X129495273Y-155576680D01*
X129756426Y-155684853D01*
X130033665Y-155740000D01*
X130316335Y-155740000D01*
X130593574Y-155684853D01*
X130854727Y-155576680D01*
X131089759Y-155419637D01*
X131289637Y-155219759D01*
X131446680Y-154984727D01*
X131554853Y-154723574D01*
X131610000Y-154446335D01*
X131610000Y-154163665D01*
X131554853Y-153886426D01*
X131446680Y-153625273D01*
X131289637Y-153390241D01*
X131089759Y-153190363D01*
X130854727Y-153033320D01*
X130593574Y-152925147D01*
X130316335Y-152870000D01*
X130033665Y-152870000D01*
X129756426Y-152925147D01*
X129495273Y-153033320D01*
X129260241Y-153190363D01*
X129060363Y-153390241D01*
X128903320Y-153625273D01*
X128795147Y-153886426D01*
X128740000Y-154163665D01*
X128320000Y-154163665D01*
X128320000Y-143368665D01*
X128740000Y-143368665D01*
X128740000Y-143651335D01*
X128795147Y-143928574D01*
X128903320Y-144189727D01*
X129060363Y-144424759D01*
X129260241Y-144624637D01*
X129495273Y-144781680D01*
X129756426Y-144889853D01*
X130033665Y-144945000D01*
X130316335Y-144945000D01*
X130593574Y-144889853D01*
X130854727Y-144781680D01*
X131089759Y-144624637D01*
X131289637Y-144424759D01*
X131446680Y-144189727D01*
X131554853Y-143928574D01*
X131610000Y-143651335D01*
X131610000Y-143368665D01*
X131554853Y-143091426D01*
X131446680Y-142830273D01*
X131289637Y-142595241D01*
X131089759Y-142395363D01*
X130854727Y-142238320D01*
X130593574Y-142130147D01*
X130316335Y-142075000D01*
X130033665Y-142075000D01*
X129756426Y-142130147D01*
X129495273Y-142238320D01*
X129260241Y-142395363D01*
X129060363Y-142595241D01*
X128903320Y-142830273D01*
X128795147Y-143091426D01*
X128740000Y-143368665D01*
X128320000Y-143368665D01*
X128320000Y-140335000D01*
X128733057Y-140335000D01*
X128760764Y-140616309D01*
X128842818Y-140886808D01*
X128976068Y-141136101D01*
X129155392Y-141354608D01*
X129373899Y-141533932D01*
X129623192Y-141667182D01*
X129893691Y-141749236D01*
X130104508Y-141770000D01*
X130245492Y-141770000D01*
X130456309Y-141749236D01*
X130726808Y-141667182D01*
X130976101Y-141533932D01*
X131194608Y-141354608D01*
X131373932Y-141136101D01*
X131507182Y-140886808D01*
X131589236Y-140616309D01*
X131616943Y-140335000D01*
X131589236Y-140053691D01*
X131507182Y-139783192D01*
X131373932Y-139533899D01*
X131194608Y-139315392D01*
X130976101Y-139136068D01*
X130726808Y-139002818D01*
X130456309Y-138920764D01*
X130245492Y-138900000D01*
X130104508Y-138900000D01*
X129893691Y-138920764D01*
X129623192Y-139002818D01*
X129373899Y-139136068D01*
X129155392Y-139315392D01*
X128976068Y-139533899D01*
X128842818Y-139783192D01*
X128760764Y-140053691D01*
X128733057Y-140335000D01*
X128320000Y-140335000D01*
X128320000Y-132573665D01*
X128740000Y-132573665D01*
X128740000Y-132856335D01*
X128795147Y-133133574D01*
X128903320Y-133394727D01*
X129060363Y-133629759D01*
X129260241Y-133829637D01*
X129495273Y-133986680D01*
X129756426Y-134094853D01*
X130033665Y-134150000D01*
X130316335Y-134150000D01*
X130593574Y-134094853D01*
X130854727Y-133986680D01*
X131089759Y-133829637D01*
X131289637Y-133629759D01*
X131446680Y-133394727D01*
X131554853Y-133133574D01*
X131610000Y-132856335D01*
X131610000Y-132573665D01*
X131554853Y-132296426D01*
X131446680Y-132035273D01*
X131289637Y-131800241D01*
X131089759Y-131600363D01*
X130854727Y-131443320D01*
X130593574Y-131335147D01*
X130316335Y-131280000D01*
X130033665Y-131280000D01*
X129756426Y-131335147D01*
X129495273Y-131443320D01*
X129260241Y-131600363D01*
X129060363Y-131800241D01*
X128903320Y-132035273D01*
X128795147Y-132296426D01*
X128740000Y-132573665D01*
X128320000Y-132573665D01*
X128320000Y-115054765D01*
X128392377Y-115418628D01*
X128681467Y-116116554D01*
X129101161Y-116744670D01*
X129635330Y-117278839D01*
X130263446Y-117698533D01*
X130961372Y-117987623D01*
X131702285Y-118135000D01*
X132457715Y-118135000D01*
X132991344Y-118028854D01*
X130498887Y-120521312D01*
X130316335Y-120485000D01*
X130033665Y-120485000D01*
X129756426Y-120540147D01*
X129495273Y-120648320D01*
X129260241Y-120805363D01*
X129060363Y-121005241D01*
X128903320Y-121240273D01*
X128795147Y-121501426D01*
X128740000Y-121778665D01*
X128740000Y-122061335D01*
X128795147Y-122338574D01*
X128903320Y-122599727D01*
X129060363Y-122834759D01*
X129260241Y-123034637D01*
X129495273Y-123191680D01*
X129756426Y-123299853D01*
X130033665Y-123355000D01*
X130316335Y-123355000D01*
X130593574Y-123299853D01*
X130854727Y-123191680D01*
X131089759Y-123034637D01*
X131289637Y-122834759D01*
X131446680Y-122599727D01*
X131554853Y-122338574D01*
X131610000Y-122061335D01*
X131610000Y-121778665D01*
X131573688Y-121596113D01*
X136387801Y-116782001D01*
X136577890Y-116782001D01*
X136556995Y-116813273D01*
X136451686Y-117067510D01*
X136398000Y-117337408D01*
X136398000Y-117612592D01*
X136451686Y-117882490D01*
X136556995Y-118136727D01*
X136709880Y-118365535D01*
X136904465Y-118560120D01*
X137133273Y-118713005D01*
X137210515Y-118745000D01*
X137133273Y-118776995D01*
X136904465Y-118929880D01*
X136709880Y-119124465D01*
X136556995Y-119353273D01*
X136451686Y-119607510D01*
X136398000Y-119877408D01*
X136398000Y-120152592D01*
X136451686Y-120422490D01*
X136556995Y-120676727D01*
X136709880Y-120905535D01*
X136904465Y-121100120D01*
X137133273Y-121253005D01*
X137210515Y-121285000D01*
X137133273Y-121316995D01*
X136904465Y-121469880D01*
X136709880Y-121664465D01*
X136556995Y-121893273D01*
X136451686Y-122147510D01*
X136398000Y-122417408D01*
X136398000Y-122692592D01*
X136451686Y-122962490D01*
X136556995Y-123216727D01*
X136577890Y-123247999D01*
X135744324Y-123247999D01*
X135707001Y-123244323D01*
X135669678Y-123247999D01*
X135669668Y-123247999D01*
X135558015Y-123258996D01*
X135414754Y-123302453D01*
X135282725Y-123373025D01*
X135167000Y-123467998D01*
X135143202Y-123496996D01*
X130500906Y-128139292D01*
X130456309Y-128125764D01*
X130245492Y-128105000D01*
X130104508Y-128105000D01*
X129893691Y-128125764D01*
X129623192Y-128207818D01*
X129373899Y-128341068D01*
X129155392Y-128520392D01*
X128976068Y-128738899D01*
X128842818Y-128988192D01*
X128760764Y-129258691D01*
X128733057Y-129540000D01*
X128760764Y-129821309D01*
X128842818Y-130091808D01*
X128976068Y-130341101D01*
X129155392Y-130559608D01*
X129373899Y-130738932D01*
X129623192Y-130872182D01*
X129893691Y-130954236D01*
X130104508Y-130975000D01*
X130245492Y-130975000D01*
X130456309Y-130954236D01*
X130726808Y-130872182D01*
X130976101Y-130738932D01*
X131194608Y-130559608D01*
X131373932Y-130341101D01*
X131507182Y-130091808D01*
X131589236Y-129821309D01*
X131616943Y-129540000D01*
X131589236Y-129258691D01*
X131575708Y-129214094D01*
X136021803Y-124767999D01*
X136435676Y-124767999D01*
X136398000Y-124957408D01*
X136398000Y-125232592D01*
X136428628Y-125386571D01*
X136196997Y-125618202D01*
X136167999Y-125642000D01*
X136144201Y-125670998D01*
X136144200Y-125670999D01*
X136073025Y-125757725D01*
X136002453Y-125889755D01*
X135958997Y-126033016D01*
X135944323Y-126182001D01*
X135948000Y-126219333D01*
X135947999Y-144282199D01*
X130500907Y-149729292D01*
X130456309Y-149715764D01*
X130245492Y-149695000D01*
X130104508Y-149695000D01*
X129893691Y-149715764D01*
X129623192Y-149797818D01*
X129373899Y-149931068D01*
X129155392Y-150110392D01*
X128976068Y-150328899D01*
X128842818Y-150578192D01*
X128760764Y-150848691D01*
X128733057Y-151130000D01*
X128760764Y-151411309D01*
X128842818Y-151681808D01*
X128976068Y-151931101D01*
X129155392Y-152149608D01*
X129373899Y-152328932D01*
X129623192Y-152462182D01*
X129893691Y-152544236D01*
X130104508Y-152565000D01*
X130245492Y-152565000D01*
X130456309Y-152544236D01*
X130726808Y-152462182D01*
X130976101Y-152328932D01*
X131194608Y-152149608D01*
X131373932Y-151931101D01*
X131507182Y-151681808D01*
X131589236Y-151411309D01*
X131616943Y-151130000D01*
X131589236Y-150848691D01*
X131575708Y-150804093D01*
X137219003Y-145160799D01*
X137248000Y-145137002D01*
X137342973Y-145021277D01*
X137413545Y-144889248D01*
X137457002Y-144745987D01*
X137467999Y-144634334D01*
X137467999Y-144634326D01*
X137471675Y-144597001D01*
X137467999Y-144559676D01*
X137467999Y-144234324D01*
X137657408Y-144272000D01*
X137932592Y-144272000D01*
X138202490Y-144218314D01*
X138456727Y-144113005D01*
X138572010Y-144035975D01*
X138572010Y-152018012D01*
X136763309Y-152018012D01*
X136725986Y-152014336D01*
X136688663Y-152018012D01*
X136688653Y-152018012D01*
X136577000Y-152029009D01*
X136433739Y-152072466D01*
X136301710Y-152143038D01*
X136185985Y-152238011D01*
X136162187Y-152267009D01*
X130463997Y-157965200D01*
X130434999Y-157988998D01*
X130411201Y-158017996D01*
X130411200Y-158017997D01*
X130340025Y-158104723D01*
X130269453Y-158236753D01*
X130267008Y-158244814D01*
X130225997Y-158380013D01*
X130222338Y-158417168D01*
X130211323Y-158528999D01*
X130215000Y-158566331D01*
X130214999Y-160490000D01*
X130104508Y-160490000D01*
X129893691Y-160510764D01*
X129623192Y-160592818D01*
X129373899Y-160726068D01*
X129155392Y-160905392D01*
X128976068Y-161123899D01*
X128842818Y-161373192D01*
X128760764Y-161643691D01*
X128733057Y-161925000D01*
X128760764Y-162206309D01*
X128842818Y-162476808D01*
X128976068Y-162726101D01*
X129155392Y-162944608D01*
X129373899Y-163123932D01*
X129623192Y-163257182D01*
X129893691Y-163339236D01*
X130104508Y-163360000D01*
X130245492Y-163360000D01*
X130456309Y-163339236D01*
X130726808Y-163257182D01*
X130976101Y-163123932D01*
X131194608Y-162944608D01*
X131373932Y-162726101D01*
X131507182Y-162476808D01*
X131589236Y-162206309D01*
X131616943Y-161925000D01*
X131589236Y-161643691D01*
X131573922Y-161593206D01*
X131609972Y-161549278D01*
X131609973Y-161549277D01*
X131680545Y-161417248D01*
X131724002Y-161273987D01*
X131732868Y-161183967D01*
X132985000Y-161183967D01*
X132985000Y-161506033D01*
X133047832Y-161821912D01*
X133171082Y-162119463D01*
X133350013Y-162387252D01*
X133577748Y-162614987D01*
X133845537Y-162793918D01*
X134143088Y-162917168D01*
X134458967Y-162980000D01*
X134781033Y-162980000D01*
X135096912Y-162917168D01*
X135111721Y-162911034D01*
X135195722Y-162979973D01*
X135327752Y-163050545D01*
X135471013Y-163094002D01*
X135582666Y-163104999D01*
X135582675Y-163104999D01*
X135619998Y-163108675D01*
X135657321Y-163104999D01*
X140082679Y-163104999D01*
X140120001Y-163108675D01*
X140157323Y-163104999D01*
X140157334Y-163104999D01*
X140268987Y-163094002D01*
X140412248Y-163050545D01*
X140544277Y-162979973D01*
X140628279Y-162911034D01*
X140643088Y-162917168D01*
X140958967Y-162980000D01*
X141281033Y-162980000D01*
X141596912Y-162917168D01*
X141894463Y-162793918D01*
X142162252Y-162614987D01*
X142296826Y-162480413D01*
X148904192Y-162480413D01*
X148999956Y-162744814D01*
X149289571Y-162885704D01*
X149601108Y-162967384D01*
X149922595Y-162986718D01*
X150241675Y-162942961D01*
X150546088Y-162837795D01*
X150720044Y-162744814D01*
X150815808Y-162480413D01*
X149860000Y-161524605D01*
X148904192Y-162480413D01*
X142296826Y-162480413D01*
X142389987Y-162387252D01*
X142568918Y-162119463D01*
X142692168Y-161821912D01*
X142755000Y-161506033D01*
X142755000Y-161407595D01*
X148218282Y-161407595D01*
X148262039Y-161726675D01*
X148367205Y-162031088D01*
X148460186Y-162205044D01*
X148724587Y-162300808D01*
X149680395Y-161345000D01*
X150039605Y-161345000D01*
X150995413Y-162300808D01*
X151259814Y-162205044D01*
X151400704Y-161915429D01*
X151482384Y-161603892D01*
X151501718Y-161282405D01*
X151457961Y-160963325D01*
X151352795Y-160658912D01*
X151259814Y-160484956D01*
X150995413Y-160389192D01*
X150039605Y-161345000D01*
X149680395Y-161345000D01*
X148724587Y-160389192D01*
X148460186Y-160484956D01*
X148319296Y-160774571D01*
X148237616Y-161086108D01*
X148218282Y-161407595D01*
X142755000Y-161407595D01*
X142755000Y-161183967D01*
X142692168Y-160868088D01*
X142568918Y-160570537D01*
X142389987Y-160302748D01*
X142296826Y-160209587D01*
X148904192Y-160209587D01*
X149860000Y-161165395D01*
X150815808Y-160209587D01*
X150720044Y-159945186D01*
X150430429Y-159804296D01*
X150118892Y-159722616D01*
X149797405Y-159703282D01*
X149478325Y-159747039D01*
X149173912Y-159852205D01*
X148999956Y-159945186D01*
X148904192Y-160209587D01*
X142296826Y-160209587D01*
X142162252Y-160075013D01*
X141894463Y-159896082D01*
X141596912Y-159772832D01*
X141281033Y-159710000D01*
X140958967Y-159710000D01*
X140643088Y-159772832D01*
X140345537Y-159896082D01*
X140077748Y-160075013D01*
X139850013Y-160302748D01*
X139671082Y-160570537D01*
X139547832Y-160868088D01*
X139485000Y-161183967D01*
X139485000Y-161506033D01*
X139500707Y-161584999D01*
X136239293Y-161584999D01*
X136255000Y-161506033D01*
X136255000Y-161183967D01*
X136192168Y-160868088D01*
X136068918Y-160570537D01*
X135889987Y-160302748D01*
X135662252Y-160075013D01*
X135394463Y-159896082D01*
X135096912Y-159772832D01*
X134781033Y-159710000D01*
X134458967Y-159710000D01*
X134143088Y-159772832D01*
X133845537Y-159896082D01*
X133577748Y-160075013D01*
X133350013Y-160302748D01*
X133171082Y-160570537D01*
X133047832Y-160868088D01*
X132985000Y-161183967D01*
X131732868Y-161183967D01*
X131734999Y-161162334D01*
X131734999Y-161162325D01*
X131738675Y-161125002D01*
X131734999Y-161087679D01*
X131734999Y-158843800D01*
X132598386Y-157980413D01*
X133664192Y-157980413D01*
X133759956Y-158244814D01*
X134049571Y-158385704D01*
X134361108Y-158467384D01*
X134682595Y-158486718D01*
X135001675Y-158442961D01*
X135306088Y-158337795D01*
X135480044Y-158244814D01*
X135575808Y-157980413D01*
X140164192Y-157980413D01*
X140259956Y-158244814D01*
X140549571Y-158385704D01*
X140861108Y-158467384D01*
X141182595Y-158486718D01*
X141501675Y-158442961D01*
X141806088Y-158337795D01*
X141980044Y-158244814D01*
X142075808Y-157980413D01*
X141120000Y-157024605D01*
X140164192Y-157980413D01*
X135575808Y-157980413D01*
X134620000Y-157024605D01*
X133664192Y-157980413D01*
X132598386Y-157980413D01*
X133106794Y-157472006D01*
X133127205Y-157531088D01*
X133220186Y-157705044D01*
X133484587Y-157800808D01*
X134440395Y-156845000D01*
X134799605Y-156845000D01*
X135755413Y-157800808D01*
X136019814Y-157705044D01*
X136160704Y-157415429D01*
X136242384Y-157103892D01*
X136254189Y-156907595D01*
X139478282Y-156907595D01*
X139522039Y-157226675D01*
X139627205Y-157531088D01*
X139720186Y-157705044D01*
X139984587Y-157800808D01*
X140940395Y-156845000D01*
X139984587Y-155889192D01*
X139720186Y-155984956D01*
X139579296Y-156274571D01*
X139497616Y-156586108D01*
X139478282Y-156907595D01*
X136254189Y-156907595D01*
X136261718Y-156782405D01*
X136217961Y-156463325D01*
X136112795Y-156158912D01*
X136019814Y-155984956D01*
X135755413Y-155889192D01*
X134799605Y-156845000D01*
X134440395Y-156845000D01*
X134426253Y-156830858D01*
X134605858Y-156651253D01*
X134620000Y-156665395D01*
X135575808Y-155709587D01*
X135480044Y-155445186D01*
X135246989Y-155331811D01*
X137040788Y-153538012D01*
X139017209Y-153538012D01*
X140729340Y-155250143D01*
X140433912Y-155352205D01*
X140259956Y-155445186D01*
X140164192Y-155709587D01*
X141120000Y-156665395D01*
X141134143Y-156651253D01*
X141313748Y-156830858D01*
X141299605Y-156845000D01*
X142255413Y-157800808D01*
X142519814Y-157705044D01*
X142660704Y-157415429D01*
X142709295Y-157230099D01*
X142835199Y-157356003D01*
X142858997Y-157385001D01*
X142887995Y-157408799D01*
X142974722Y-157479974D01*
X143106751Y-157550546D01*
X143250012Y-157594003D01*
X143398998Y-157608677D01*
X143436331Y-157605000D01*
X148405091Y-157605000D01*
X148411082Y-157619463D01*
X148590013Y-157887252D01*
X148817748Y-158114987D01*
X149085537Y-158293918D01*
X149383088Y-158417168D01*
X149698967Y-158480000D01*
X150021033Y-158480000D01*
X150336912Y-158417168D01*
X150634463Y-158293918D01*
X150902252Y-158114987D01*
X151129987Y-157887252D01*
X151308918Y-157619463D01*
X151314909Y-157605000D01*
X154905091Y-157605000D01*
X154911082Y-157619463D01*
X155090013Y-157887252D01*
X155317748Y-158114987D01*
X155585537Y-158293918D01*
X155883088Y-158417168D01*
X156190818Y-158478379D01*
X153158998Y-161510199D01*
X153130000Y-161533997D01*
X153106202Y-161562995D01*
X153106201Y-161562996D01*
X153035026Y-161649722D01*
X152964454Y-161781752D01*
X152941931Y-161856003D01*
X152922300Y-161920722D01*
X152920998Y-161925013D01*
X152906324Y-162073998D01*
X152910001Y-162111330D01*
X152910000Y-163720198D01*
X149231376Y-167398823D01*
X149216912Y-167392832D01*
X148901033Y-167330000D01*
X148578967Y-167330000D01*
X148263088Y-167392832D01*
X147965537Y-167516082D01*
X147697748Y-167695013D01*
X147470013Y-167922748D01*
X147291082Y-168190537D01*
X147285091Y-168205000D01*
X143694909Y-168205000D01*
X143688918Y-168190537D01*
X143509987Y-167922748D01*
X143282252Y-167695013D01*
X143014463Y-167516082D01*
X142716912Y-167392832D01*
X142401033Y-167330000D01*
X142078967Y-167330000D01*
X141763088Y-167392832D01*
X141465537Y-167516082D01*
X141197748Y-167695013D01*
X140970013Y-167922748D01*
X140791082Y-168190537D01*
X140667832Y-168488088D01*
X140605000Y-168803967D01*
X140605000Y-169126033D01*
X140667832Y-169441912D01*
X140791082Y-169739463D01*
X140970013Y-170007252D01*
X141197748Y-170234987D01*
X141465537Y-170413918D01*
X141763088Y-170537168D01*
X142078967Y-170600000D01*
X142401033Y-170600000D01*
X142716912Y-170537168D01*
X143014463Y-170413918D01*
X143282252Y-170234987D01*
X143509987Y-170007252D01*
X143688918Y-169739463D01*
X143694909Y-169725000D01*
X147285091Y-169725000D01*
X147291082Y-169739463D01*
X147470013Y-170007252D01*
X147697748Y-170234987D01*
X147965537Y-170413918D01*
X148263088Y-170537168D01*
X148578967Y-170600000D01*
X148901033Y-170600000D01*
X149216912Y-170537168D01*
X149514463Y-170413918D01*
X149782252Y-170234987D01*
X150009987Y-170007252D01*
X150188918Y-169739463D01*
X150312168Y-169441912D01*
X150375000Y-169126033D01*
X150375000Y-168803967D01*
X150312168Y-168488088D01*
X150306177Y-168473624D01*
X152152516Y-166627285D01*
X154280000Y-166627285D01*
X154280000Y-167382715D01*
X154427377Y-168123628D01*
X154716467Y-168821554D01*
X155136161Y-169449670D01*
X155670330Y-169983839D01*
X156298446Y-170403533D01*
X156996372Y-170692623D01*
X157737285Y-170840000D01*
X158492715Y-170840000D01*
X159233628Y-170692623D01*
X159931554Y-170403533D01*
X160559670Y-169983839D01*
X161093839Y-169449670D01*
X161513533Y-168821554D01*
X161802623Y-168123628D01*
X161950000Y-167382715D01*
X161950000Y-166627285D01*
X161802623Y-165886372D01*
X161513533Y-165188446D01*
X161093839Y-164560330D01*
X160559670Y-164026161D01*
X159931554Y-163606467D01*
X159233628Y-163317377D01*
X158492715Y-163170000D01*
X157737285Y-163170000D01*
X156996372Y-163317377D01*
X156298446Y-163606467D01*
X155670330Y-164026161D01*
X155136161Y-164560330D01*
X154716467Y-165188446D01*
X154427377Y-165886372D01*
X154280000Y-166627285D01*
X152152516Y-166627285D01*
X154181004Y-164598798D01*
X154210001Y-164575001D01*
X154304974Y-164459276D01*
X154375546Y-164327247D01*
X154419003Y-164183986D01*
X154430000Y-164072333D01*
X154430000Y-164072323D01*
X154433676Y-164035000D01*
X154430000Y-163997677D01*
X154430000Y-162480413D01*
X155404192Y-162480413D01*
X155499956Y-162744814D01*
X155789571Y-162885704D01*
X156101108Y-162967384D01*
X156422595Y-162986718D01*
X156741675Y-162942961D01*
X157046088Y-162837795D01*
X157220044Y-162744814D01*
X157315808Y-162480413D01*
X156360000Y-161524605D01*
X155404192Y-162480413D01*
X154430000Y-162480413D01*
X154430000Y-162388799D01*
X154846794Y-161972005D01*
X154867205Y-162031088D01*
X154960186Y-162205044D01*
X155224587Y-162300808D01*
X156180395Y-161345000D01*
X156539605Y-161345000D01*
X157495413Y-162300808D01*
X157759814Y-162205044D01*
X157896047Y-161925000D01*
X159213057Y-161925000D01*
X159240764Y-162206309D01*
X159322818Y-162476808D01*
X159456068Y-162726101D01*
X159635392Y-162944608D01*
X159853899Y-163123932D01*
X160103192Y-163257182D01*
X160373691Y-163339236D01*
X160584508Y-163360000D01*
X160725492Y-163360000D01*
X160936309Y-163339236D01*
X161206808Y-163257182D01*
X161456101Y-163123932D01*
X161674608Y-162944608D01*
X161853932Y-162726101D01*
X161987182Y-162476808D01*
X162069236Y-162206309D01*
X162096943Y-161925000D01*
X162069236Y-161643691D01*
X161987182Y-161373192D01*
X161853932Y-161123899D01*
X161674608Y-160905392D01*
X161456101Y-160726068D01*
X161206808Y-160592818D01*
X160936309Y-160510764D01*
X160725492Y-160490000D01*
X160584508Y-160490000D01*
X160373691Y-160510764D01*
X160103192Y-160592818D01*
X159853899Y-160726068D01*
X159635392Y-160905392D01*
X159456068Y-161123899D01*
X159322818Y-161373192D01*
X159240764Y-161643691D01*
X159213057Y-161925000D01*
X157896047Y-161925000D01*
X157900704Y-161915429D01*
X157982384Y-161603892D01*
X158001718Y-161282405D01*
X157957961Y-160963325D01*
X157852795Y-160658912D01*
X157759814Y-160484956D01*
X157495413Y-160389192D01*
X156539605Y-161345000D01*
X156180395Y-161345000D01*
X156166253Y-161330858D01*
X156345858Y-161151253D01*
X156360000Y-161165395D01*
X157315808Y-160209587D01*
X157220044Y-159945186D01*
X156986989Y-159831811D01*
X160041003Y-156777797D01*
X160070000Y-156754000D01*
X160127475Y-156683967D01*
X160164973Y-156638276D01*
X160235545Y-156506246D01*
X160261487Y-156420724D01*
X160279002Y-156362985D01*
X160289999Y-156251332D01*
X160289999Y-156251323D01*
X160293675Y-156214000D01*
X160289999Y-156176677D01*
X160289999Y-155695509D01*
X160513665Y-155740000D01*
X160796335Y-155740000D01*
X161073574Y-155684853D01*
X161334727Y-155576680D01*
X161569759Y-155419637D01*
X161769637Y-155219759D01*
X161926680Y-154984727D01*
X162034853Y-154723574D01*
X162090000Y-154446335D01*
X162090000Y-154163665D01*
X162034853Y-153886426D01*
X161926680Y-153625273D01*
X161769637Y-153390241D01*
X161569759Y-153190363D01*
X161334727Y-153033320D01*
X161073574Y-152925147D01*
X160796335Y-152870000D01*
X160513665Y-152870000D01*
X160289999Y-152914491D01*
X160289999Y-152520509D01*
X160513665Y-152565000D01*
X160796335Y-152565000D01*
X161073574Y-152509853D01*
X161334727Y-152401680D01*
X161569759Y-152244637D01*
X161769637Y-152044759D01*
X161926680Y-151809727D01*
X162034853Y-151548574D01*
X162090000Y-151271335D01*
X162090000Y-150988665D01*
X162034853Y-150711426D01*
X161926680Y-150450273D01*
X161769637Y-150215241D01*
X161569759Y-150015363D01*
X161334727Y-149858320D01*
X161073574Y-149750147D01*
X160796335Y-149695000D01*
X160513665Y-149695000D01*
X160289999Y-149739491D01*
X160289999Y-144949802D01*
X160329093Y-144910708D01*
X160373691Y-144924236D01*
X160584508Y-144945000D01*
X160725492Y-144945000D01*
X160936309Y-144924236D01*
X161206808Y-144842182D01*
X161456101Y-144708932D01*
X161674608Y-144529608D01*
X161853932Y-144311101D01*
X161987182Y-144061808D01*
X162069236Y-143791309D01*
X162096943Y-143510000D01*
X162069236Y-143228691D01*
X161987182Y-142958192D01*
X161853932Y-142708899D01*
X161674608Y-142490392D01*
X161456101Y-142311068D01*
X161409573Y-142286198D01*
X161404003Y-142229644D01*
X161360546Y-142086383D01*
X161289974Y-141954354D01*
X161195001Y-141838629D01*
X161166003Y-141814831D01*
X161067277Y-141716105D01*
X161073574Y-141714853D01*
X161334727Y-141606680D01*
X161569759Y-141449637D01*
X161769637Y-141249759D01*
X161926680Y-141014727D01*
X162034853Y-140753574D01*
X162090000Y-140476335D01*
X162090000Y-140193665D01*
X162034853Y-139916426D01*
X161926680Y-139655273D01*
X161769637Y-139420241D01*
X161569759Y-139220363D01*
X161334727Y-139063320D01*
X161073574Y-138955147D01*
X160796335Y-138900000D01*
X160513665Y-138900000D01*
X160236426Y-138955147D01*
X159975273Y-139063320D01*
X159740241Y-139220363D01*
X159540363Y-139420241D01*
X159383320Y-139655273D01*
X159275147Y-139916426D01*
X159273894Y-139922723D01*
X154882001Y-135530830D01*
X154882001Y-128016802D01*
X159254292Y-132389094D01*
X159240764Y-132433691D01*
X159213057Y-132715000D01*
X159240764Y-132996309D01*
X159322818Y-133266808D01*
X159456068Y-133516101D01*
X159635392Y-133734608D01*
X159853899Y-133913932D01*
X160103192Y-134047182D01*
X160373691Y-134129236D01*
X160584508Y-134150000D01*
X160725492Y-134150000D01*
X160936309Y-134129236D01*
X161206808Y-134047182D01*
X161456101Y-133913932D01*
X161674608Y-133734608D01*
X161853932Y-133516101D01*
X161987182Y-133266808D01*
X162069236Y-132996309D01*
X162096943Y-132715000D01*
X162069236Y-132433691D01*
X161987182Y-132163192D01*
X161853932Y-131913899D01*
X161674608Y-131695392D01*
X161456101Y-131516068D01*
X161206808Y-131382818D01*
X160936309Y-131300764D01*
X160725492Y-131280000D01*
X160584508Y-131280000D01*
X160373691Y-131300764D01*
X160329094Y-131314292D01*
X158554802Y-129540000D01*
X159213057Y-129540000D01*
X159240764Y-129821309D01*
X159322818Y-130091808D01*
X159456068Y-130341101D01*
X159635392Y-130559608D01*
X159853899Y-130738932D01*
X160103192Y-130872182D01*
X160373691Y-130954236D01*
X160584508Y-130975000D01*
X160725492Y-130975000D01*
X160936309Y-130954236D01*
X161206808Y-130872182D01*
X161456101Y-130738932D01*
X161674608Y-130559608D01*
X161853932Y-130341101D01*
X161987182Y-130091808D01*
X162069236Y-129821309D01*
X162096943Y-129540000D01*
X162069236Y-129258691D01*
X161987182Y-128988192D01*
X161853932Y-128738899D01*
X161674608Y-128520392D01*
X161456101Y-128341068D01*
X161206808Y-128207818D01*
X160936309Y-128125764D01*
X160725492Y-128105000D01*
X160584508Y-128105000D01*
X160373691Y-128125764D01*
X160103192Y-128207818D01*
X159853899Y-128341068D01*
X159635392Y-128520392D01*
X159456068Y-128738899D01*
X159322818Y-128988192D01*
X159240764Y-129258691D01*
X159213057Y-129540000D01*
X158554802Y-129540000D01*
X154882001Y-125867200D01*
X154882001Y-118599323D01*
X154885677Y-118562000D01*
X154882001Y-118524677D01*
X154882001Y-118524668D01*
X154871004Y-118413015D01*
X154827547Y-118269754D01*
X154756975Y-118137725D01*
X154662002Y-118022000D01*
X154632998Y-117998197D01*
X154401372Y-117766571D01*
X154432000Y-117612592D01*
X154432000Y-117337408D01*
X154378314Y-117067510D01*
X154273005Y-116813273D01*
X154120120Y-116584465D01*
X153925535Y-116389880D01*
X153696727Y-116236995D01*
X153619485Y-116205000D01*
X153696727Y-116173005D01*
X153778539Y-116118340D01*
X159256312Y-121596114D01*
X159220000Y-121778665D01*
X159220000Y-122061335D01*
X159275147Y-122338574D01*
X159383320Y-122599727D01*
X159540363Y-122834759D01*
X159740241Y-123034637D01*
X159975273Y-123191680D01*
X160236426Y-123299853D01*
X160513665Y-123355000D01*
X160796335Y-123355000D01*
X161073574Y-123299853D01*
X161334727Y-123191680D01*
X161569759Y-123034637D01*
X161769637Y-122834759D01*
X161926680Y-122599727D01*
X162034853Y-122338574D01*
X162090000Y-122061335D01*
X162090000Y-121778665D01*
X162034853Y-121501426D01*
X161926680Y-121240273D01*
X161769637Y-121005241D01*
X161569759Y-120805363D01*
X161334727Y-120648320D01*
X161073574Y-120540147D01*
X160796335Y-120485000D01*
X160513665Y-120485000D01*
X160331114Y-120521312D01*
X157838656Y-118028854D01*
X158372285Y-118135000D01*
X159127715Y-118135000D01*
X159868628Y-117987623D01*
X160566554Y-117698533D01*
X161194670Y-117278839D01*
X161728839Y-116744670D01*
X162148533Y-116116554D01*
X162437623Y-115418628D01*
X162510001Y-115054761D01*
X162510000Y-170146497D01*
X162510000Y-170146497D01*
G37*
X162510000Y-170146497D02*
X162483543Y-170416327D01*
X162414908Y-170643656D01*
X162303428Y-170853320D01*
X162153343Y-171037341D01*
X161970380Y-171188701D01*
X161761493Y-171301646D01*
X161534653Y-171371865D01*
X161266966Y-171400000D01*
X129573503Y-171400000D01*
X129303673Y-171373543D01*
X129076344Y-171304908D01*
X128866680Y-171193428D01*
X128682659Y-171043343D01*
X128531299Y-170860380D01*
X128418354Y-170651493D01*
X128348135Y-170424653D01*
X128320000Y-170156966D01*
X128320000Y-166627285D01*
X128880000Y-166627285D01*
X128880000Y-167382715D01*
X129027377Y-168123628D01*
X129316467Y-168821554D01*
X129736161Y-169449670D01*
X130270330Y-169983839D01*
X130898446Y-170403533D01*
X131596372Y-170692623D01*
X132337285Y-170840000D01*
X133092715Y-170840000D01*
X133833628Y-170692623D01*
X134531554Y-170403533D01*
X135159670Y-169983839D01*
X135693839Y-169449670D01*
X136113533Y-168821554D01*
X136402623Y-168123628D01*
X136550000Y-167382715D01*
X136550000Y-166627285D01*
X136402623Y-165886372D01*
X136284176Y-165600413D01*
X141284192Y-165600413D01*
X141379956Y-165864814D01*
X141669571Y-166005704D01*
X141981108Y-166087384D01*
X142302595Y-166106718D01*
X142621675Y-166062961D01*
X142926088Y-165957795D01*
X143100044Y-165864814D01*
X143195808Y-165600413D01*
X147784192Y-165600413D01*
X147879956Y-165864814D01*
X148169571Y-166005704D01*
X148481108Y-166087384D01*
X148802595Y-166106718D01*
X149121675Y-166062961D01*
X149426088Y-165957795D01*
X149600044Y-165864814D01*
X149695808Y-165600413D01*
X148740000Y-164644605D01*
X147784192Y-165600413D01*
X143195808Y-165600413D01*
X142240000Y-164644605D01*
X141284192Y-165600413D01*
X136284176Y-165600413D01*
X136113533Y-165188446D01*
X135693839Y-164560330D01*
X135661104Y-164527595D01*
X140598282Y-164527595D01*
X140642039Y-164846675D01*
X140747205Y-165151088D01*
X140840186Y-165325044D01*
X141104587Y-165420808D01*
X142060395Y-164465000D01*
X142419605Y-164465000D01*
X143375413Y-165420808D01*
X143639814Y-165325044D01*
X143780704Y-165035429D01*
X143862384Y-164723892D01*
X143874189Y-164527595D01*
X147098282Y-164527595D01*
X147142039Y-164846675D01*
X147247205Y-165151088D01*
X147340186Y-165325044D01*
X147604587Y-165420808D01*
X148560395Y-164465000D01*
X148919605Y-164465000D01*
X149875413Y-165420808D01*
X150139814Y-165325044D01*
X150280704Y-165035429D01*
X150362384Y-164723892D01*
X150381718Y-164402405D01*
X150337961Y-164083325D01*
X150232795Y-163778912D01*
X150139814Y-163604956D01*
X149875413Y-163509192D01*
X148919605Y-164465000D01*
X148560395Y-164465000D01*
X147604587Y-163509192D01*
X147340186Y-163604956D01*
X147199296Y-163894571D01*
X147117616Y-164206108D01*
X147098282Y-164527595D01*
X143874189Y-164527595D01*
X143881718Y-164402405D01*
X143837961Y-164083325D01*
X143732795Y-163778912D01*
X143639814Y-163604956D01*
X143375413Y-163509192D01*
X142419605Y-164465000D01*
X142060395Y-164465000D01*
X141104587Y-163509192D01*
X140840186Y-163604956D01*
X140699296Y-163894571D01*
X140617616Y-164206108D01*
X140598282Y-164527595D01*
X135661104Y-164527595D01*
X135159670Y-164026161D01*
X134531554Y-163606467D01*
X133863106Y-163329587D01*
X141284192Y-163329587D01*
X142240000Y-164285395D01*
X143195808Y-163329587D01*
X147784192Y-163329587D01*
X148740000Y-164285395D01*
X149695808Y-163329587D01*
X149600044Y-163065186D01*
X149310429Y-162924296D01*
X148998892Y-162842616D01*
X148677405Y-162823282D01*
X148358325Y-162867039D01*
X148053912Y-162972205D01*
X147879956Y-163065186D01*
X147784192Y-163329587D01*
X143195808Y-163329587D01*
X143100044Y-163065186D01*
X142810429Y-162924296D01*
X142498892Y-162842616D01*
X142177405Y-162823282D01*
X141858325Y-162867039D01*
X141553912Y-162972205D01*
X141379956Y-163065186D01*
X141284192Y-163329587D01*
X133863106Y-163329587D01*
X133833628Y-163317377D01*
X133092715Y-163170000D01*
X132337285Y-163170000D01*
X131596372Y-163317377D01*
X130898446Y-163606467D01*
X130270330Y-164026161D01*
X129736161Y-164560330D01*
X129316467Y-165188446D01*
X129027377Y-165886372D01*
X128880000Y-166627285D01*
X128320000Y-166627285D01*
X128320000Y-154163665D01*
X128740000Y-154163665D01*
X128740000Y-154446335D01*
X128795147Y-154723574D01*
X128903320Y-154984727D01*
X129060363Y-155219759D01*
X129260241Y-155419637D01*
X129495273Y-155576680D01*
X129756426Y-155684853D01*
X130033665Y-155740000D01*
X130316335Y-155740000D01*
X130593574Y-155684853D01*
X130854727Y-155576680D01*
X131089759Y-155419637D01*
X131289637Y-155219759D01*
X131446680Y-154984727D01*
X131554853Y-154723574D01*
X131610000Y-154446335D01*
X131610000Y-154163665D01*
X131554853Y-153886426D01*
X131446680Y-153625273D01*
X131289637Y-153390241D01*
X131089759Y-153190363D01*
X130854727Y-153033320D01*
X130593574Y-152925147D01*
X130316335Y-152870000D01*
X130033665Y-152870000D01*
X129756426Y-152925147D01*
X129495273Y-153033320D01*
X129260241Y-153190363D01*
X129060363Y-153390241D01*
X128903320Y-153625273D01*
X128795147Y-153886426D01*
X128740000Y-154163665D01*
X128320000Y-154163665D01*
X128320000Y-143368665D01*
X128740000Y-143368665D01*
X128740000Y-143651335D01*
X128795147Y-143928574D01*
X128903320Y-144189727D01*
X129060363Y-144424759D01*
X129260241Y-144624637D01*
X129495273Y-144781680D01*
X129756426Y-144889853D01*
X130033665Y-144945000D01*
X130316335Y-144945000D01*
X130593574Y-144889853D01*
X130854727Y-144781680D01*
X131089759Y-144624637D01*
X131289637Y-144424759D01*
X131446680Y-144189727D01*
X131554853Y-143928574D01*
X131610000Y-143651335D01*
X131610000Y-143368665D01*
X131554853Y-143091426D01*
X131446680Y-142830273D01*
X131289637Y-142595241D01*
X131089759Y-142395363D01*
X130854727Y-142238320D01*
X130593574Y-142130147D01*
X130316335Y-142075000D01*
X130033665Y-142075000D01*
X129756426Y-142130147D01*
X129495273Y-142238320D01*
X129260241Y-142395363D01*
X129060363Y-142595241D01*
X128903320Y-142830273D01*
X128795147Y-143091426D01*
X128740000Y-143368665D01*
X128320000Y-143368665D01*
X128320000Y-140335000D01*
X128733057Y-140335000D01*
X128760764Y-140616309D01*
X128842818Y-140886808D01*
X128976068Y-141136101D01*
X129155392Y-141354608D01*
X129373899Y-141533932D01*
X129623192Y-141667182D01*
X129893691Y-141749236D01*
X130104508Y-141770000D01*
X130245492Y-141770000D01*
X130456309Y-141749236D01*
X130726808Y-141667182D01*
X130976101Y-141533932D01*
X131194608Y-141354608D01*
X131373932Y-141136101D01*
X131507182Y-140886808D01*
X131589236Y-140616309D01*
X131616943Y-140335000D01*
X131589236Y-140053691D01*
X131507182Y-139783192D01*
X131373932Y-139533899D01*
X131194608Y-139315392D01*
X130976101Y-139136068D01*
X130726808Y-139002818D01*
X130456309Y-138920764D01*
X130245492Y-138900000D01*
X130104508Y-138900000D01*
X129893691Y-138920764D01*
X129623192Y-139002818D01*
X129373899Y-139136068D01*
X129155392Y-139315392D01*
X128976068Y-139533899D01*
X128842818Y-139783192D01*
X128760764Y-140053691D01*
X128733057Y-140335000D01*
X128320000Y-140335000D01*
X128320000Y-132573665D01*
X128740000Y-132573665D01*
X128740000Y-132856335D01*
X128795147Y-133133574D01*
X128903320Y-133394727D01*
X129060363Y-133629759D01*
X129260241Y-133829637D01*
X129495273Y-133986680D01*
X129756426Y-134094853D01*
X130033665Y-134150000D01*
X130316335Y-134150000D01*
X130593574Y-134094853D01*
X130854727Y-133986680D01*
X131089759Y-133829637D01*
X131289637Y-133629759D01*
X131446680Y-133394727D01*
X131554853Y-133133574D01*
X131610000Y-132856335D01*
X131610000Y-132573665D01*
X131554853Y-132296426D01*
X131446680Y-132035273D01*
X131289637Y-131800241D01*
X131089759Y-131600363D01*
X130854727Y-131443320D01*
X130593574Y-131335147D01*
X130316335Y-131280000D01*
X130033665Y-131280000D01*
X129756426Y-131335147D01*
X129495273Y-131443320D01*
X129260241Y-131600363D01*
X129060363Y-131800241D01*
X128903320Y-132035273D01*
X128795147Y-132296426D01*
X128740000Y-132573665D01*
X128320000Y-132573665D01*
X128320000Y-115054765D01*
X128392377Y-115418628D01*
X128681467Y-116116554D01*
X129101161Y-116744670D01*
X129635330Y-117278839D01*
X130263446Y-117698533D01*
X130961372Y-117987623D01*
X131702285Y-118135000D01*
X132457715Y-118135000D01*
X132991344Y-118028854D01*
X130498887Y-120521312D01*
X130316335Y-120485000D01*
X130033665Y-120485000D01*
X129756426Y-120540147D01*
X129495273Y-120648320D01*
X129260241Y-120805363D01*
X129060363Y-121005241D01*
X128903320Y-121240273D01*
X128795147Y-121501426D01*
X128740000Y-121778665D01*
X128740000Y-122061335D01*
X128795147Y-122338574D01*
X128903320Y-122599727D01*
X129060363Y-122834759D01*
X129260241Y-123034637D01*
X129495273Y-123191680D01*
X129756426Y-123299853D01*
X130033665Y-123355000D01*
X130316335Y-123355000D01*
X130593574Y-123299853D01*
X130854727Y-123191680D01*
X131089759Y-123034637D01*
X131289637Y-122834759D01*
X131446680Y-122599727D01*
X131554853Y-122338574D01*
X131610000Y-122061335D01*
X131610000Y-121778665D01*
X131573688Y-121596113D01*
X136387801Y-116782001D01*
X136577890Y-116782001D01*
X136556995Y-116813273D01*
X136451686Y-117067510D01*
X136398000Y-117337408D01*
X136398000Y-117612592D01*
X136451686Y-117882490D01*
X136556995Y-118136727D01*
X136709880Y-118365535D01*
X136904465Y-118560120D01*
X137133273Y-118713005D01*
X137210515Y-118745000D01*
X137133273Y-118776995D01*
X136904465Y-118929880D01*
X136709880Y-119124465D01*
X136556995Y-119353273D01*
X136451686Y-119607510D01*
X136398000Y-119877408D01*
X136398000Y-120152592D01*
X136451686Y-120422490D01*
X136556995Y-120676727D01*
X136709880Y-120905535D01*
X136904465Y-121100120D01*
X137133273Y-121253005D01*
X137210515Y-121285000D01*
X137133273Y-121316995D01*
X136904465Y-121469880D01*
X136709880Y-121664465D01*
X136556995Y-121893273D01*
X136451686Y-122147510D01*
X136398000Y-122417408D01*
X136398000Y-122692592D01*
X136451686Y-122962490D01*
X136556995Y-123216727D01*
X136577890Y-123247999D01*
X135744324Y-123247999D01*
X135707001Y-123244323D01*
X135669678Y-123247999D01*
X135669668Y-123247999D01*
X135558015Y-123258996D01*
X135414754Y-123302453D01*
X135282725Y-123373025D01*
X135167000Y-123467998D01*
X135143202Y-123496996D01*
X130500906Y-128139292D01*
X130456309Y-128125764D01*
X130245492Y-128105000D01*
X130104508Y-128105000D01*
X129893691Y-128125764D01*
X129623192Y-128207818D01*
X129373899Y-128341068D01*
X129155392Y-128520392D01*
X128976068Y-128738899D01*
X128842818Y-128988192D01*
X128760764Y-129258691D01*
X128733057Y-129540000D01*
X128760764Y-129821309D01*
X128842818Y-130091808D01*
X128976068Y-130341101D01*
X129155392Y-130559608D01*
X129373899Y-130738932D01*
X129623192Y-130872182D01*
X129893691Y-130954236D01*
X130104508Y-130975000D01*
X130245492Y-130975000D01*
X130456309Y-130954236D01*
X130726808Y-130872182D01*
X130976101Y-130738932D01*
X131194608Y-130559608D01*
X131373932Y-130341101D01*
X131507182Y-130091808D01*
X131589236Y-129821309D01*
X131616943Y-129540000D01*
X131589236Y-129258691D01*
X131575708Y-129214094D01*
X136021803Y-124767999D01*
X136435676Y-124767999D01*
X136398000Y-124957408D01*
X136398000Y-125232592D01*
X136428628Y-125386571D01*
X136196997Y-125618202D01*
X136167999Y-125642000D01*
X136144201Y-125670998D01*
X136144200Y-125670999D01*
X136073025Y-125757725D01*
X136002453Y-125889755D01*
X135958997Y-126033016D01*
X135944323Y-126182001D01*
X135948000Y-126219333D01*
X135947999Y-144282199D01*
X130500907Y-149729292D01*
X130456309Y-149715764D01*
X130245492Y-149695000D01*
X130104508Y-149695000D01*
X129893691Y-149715764D01*
X129623192Y-149797818D01*
X129373899Y-149931068D01*
X129155392Y-150110392D01*
X128976068Y-150328899D01*
X128842818Y-150578192D01*
X128760764Y-150848691D01*
X128733057Y-151130000D01*
X128760764Y-151411309D01*
X128842818Y-151681808D01*
X128976068Y-151931101D01*
X129155392Y-152149608D01*
X129373899Y-152328932D01*
X129623192Y-152462182D01*
X129893691Y-152544236D01*
X130104508Y-152565000D01*
X130245492Y-152565000D01*
X130456309Y-152544236D01*
X130726808Y-152462182D01*
X130976101Y-152328932D01*
X131194608Y-152149608D01*
X131373932Y-151931101D01*
X131507182Y-151681808D01*
X131589236Y-151411309D01*
X131616943Y-151130000D01*
X131589236Y-150848691D01*
X131575708Y-150804093D01*
X137219003Y-145160799D01*
X137248000Y-145137002D01*
X137342973Y-145021277D01*
X137413545Y-144889248D01*
X137457002Y-144745987D01*
X137467999Y-144634334D01*
X137467999Y-144634326D01*
X137471675Y-144597001D01*
X137467999Y-144559676D01*
X137467999Y-144234324D01*
X137657408Y-144272000D01*
X137932592Y-144272000D01*
X138202490Y-144218314D01*
X138456727Y-144113005D01*
X138572010Y-144035975D01*
X138572010Y-152018012D01*
X136763309Y-152018012D01*
X136725986Y-152014336D01*
X136688663Y-152018012D01*
X136688653Y-152018012D01*
X136577000Y-152029009D01*
X136433739Y-152072466D01*
X136301710Y-152143038D01*
X136185985Y-152238011D01*
X136162187Y-152267009D01*
X130463997Y-157965200D01*
X130434999Y-157988998D01*
X130411201Y-158017996D01*
X130411200Y-158017997D01*
X130340025Y-158104723D01*
X130269453Y-158236753D01*
X130267008Y-158244814D01*
X130225997Y-158380013D01*
X130222338Y-158417168D01*
X130211323Y-158528999D01*
X130215000Y-158566331D01*
X130214999Y-160490000D01*
X130104508Y-160490000D01*
X129893691Y-160510764D01*
X129623192Y-160592818D01*
X129373899Y-160726068D01*
X129155392Y-160905392D01*
X128976068Y-161123899D01*
X128842818Y-161373192D01*
X128760764Y-161643691D01*
X128733057Y-161925000D01*
X128760764Y-162206309D01*
X128842818Y-162476808D01*
X128976068Y-162726101D01*
X129155392Y-162944608D01*
X129373899Y-163123932D01*
X129623192Y-163257182D01*
X129893691Y-163339236D01*
X130104508Y-163360000D01*
X130245492Y-163360000D01*
X130456309Y-163339236D01*
X130726808Y-163257182D01*
X130976101Y-163123932D01*
X131194608Y-162944608D01*
X131373932Y-162726101D01*
X131507182Y-162476808D01*
X131589236Y-162206309D01*
X131616943Y-161925000D01*
X131589236Y-161643691D01*
X131573922Y-161593206D01*
X131609972Y-161549278D01*
X131609973Y-161549277D01*
X131680545Y-161417248D01*
X131724002Y-161273987D01*
X131732868Y-161183967D01*
X132985000Y-161183967D01*
X132985000Y-161506033D01*
X133047832Y-161821912D01*
X133171082Y-162119463D01*
X133350013Y-162387252D01*
X133577748Y-162614987D01*
X133845537Y-162793918D01*
X134143088Y-162917168D01*
X134458967Y-162980000D01*
X134781033Y-162980000D01*
X135096912Y-162917168D01*
X135111721Y-162911034D01*
X135195722Y-162979973D01*
X135327752Y-163050545D01*
X135471013Y-163094002D01*
X135582666Y-163104999D01*
X135582675Y-163104999D01*
X135619998Y-163108675D01*
X135657321Y-163104999D01*
X140082679Y-163104999D01*
X140120001Y-163108675D01*
X140157323Y-163104999D01*
X140157334Y-163104999D01*
X140268987Y-163094002D01*
X140412248Y-163050545D01*
X140544277Y-162979973D01*
X140628279Y-162911034D01*
X140643088Y-162917168D01*
X140958967Y-162980000D01*
X141281033Y-162980000D01*
X141596912Y-162917168D01*
X141894463Y-162793918D01*
X142162252Y-162614987D01*
X142296826Y-162480413D01*
X148904192Y-162480413D01*
X148999956Y-162744814D01*
X149289571Y-162885704D01*
X149601108Y-162967384D01*
X149922595Y-162986718D01*
X150241675Y-162942961D01*
X150546088Y-162837795D01*
X150720044Y-162744814D01*
X150815808Y-162480413D01*
X149860000Y-161524605D01*
X148904192Y-162480413D01*
X142296826Y-162480413D01*
X142389987Y-162387252D01*
X142568918Y-162119463D01*
X142692168Y-161821912D01*
X142755000Y-161506033D01*
X142755000Y-161407595D01*
X148218282Y-161407595D01*
X148262039Y-161726675D01*
X148367205Y-162031088D01*
X148460186Y-162205044D01*
X148724587Y-162300808D01*
X149680395Y-161345000D01*
X150039605Y-161345000D01*
X150995413Y-162300808D01*
X151259814Y-162205044D01*
X151400704Y-161915429D01*
X151482384Y-161603892D01*
X151501718Y-161282405D01*
X151457961Y-160963325D01*
X151352795Y-160658912D01*
X151259814Y-160484956D01*
X150995413Y-160389192D01*
X150039605Y-161345000D01*
X149680395Y-161345000D01*
X148724587Y-160389192D01*
X148460186Y-160484956D01*
X148319296Y-160774571D01*
X148237616Y-161086108D01*
X148218282Y-161407595D01*
X142755000Y-161407595D01*
X142755000Y-161183967D01*
X142692168Y-160868088D01*
X142568918Y-160570537D01*
X142389987Y-160302748D01*
X142296826Y-160209587D01*
X148904192Y-160209587D01*
X149860000Y-161165395D01*
X150815808Y-160209587D01*
X150720044Y-159945186D01*
X150430429Y-159804296D01*
X150118892Y-159722616D01*
X149797405Y-159703282D01*
X149478325Y-159747039D01*
X149173912Y-159852205D01*
X148999956Y-159945186D01*
X148904192Y-160209587D01*
X142296826Y-160209587D01*
X142162252Y-160075013D01*
X141894463Y-159896082D01*
X141596912Y-159772832D01*
X141281033Y-159710000D01*
X140958967Y-159710000D01*
X140643088Y-159772832D01*
X140345537Y-159896082D01*
X140077748Y-160075013D01*
X139850013Y-160302748D01*
X139671082Y-160570537D01*
X139547832Y-160868088D01*
X139485000Y-161183967D01*
X139485000Y-161506033D01*
X139500707Y-161584999D01*
X136239293Y-161584999D01*
X136255000Y-161506033D01*
X136255000Y-161183967D01*
X136192168Y-160868088D01*
X136068918Y-160570537D01*
X135889987Y-160302748D01*
X135662252Y-160075013D01*
X135394463Y-159896082D01*
X135096912Y-159772832D01*
X134781033Y-159710000D01*
X134458967Y-159710000D01*
X134143088Y-159772832D01*
X133845537Y-159896082D01*
X133577748Y-160075013D01*
X133350013Y-160302748D01*
X133171082Y-160570537D01*
X133047832Y-160868088D01*
X132985000Y-161183967D01*
X131732868Y-161183967D01*
X131734999Y-161162334D01*
X131734999Y-161162325D01*
X131738675Y-161125002D01*
X131734999Y-161087679D01*
X131734999Y-158843800D01*
X132598386Y-157980413D01*
X133664192Y-157980413D01*
X133759956Y-158244814D01*
X134049571Y-158385704D01*
X134361108Y-158467384D01*
X134682595Y-158486718D01*
X135001675Y-158442961D01*
X135306088Y-158337795D01*
X135480044Y-158244814D01*
X135575808Y-157980413D01*
X140164192Y-157980413D01*
X140259956Y-158244814D01*
X140549571Y-158385704D01*
X140861108Y-158467384D01*
X141182595Y-158486718D01*
X141501675Y-158442961D01*
X141806088Y-158337795D01*
X141980044Y-158244814D01*
X142075808Y-157980413D01*
X141120000Y-157024605D01*
X140164192Y-157980413D01*
X135575808Y-157980413D01*
X134620000Y-157024605D01*
X133664192Y-157980413D01*
X132598386Y-157980413D01*
X133106794Y-157472006D01*
X133127205Y-157531088D01*
X133220186Y-157705044D01*
X133484587Y-157800808D01*
X134440395Y-156845000D01*
X134799605Y-156845000D01*
X135755413Y-157800808D01*
X136019814Y-157705044D01*
X136160704Y-157415429D01*
X136242384Y-157103892D01*
X136254189Y-156907595D01*
X139478282Y-156907595D01*
X139522039Y-157226675D01*
X139627205Y-157531088D01*
X139720186Y-157705044D01*
X139984587Y-157800808D01*
X140940395Y-156845000D01*
X139984587Y-155889192D01*
X139720186Y-155984956D01*
X139579296Y-156274571D01*
X139497616Y-156586108D01*
X139478282Y-156907595D01*
X136254189Y-156907595D01*
X136261718Y-156782405D01*
X136217961Y-156463325D01*
X136112795Y-156158912D01*
X136019814Y-155984956D01*
X135755413Y-155889192D01*
X134799605Y-156845000D01*
X134440395Y-156845000D01*
X134426253Y-156830858D01*
X134605858Y-156651253D01*
X134620000Y-156665395D01*
X135575808Y-155709587D01*
X135480044Y-155445186D01*
X135246989Y-155331811D01*
X137040788Y-153538012D01*
X139017209Y-153538012D01*
X140729340Y-155250143D01*
X140433912Y-155352205D01*
X140259956Y-155445186D01*
X140164192Y-155709587D01*
X141120000Y-156665395D01*
X141134143Y-156651253D01*
X141313748Y-156830858D01*
X141299605Y-156845000D01*
X142255413Y-157800808D01*
X142519814Y-157705044D01*
X142660704Y-157415429D01*
X142709295Y-157230099D01*
X142835199Y-157356003D01*
X142858997Y-157385001D01*
X142887995Y-157408799D01*
X142974722Y-157479974D01*
X143106751Y-157550546D01*
X143250012Y-157594003D01*
X143398998Y-157608677D01*
X143436331Y-157605000D01*
X148405091Y-157605000D01*
X148411082Y-157619463D01*
X148590013Y-157887252D01*
X148817748Y-158114987D01*
X149085537Y-158293918D01*
X149383088Y-158417168D01*
X149698967Y-158480000D01*
X150021033Y-158480000D01*
X150336912Y-158417168D01*
X150634463Y-158293918D01*
X150902252Y-158114987D01*
X151129987Y-157887252D01*
X151308918Y-157619463D01*
X151314909Y-157605000D01*
X154905091Y-157605000D01*
X154911082Y-157619463D01*
X155090013Y-157887252D01*
X155317748Y-158114987D01*
X155585537Y-158293918D01*
X155883088Y-158417168D01*
X156190818Y-158478379D01*
X153158998Y-161510199D01*
X153130000Y-161533997D01*
X153106202Y-161562995D01*
X153106201Y-161562996D01*
X153035026Y-161649722D01*
X152964454Y-161781752D01*
X152941931Y-161856003D01*
X152922300Y-161920722D01*
X152920998Y-161925013D01*
X152906324Y-162073998D01*
X152910001Y-162111330D01*
X152910000Y-163720198D01*
X149231376Y-167398823D01*
X149216912Y-167392832D01*
X148901033Y-167330000D01*
X148578967Y-167330000D01*
X148263088Y-167392832D01*
X147965537Y-167516082D01*
X147697748Y-167695013D01*
X147470013Y-167922748D01*
X147291082Y-168190537D01*
X147285091Y-168205000D01*
X143694909Y-168205000D01*
X143688918Y-168190537D01*
X143509987Y-167922748D01*
X143282252Y-167695013D01*
X143014463Y-167516082D01*
X142716912Y-167392832D01*
X142401033Y-167330000D01*
X142078967Y-167330000D01*
X141763088Y-167392832D01*
X141465537Y-167516082D01*
X141197748Y-167695013D01*
X140970013Y-167922748D01*
X140791082Y-168190537D01*
X140667832Y-168488088D01*
X140605000Y-168803967D01*
X140605000Y-169126033D01*
X140667832Y-169441912D01*
X140791082Y-169739463D01*
X140970013Y-170007252D01*
X141197748Y-170234987D01*
X141465537Y-170413918D01*
X141763088Y-170537168D01*
X142078967Y-170600000D01*
X142401033Y-170600000D01*
X142716912Y-170537168D01*
X143014463Y-170413918D01*
X143282252Y-170234987D01*
X143509987Y-170007252D01*
X143688918Y-169739463D01*
X143694909Y-169725000D01*
X147285091Y-169725000D01*
X147291082Y-169739463D01*
X147470013Y-170007252D01*
X147697748Y-170234987D01*
X147965537Y-170413918D01*
X148263088Y-170537168D01*
X148578967Y-170600000D01*
X148901033Y-170600000D01*
X149216912Y-170537168D01*
X149514463Y-170413918D01*
X149782252Y-170234987D01*
X150009987Y-170007252D01*
X150188918Y-169739463D01*
X150312168Y-169441912D01*
X150375000Y-169126033D01*
X150375000Y-168803967D01*
X150312168Y-168488088D01*
X150306177Y-168473624D01*
X152152516Y-166627285D01*
X154280000Y-166627285D01*
X154280000Y-167382715D01*
X154427377Y-168123628D01*
X154716467Y-168821554D01*
X155136161Y-169449670D01*
X155670330Y-169983839D01*
X156298446Y-170403533D01*
X156996372Y-170692623D01*
X157737285Y-170840000D01*
X158492715Y-170840000D01*
X159233628Y-170692623D01*
X159931554Y-170403533D01*
X160559670Y-169983839D01*
X161093839Y-169449670D01*
X161513533Y-168821554D01*
X161802623Y-168123628D01*
X161950000Y-167382715D01*
X161950000Y-166627285D01*
X161802623Y-165886372D01*
X161513533Y-165188446D01*
X161093839Y-164560330D01*
X160559670Y-164026161D01*
X159931554Y-163606467D01*
X159233628Y-163317377D01*
X158492715Y-163170000D01*
X157737285Y-163170000D01*
X156996372Y-163317377D01*
X156298446Y-163606467D01*
X155670330Y-164026161D01*
X155136161Y-164560330D01*
X154716467Y-165188446D01*
X154427377Y-165886372D01*
X154280000Y-166627285D01*
X152152516Y-166627285D01*
X154181004Y-164598798D01*
X154210001Y-164575001D01*
X154304974Y-164459276D01*
X154375546Y-164327247D01*
X154419003Y-164183986D01*
X154430000Y-164072333D01*
X154430000Y-164072323D01*
X154433676Y-164035000D01*
X154430000Y-163997677D01*
X154430000Y-162480413D01*
X155404192Y-162480413D01*
X155499956Y-162744814D01*
X155789571Y-162885704D01*
X156101108Y-162967384D01*
X156422595Y-162986718D01*
X156741675Y-162942961D01*
X157046088Y-162837795D01*
X157220044Y-162744814D01*
X157315808Y-162480413D01*
X156360000Y-161524605D01*
X155404192Y-162480413D01*
X154430000Y-162480413D01*
X154430000Y-162388799D01*
X154846794Y-161972005D01*
X154867205Y-162031088D01*
X154960186Y-162205044D01*
X155224587Y-162300808D01*
X156180395Y-161345000D01*
X156539605Y-161345000D01*
X157495413Y-162300808D01*
X157759814Y-162205044D01*
X157896047Y-161925000D01*
X159213057Y-161925000D01*
X159240764Y-162206309D01*
X159322818Y-162476808D01*
X159456068Y-162726101D01*
X159635392Y-162944608D01*
X159853899Y-163123932D01*
X160103192Y-163257182D01*
X160373691Y-163339236D01*
X160584508Y-163360000D01*
X160725492Y-163360000D01*
X160936309Y-163339236D01*
X161206808Y-163257182D01*
X161456101Y-163123932D01*
X161674608Y-162944608D01*
X161853932Y-162726101D01*
X161987182Y-162476808D01*
X162069236Y-162206309D01*
X162096943Y-161925000D01*
X162069236Y-161643691D01*
X161987182Y-161373192D01*
X161853932Y-161123899D01*
X161674608Y-160905392D01*
X161456101Y-160726068D01*
X161206808Y-160592818D01*
X160936309Y-160510764D01*
X160725492Y-160490000D01*
X160584508Y-160490000D01*
X160373691Y-160510764D01*
X160103192Y-160592818D01*
X159853899Y-160726068D01*
X159635392Y-160905392D01*
X159456068Y-161123899D01*
X159322818Y-161373192D01*
X159240764Y-161643691D01*
X159213057Y-161925000D01*
X157896047Y-161925000D01*
X157900704Y-161915429D01*
X157982384Y-161603892D01*
X158001718Y-161282405D01*
X157957961Y-160963325D01*
X157852795Y-160658912D01*
X157759814Y-160484956D01*
X157495413Y-160389192D01*
X156539605Y-161345000D01*
X156180395Y-161345000D01*
X156166253Y-161330858D01*
X156345858Y-161151253D01*
X156360000Y-161165395D01*
X157315808Y-160209587D01*
X157220044Y-159945186D01*
X156986989Y-159831811D01*
X160041003Y-156777797D01*
X160070000Y-156754000D01*
X160127475Y-156683967D01*
X160164973Y-156638276D01*
X160235545Y-156506246D01*
X160261487Y-156420724D01*
X160279002Y-156362985D01*
X160289999Y-156251332D01*
X160289999Y-156251323D01*
X160293675Y-156214000D01*
X160289999Y-156176677D01*
X160289999Y-155695509D01*
X160513665Y-155740000D01*
X160796335Y-155740000D01*
X161073574Y-155684853D01*
X161334727Y-155576680D01*
X161569759Y-155419637D01*
X161769637Y-155219759D01*
X161926680Y-154984727D01*
X162034853Y-154723574D01*
X162090000Y-154446335D01*
X162090000Y-154163665D01*
X162034853Y-153886426D01*
X161926680Y-153625273D01*
X161769637Y-153390241D01*
X161569759Y-153190363D01*
X161334727Y-153033320D01*
X161073574Y-152925147D01*
X160796335Y-152870000D01*
X160513665Y-152870000D01*
X160289999Y-152914491D01*
X160289999Y-152520509D01*
X160513665Y-152565000D01*
X160796335Y-152565000D01*
X161073574Y-152509853D01*
X161334727Y-152401680D01*
X161569759Y-152244637D01*
X161769637Y-152044759D01*
X161926680Y-151809727D01*
X162034853Y-151548574D01*
X162090000Y-151271335D01*
X162090000Y-150988665D01*
X162034853Y-150711426D01*
X161926680Y-150450273D01*
X161769637Y-150215241D01*
X161569759Y-150015363D01*
X161334727Y-149858320D01*
X161073574Y-149750147D01*
X160796335Y-149695000D01*
X160513665Y-149695000D01*
X160289999Y-149739491D01*
X160289999Y-144949802D01*
X160329093Y-144910708D01*
X160373691Y-144924236D01*
X160584508Y-144945000D01*
X160725492Y-144945000D01*
X160936309Y-144924236D01*
X161206808Y-144842182D01*
X161456101Y-144708932D01*
X161674608Y-144529608D01*
X161853932Y-144311101D01*
X161987182Y-144061808D01*
X162069236Y-143791309D01*
X162096943Y-143510000D01*
X162069236Y-143228691D01*
X161987182Y-142958192D01*
X161853932Y-142708899D01*
X161674608Y-142490392D01*
X161456101Y-142311068D01*
X161409573Y-142286198D01*
X161404003Y-142229644D01*
X161360546Y-142086383D01*
X161289974Y-141954354D01*
X161195001Y-141838629D01*
X161166003Y-141814831D01*
X161067277Y-141716105D01*
X161073574Y-141714853D01*
X161334727Y-141606680D01*
X161569759Y-141449637D01*
X161769637Y-141249759D01*
X161926680Y-141014727D01*
X162034853Y-140753574D01*
X162090000Y-140476335D01*
X162090000Y-140193665D01*
X162034853Y-139916426D01*
X161926680Y-139655273D01*
X161769637Y-139420241D01*
X161569759Y-139220363D01*
X161334727Y-139063320D01*
X161073574Y-138955147D01*
X160796335Y-138900000D01*
X160513665Y-138900000D01*
X160236426Y-138955147D01*
X159975273Y-139063320D01*
X159740241Y-139220363D01*
X159540363Y-139420241D01*
X159383320Y-139655273D01*
X159275147Y-139916426D01*
X159273894Y-139922723D01*
X154882001Y-135530830D01*
X154882001Y-128016802D01*
X159254292Y-132389094D01*
X159240764Y-132433691D01*
X159213057Y-132715000D01*
X159240764Y-132996309D01*
X159322818Y-133266808D01*
X159456068Y-133516101D01*
X159635392Y-133734608D01*
X159853899Y-133913932D01*
X160103192Y-134047182D01*
X160373691Y-134129236D01*
X160584508Y-134150000D01*
X160725492Y-134150000D01*
X160936309Y-134129236D01*
X161206808Y-134047182D01*
X161456101Y-133913932D01*
X161674608Y-133734608D01*
X161853932Y-133516101D01*
X161987182Y-133266808D01*
X162069236Y-132996309D01*
X162096943Y-132715000D01*
X162069236Y-132433691D01*
X161987182Y-132163192D01*
X161853932Y-131913899D01*
X161674608Y-131695392D01*
X161456101Y-131516068D01*
X161206808Y-131382818D01*
X160936309Y-131300764D01*
X160725492Y-131280000D01*
X160584508Y-131280000D01*
X160373691Y-131300764D01*
X160329094Y-131314292D01*
X158554802Y-129540000D01*
X159213057Y-129540000D01*
X159240764Y-129821309D01*
X159322818Y-130091808D01*
X159456068Y-130341101D01*
X159635392Y-130559608D01*
X159853899Y-130738932D01*
X160103192Y-130872182D01*
X160373691Y-130954236D01*
X160584508Y-130975000D01*
X160725492Y-130975000D01*
X160936309Y-130954236D01*
X161206808Y-130872182D01*
X161456101Y-130738932D01*
X161674608Y-130559608D01*
X161853932Y-130341101D01*
X161987182Y-130091808D01*
X162069236Y-129821309D01*
X162096943Y-129540000D01*
X162069236Y-129258691D01*
X161987182Y-128988192D01*
X161853932Y-128738899D01*
X161674608Y-128520392D01*
X161456101Y-128341068D01*
X161206808Y-128207818D01*
X160936309Y-128125764D01*
X160725492Y-128105000D01*
X160584508Y-128105000D01*
X160373691Y-128125764D01*
X160103192Y-128207818D01*
X159853899Y-128341068D01*
X159635392Y-128520392D01*
X159456068Y-128738899D01*
X159322818Y-128988192D01*
X159240764Y-129258691D01*
X159213057Y-129540000D01*
X158554802Y-129540000D01*
X154882001Y-125867200D01*
X154882001Y-118599323D01*
X154885677Y-118562000D01*
X154882001Y-118524677D01*
X154882001Y-118524668D01*
X154871004Y-118413015D01*
X154827547Y-118269754D01*
X154756975Y-118137725D01*
X154662002Y-118022000D01*
X154632998Y-117998197D01*
X154401372Y-117766571D01*
X154432000Y-117612592D01*
X154432000Y-117337408D01*
X154378314Y-117067510D01*
X154273005Y-116813273D01*
X154120120Y-116584465D01*
X153925535Y-116389880D01*
X153696727Y-116236995D01*
X153619485Y-116205000D01*
X153696727Y-116173005D01*
X153778539Y-116118340D01*
X159256312Y-121596114D01*
X159220000Y-121778665D01*
X159220000Y-122061335D01*
X159275147Y-122338574D01*
X159383320Y-122599727D01*
X159540363Y-122834759D01*
X159740241Y-123034637D01*
X159975273Y-123191680D01*
X160236426Y-123299853D01*
X160513665Y-123355000D01*
X160796335Y-123355000D01*
X161073574Y-123299853D01*
X161334727Y-123191680D01*
X161569759Y-123034637D01*
X161769637Y-122834759D01*
X161926680Y-122599727D01*
X162034853Y-122338574D01*
X162090000Y-122061335D01*
X162090000Y-121778665D01*
X162034853Y-121501426D01*
X161926680Y-121240273D01*
X161769637Y-121005241D01*
X161569759Y-120805363D01*
X161334727Y-120648320D01*
X161073574Y-120540147D01*
X160796335Y-120485000D01*
X160513665Y-120485000D01*
X160331114Y-120521312D01*
X157838656Y-118028854D01*
X158372285Y-118135000D01*
X159127715Y-118135000D01*
X159868628Y-117987623D01*
X160566554Y-117698533D01*
X161194670Y-117278839D01*
X161728839Y-116744670D01*
X162148533Y-116116554D01*
X162437623Y-115418628D01*
X162510001Y-115054761D01*
X162510000Y-170146497D01*
G36*
X151638000Y-117612592D02*
G01*
X151691686Y-117882490D01*
X151796995Y-118136727D01*
X151949880Y-118365535D01*
X152144465Y-118560120D01*
X152373273Y-118713005D01*
X152450515Y-118745000D01*
X152373273Y-118776995D01*
X152144465Y-118929880D01*
X151949880Y-119124465D01*
X151796995Y-119353273D01*
X151691686Y-119607510D01*
X151638000Y-119877408D01*
X151638000Y-120152592D01*
X151691686Y-120422490D01*
X151796995Y-120676727D01*
X151949880Y-120905535D01*
X152144465Y-121100120D01*
X152373273Y-121253005D01*
X152450515Y-121285000D01*
X152373273Y-121316995D01*
X152144465Y-121469880D01*
X151949880Y-121664465D01*
X151796995Y-121893273D01*
X151691686Y-122147510D01*
X151638000Y-122417408D01*
X151638000Y-122692592D01*
X151691686Y-122962490D01*
X151796995Y-123216727D01*
X151949880Y-123445535D01*
X152144465Y-123640120D01*
X152373273Y-123793005D01*
X152450515Y-123825000D01*
X152373273Y-123856995D01*
X152144465Y-124009880D01*
X151949880Y-124204465D01*
X151796995Y-124433273D01*
X151691686Y-124687510D01*
X151638000Y-124957408D01*
X151638000Y-125232592D01*
X151691686Y-125502490D01*
X151796995Y-125756727D01*
X151949880Y-125985535D01*
X152144465Y-126180120D01*
X152373273Y-126333005D01*
X152450515Y-126365000D01*
X152373273Y-126396995D01*
X152144465Y-126549880D01*
X151949880Y-126744465D01*
X151796995Y-126973273D01*
X151691686Y-127227510D01*
X151638000Y-127497408D01*
X151638000Y-127772592D01*
X151691686Y-128042490D01*
X151796995Y-128296727D01*
X151949880Y-128525535D01*
X152144465Y-128720120D01*
X152373273Y-128873005D01*
X152450515Y-128905000D01*
X152373273Y-128936995D01*
X152144465Y-129089880D01*
X151949880Y-129284465D01*
X151796995Y-129513273D01*
X151691686Y-129767510D01*
X151638000Y-130037408D01*
X151638000Y-130312592D01*
X151691686Y-130582490D01*
X151796995Y-130836727D01*
X151949880Y-131065535D01*
X152144465Y-131260120D01*
X152373273Y-131413005D01*
X152450515Y-131445000D01*
X152373273Y-131476995D01*
X152144465Y-131629880D01*
X151949880Y-131824465D01*
X151796995Y-132053273D01*
X151691686Y-132307510D01*
X151638000Y-132577408D01*
X151638000Y-132852592D01*
X151691686Y-133122490D01*
X151796995Y-133376727D01*
X151949880Y-133605535D01*
X152144465Y-133800120D01*
X152373273Y-133953005D01*
X152450515Y-133985000D01*
X152373273Y-134016995D01*
X152144465Y-134169880D01*
X151949880Y-134364465D01*
X151796995Y-134593273D01*
X151691686Y-134847510D01*
X151638000Y-135117408D01*
X151638000Y-135392592D01*
X151691686Y-135662490D01*
X151796995Y-135916727D01*
X151949880Y-136145535D01*
X152144465Y-136340120D01*
X152373273Y-136493005D01*
X152450515Y-136525000D01*
X152373273Y-136556995D01*
X152144465Y-136709880D01*
X151949880Y-136904465D01*
X151796995Y-137133273D01*
X151691686Y-137387510D01*
X151638000Y-137657408D01*
X151638000Y-137932592D01*
X151691686Y-138202490D01*
X151796995Y-138456727D01*
X151949880Y-138685535D01*
X152144465Y-138880120D01*
X152373273Y-139033005D01*
X152450515Y-139065000D01*
X152373273Y-139096995D01*
X152144465Y-139249880D01*
X151949880Y-139444465D01*
X151796995Y-139673273D01*
X151691686Y-139927510D01*
X151638000Y-140197408D01*
X151638000Y-140472592D01*
X151691686Y-140742490D01*
X151796995Y-140996727D01*
X151949880Y-141225535D01*
X152144465Y-141420120D01*
X152373273Y-141573005D01*
X152450515Y-141605000D01*
X152373273Y-141636995D01*
X152144465Y-141789880D01*
X151949880Y-141984465D01*
X151796995Y-142213273D01*
X151691686Y-142467510D01*
X151638000Y-142737408D01*
X151638000Y-143012592D01*
X151691686Y-143282490D01*
X151796995Y-143536727D01*
X151949880Y-143765535D01*
X152144465Y-143960120D01*
X152373273Y-144113005D01*
X152627510Y-144218314D01*
X152897408Y-144272000D01*
X153172592Y-144272000D01*
X153442490Y-144218314D01*
X153696727Y-144113005D01*
X153925535Y-143960120D01*
X154120120Y-143765535D01*
X154273005Y-143536727D01*
X154378314Y-143282490D01*
X154432000Y-143012592D01*
X154432000Y-142737408D01*
X154378314Y-142467510D01*
X154273005Y-142213273D01*
X154120120Y-141984465D01*
X153925535Y-141789880D01*
X153696727Y-141636995D01*
X153619485Y-141605000D01*
X153696727Y-141573005D01*
X153925535Y-141420120D01*
X154120120Y-141225535D01*
X154273005Y-140996727D01*
X154378314Y-140742490D01*
X154432000Y-140472592D01*
X154432000Y-140197408D01*
X154378314Y-139927510D01*
X154273005Y-139673273D01*
X154120120Y-139444465D01*
X153925535Y-139249880D01*
X153696727Y-139096995D01*
X153619485Y-139065000D01*
X153696727Y-139033005D01*
X153925535Y-138880120D01*
X154120120Y-138685535D01*
X154273005Y-138456727D01*
X154378314Y-138202490D01*
X154432000Y-137932592D01*
X154432000Y-137657408D01*
X154378314Y-137387510D01*
X154273005Y-137133273D01*
X154148485Y-136946916D01*
X159666462Y-142464894D01*
X159635392Y-142490392D01*
X159456068Y-142708899D01*
X159322818Y-142958192D01*
X159240764Y-143228691D01*
X159213057Y-143510000D01*
X159240764Y-143791309D01*
X159254292Y-143835907D01*
X159018997Y-144071202D01*
X158989999Y-144095000D01*
X158966201Y-144123998D01*
X158966200Y-144123999D01*
X158895025Y-144210725D01*
X158824453Y-144342755D01*
X158780997Y-144486016D01*
X158766323Y-144635001D01*
X158770000Y-144672333D01*
X158769999Y-155899197D01*
X157993379Y-156675817D01*
X157932168Y-156368088D01*
X157808918Y-156070537D01*
X157629987Y-155802748D01*
X157402252Y-155575013D01*
X157134463Y-155396082D01*
X156836912Y-155272832D01*
X156521033Y-155210000D01*
X156198967Y-155210000D01*
X155883088Y-155272832D01*
X155585537Y-155396082D01*
X155317748Y-155575013D01*
X155090013Y-155802748D01*
X154911082Y-156070537D01*
X154905091Y-156085000D01*
X151314909Y-156085000D01*
X151308918Y-156070537D01*
X151129987Y-155802748D01*
X150902252Y-155575013D01*
X150634463Y-155396082D01*
X150336912Y-155272832D01*
X150021033Y-155210000D01*
X149698967Y-155210000D01*
X149383088Y-155272832D01*
X149085537Y-155396082D01*
X148817748Y-155575013D01*
X148590013Y-155802748D01*
X148411082Y-156070537D01*
X148405091Y-156085000D01*
X143713800Y-156085000D01*
X142864737Y-155235937D01*
X143014463Y-155173918D01*
X143282252Y-154994987D01*
X143509987Y-154767252D01*
X143688918Y-154499463D01*
X143694909Y-154485000D01*
X147285091Y-154485000D01*
X147291082Y-154499463D01*
X147470013Y-154767252D01*
X147697748Y-154994987D01*
X147965537Y-155173918D01*
X148263088Y-155297168D01*
X148578967Y-155360000D01*
X148901033Y-155360000D01*
X149216912Y-155297168D01*
X149514463Y-155173918D01*
X149782252Y-154994987D01*
X150009987Y-154767252D01*
X150188918Y-154499463D01*
X150312168Y-154201912D01*
X150375000Y-153886033D01*
X150375000Y-153563967D01*
X150312168Y-153248088D01*
X150188918Y-152950537D01*
X150009987Y-152682748D01*
X149782252Y-152455013D01*
X149514463Y-152276082D01*
X149216912Y-152152832D01*
X148901033Y-152090000D01*
X148578967Y-152090000D01*
X148263088Y-152152832D01*
X148248624Y-152158823D01*
X148080000Y-151990199D01*
X148080000Y-150722130D01*
X148169571Y-150765704D01*
X148481108Y-150847384D01*
X148802595Y-150866718D01*
X149121675Y-150822961D01*
X149426088Y-150717795D01*
X149600044Y-150624814D01*
X149695808Y-150360413D01*
X148740000Y-149404605D01*
X148725858Y-149418748D01*
X148546253Y-149239143D01*
X148560395Y-149225000D01*
X148919605Y-149225000D01*
X149875413Y-150180808D01*
X150139814Y-150085044D01*
X150280704Y-149795429D01*
X150362384Y-149483892D01*
X150381718Y-149162405D01*
X150337961Y-148843325D01*
X150232795Y-148538912D01*
X150139814Y-148364956D01*
X149875413Y-148269192D01*
X148919605Y-149225000D01*
X148560395Y-149225000D01*
X148546253Y-149210858D01*
X148725858Y-149031253D01*
X148740000Y-149045395D01*
X149695808Y-148089587D01*
X149600044Y-147825186D01*
X149310429Y-147684296D01*
X148998892Y-147602616D01*
X148677405Y-147583282D01*
X148358325Y-147627039D01*
X148080000Y-147723192D01*
X148080000Y-146916817D01*
X148205392Y-147069608D01*
X148423899Y-147248932D01*
X148673192Y-147382182D01*
X148943691Y-147464236D01*
X149154508Y-147485000D01*
X149295492Y-147485000D01*
X149506309Y-147464236D01*
X149776808Y-147382182D01*
X150026101Y-147248932D01*
X150244608Y-147069608D01*
X150423932Y-146851101D01*
X150557182Y-146601808D01*
X150639236Y-146331309D01*
X150666943Y-146050000D01*
X150639236Y-145768691D01*
X150557182Y-145498192D01*
X150423932Y-145248899D01*
X150244608Y-145030392D01*
X150026101Y-144851068D01*
X149776808Y-144717818D01*
X149738581Y-144706222D01*
X150371009Y-144073794D01*
X150400001Y-144050001D01*
X150423795Y-144021008D01*
X150423799Y-144021004D01*
X150494973Y-143934277D01*
X150494974Y-143934276D01*
X150565546Y-143802247D01*
X150609003Y-143658986D01*
X150620000Y-143547333D01*
X150620000Y-143547324D01*
X150623676Y-143510001D01*
X150620000Y-143472678D01*
X150620000Y-118424801D01*
X151638000Y-117406801D01*
X151638000Y-117612592D01*
X151638000Y-117612592D01*
G37*
X151638000Y-117612592D02*
X151691686Y-117882490D01*
X151796995Y-118136727D01*
X151949880Y-118365535D01*
X152144465Y-118560120D01*
X152373273Y-118713005D01*
X152450515Y-118745000D01*
X152373273Y-118776995D01*
X152144465Y-118929880D01*
X151949880Y-119124465D01*
X151796995Y-119353273D01*
X151691686Y-119607510D01*
X151638000Y-119877408D01*
X151638000Y-120152592D01*
X151691686Y-120422490D01*
X151796995Y-120676727D01*
X151949880Y-120905535D01*
X152144465Y-121100120D01*
X152373273Y-121253005D01*
X152450515Y-121285000D01*
X152373273Y-121316995D01*
X152144465Y-121469880D01*
X151949880Y-121664465D01*
X151796995Y-121893273D01*
X151691686Y-122147510D01*
X151638000Y-122417408D01*
X151638000Y-122692592D01*
X151691686Y-122962490D01*
X151796995Y-123216727D01*
X151949880Y-123445535D01*
X152144465Y-123640120D01*
X152373273Y-123793005D01*
X152450515Y-123825000D01*
X152373273Y-123856995D01*
X152144465Y-124009880D01*
X151949880Y-124204465D01*
X151796995Y-124433273D01*
X151691686Y-124687510D01*
X151638000Y-124957408D01*
X151638000Y-125232592D01*
X151691686Y-125502490D01*
X151796995Y-125756727D01*
X151949880Y-125985535D01*
X152144465Y-126180120D01*
X152373273Y-126333005D01*
X152450515Y-126365000D01*
X152373273Y-126396995D01*
X152144465Y-126549880D01*
X151949880Y-126744465D01*
X151796995Y-126973273D01*
X151691686Y-127227510D01*
X151638000Y-127497408D01*
X151638000Y-127772592D01*
X151691686Y-128042490D01*
X151796995Y-128296727D01*
X151949880Y-128525535D01*
X152144465Y-128720120D01*
X152373273Y-128873005D01*
X152450515Y-128905000D01*
X152373273Y-128936995D01*
X152144465Y-129089880D01*
X151949880Y-129284465D01*
X151796995Y-129513273D01*
X151691686Y-129767510D01*
X151638000Y-130037408D01*
X151638000Y-130312592D01*
X151691686Y-130582490D01*
X151796995Y-130836727D01*
X151949880Y-131065535D01*
X152144465Y-131260120D01*
X152373273Y-131413005D01*
X152450515Y-131445000D01*
X152373273Y-131476995D01*
X152144465Y-131629880D01*
X151949880Y-131824465D01*
X151796995Y-132053273D01*
X151691686Y-132307510D01*
X151638000Y-132577408D01*
X151638000Y-132852592D01*
X151691686Y-133122490D01*
X151796995Y-133376727D01*
X151949880Y-133605535D01*
X152144465Y-133800120D01*
X152373273Y-133953005D01*
X152450515Y-133985000D01*
X152373273Y-134016995D01*
X152144465Y-134169880D01*
X151949880Y-134364465D01*
X151796995Y-134593273D01*
X151691686Y-134847510D01*
X151638000Y-135117408D01*
X151638000Y-135392592D01*
X151691686Y-135662490D01*
X151796995Y-135916727D01*
X151949880Y-136145535D01*
X152144465Y-136340120D01*
X152373273Y-136493005D01*
X152450515Y-136525000D01*
X152373273Y-136556995D01*
X152144465Y-136709880D01*
X151949880Y-136904465D01*
X151796995Y-137133273D01*
X151691686Y-137387510D01*
X151638000Y-137657408D01*
X151638000Y-137932592D01*
X151691686Y-138202490D01*
X151796995Y-138456727D01*
X151949880Y-138685535D01*
X152144465Y-138880120D01*
X152373273Y-139033005D01*
X152450515Y-139065000D01*
X152373273Y-139096995D01*
X152144465Y-139249880D01*
X151949880Y-139444465D01*
X151796995Y-139673273D01*
X151691686Y-139927510D01*
X151638000Y-140197408D01*
X151638000Y-140472592D01*
X151691686Y-140742490D01*
X151796995Y-140996727D01*
X151949880Y-141225535D01*
X152144465Y-141420120D01*
X152373273Y-141573005D01*
X152450515Y-141605000D01*
X152373273Y-141636995D01*
X152144465Y-141789880D01*
X151949880Y-141984465D01*
X151796995Y-142213273D01*
X151691686Y-142467510D01*
X151638000Y-142737408D01*
X151638000Y-143012592D01*
X151691686Y-143282490D01*
X151796995Y-143536727D01*
X151949880Y-143765535D01*
X152144465Y-143960120D01*
X152373273Y-144113005D01*
X152627510Y-144218314D01*
X152897408Y-144272000D01*
X153172592Y-144272000D01*
X153442490Y-144218314D01*
X153696727Y-144113005D01*
X153925535Y-143960120D01*
X154120120Y-143765535D01*
X154273005Y-143536727D01*
X154378314Y-143282490D01*
X154432000Y-143012592D01*
X154432000Y-142737408D01*
X154378314Y-142467510D01*
X154273005Y-142213273D01*
X154120120Y-141984465D01*
X153925535Y-141789880D01*
X153696727Y-141636995D01*
X153619485Y-141605000D01*
X153696727Y-141573005D01*
X153925535Y-141420120D01*
X154120120Y-141225535D01*
X154273005Y-140996727D01*
X154378314Y-140742490D01*
X154432000Y-140472592D01*
X154432000Y-140197408D01*
X154378314Y-139927510D01*
X154273005Y-139673273D01*
X154120120Y-139444465D01*
X153925535Y-139249880D01*
X153696727Y-139096995D01*
X153619485Y-139065000D01*
X153696727Y-139033005D01*
X153925535Y-138880120D01*
X154120120Y-138685535D01*
X154273005Y-138456727D01*
X154378314Y-138202490D01*
X154432000Y-137932592D01*
X154432000Y-137657408D01*
X154378314Y-137387510D01*
X154273005Y-137133273D01*
X154148485Y-136946916D01*
X159666462Y-142464894D01*
X159635392Y-142490392D01*
X159456068Y-142708899D01*
X159322818Y-142958192D01*
X159240764Y-143228691D01*
X159213057Y-143510000D01*
X159240764Y-143791309D01*
X159254292Y-143835907D01*
X159018997Y-144071202D01*
X158989999Y-144095000D01*
X158966201Y-144123998D01*
X158966200Y-144123999D01*
X158895025Y-144210725D01*
X158824453Y-144342755D01*
X158780997Y-144486016D01*
X158766323Y-144635001D01*
X158770000Y-144672333D01*
X158769999Y-155899197D01*
X157993379Y-156675817D01*
X157932168Y-156368088D01*
X157808918Y-156070537D01*
X157629987Y-155802748D01*
X157402252Y-155575013D01*
X157134463Y-155396082D01*
X156836912Y-155272832D01*
X156521033Y-155210000D01*
X156198967Y-155210000D01*
X155883088Y-155272832D01*
X155585537Y-155396082D01*
X155317748Y-155575013D01*
X155090013Y-155802748D01*
X154911082Y-156070537D01*
X154905091Y-156085000D01*
X151314909Y-156085000D01*
X151308918Y-156070537D01*
X151129987Y-155802748D01*
X150902252Y-155575013D01*
X150634463Y-155396082D01*
X150336912Y-155272832D01*
X150021033Y-155210000D01*
X149698967Y-155210000D01*
X149383088Y-155272832D01*
X149085537Y-155396082D01*
X148817748Y-155575013D01*
X148590013Y-155802748D01*
X148411082Y-156070537D01*
X148405091Y-156085000D01*
X143713800Y-156085000D01*
X142864737Y-155235937D01*
X143014463Y-155173918D01*
X143282252Y-154994987D01*
X143509987Y-154767252D01*
X143688918Y-154499463D01*
X143694909Y-154485000D01*
X147285091Y-154485000D01*
X147291082Y-154499463D01*
X147470013Y-154767252D01*
X147697748Y-154994987D01*
X147965537Y-155173918D01*
X148263088Y-155297168D01*
X148578967Y-155360000D01*
X148901033Y-155360000D01*
X149216912Y-155297168D01*
X149514463Y-155173918D01*
X149782252Y-154994987D01*
X150009987Y-154767252D01*
X150188918Y-154499463D01*
X150312168Y-154201912D01*
X150375000Y-153886033D01*
X150375000Y-153563967D01*
X150312168Y-153248088D01*
X150188918Y-152950537D01*
X150009987Y-152682748D01*
X149782252Y-152455013D01*
X149514463Y-152276082D01*
X149216912Y-152152832D01*
X148901033Y-152090000D01*
X148578967Y-152090000D01*
X148263088Y-152152832D01*
X148248624Y-152158823D01*
X148080000Y-151990199D01*
X148080000Y-150722130D01*
X148169571Y-150765704D01*
X148481108Y-150847384D01*
X148802595Y-150866718D01*
X149121675Y-150822961D01*
X149426088Y-150717795D01*
X149600044Y-150624814D01*
X149695808Y-150360413D01*
X148740000Y-149404605D01*
X148725858Y-149418748D01*
X148546253Y-149239143D01*
X148560395Y-149225000D01*
X148919605Y-149225000D01*
X149875413Y-150180808D01*
X150139814Y-150085044D01*
X150280704Y-149795429D01*
X150362384Y-149483892D01*
X150381718Y-149162405D01*
X150337961Y-148843325D01*
X150232795Y-148538912D01*
X150139814Y-148364956D01*
X149875413Y-148269192D01*
X148919605Y-149225000D01*
X148560395Y-149225000D01*
X148546253Y-149210858D01*
X148725858Y-149031253D01*
X148740000Y-149045395D01*
X149695808Y-148089587D01*
X149600044Y-147825186D01*
X149310429Y-147684296D01*
X148998892Y-147602616D01*
X148677405Y-147583282D01*
X148358325Y-147627039D01*
X148080000Y-147723192D01*
X148080000Y-146916817D01*
X148205392Y-147069608D01*
X148423899Y-147248932D01*
X148673192Y-147382182D01*
X148943691Y-147464236D01*
X149154508Y-147485000D01*
X149295492Y-147485000D01*
X149506309Y-147464236D01*
X149776808Y-147382182D01*
X150026101Y-147248932D01*
X150244608Y-147069608D01*
X150423932Y-146851101D01*
X150557182Y-146601808D01*
X150639236Y-146331309D01*
X150666943Y-146050000D01*
X150639236Y-145768691D01*
X150557182Y-145498192D01*
X150423932Y-145248899D01*
X150244608Y-145030392D01*
X150026101Y-144851068D01*
X149776808Y-144717818D01*
X149738581Y-144706222D01*
X150371009Y-144073794D01*
X150400001Y-144050001D01*
X150423795Y-144021008D01*
X150423799Y-144021004D01*
X150494973Y-143934277D01*
X150494974Y-143934276D01*
X150565546Y-143802247D01*
X150609003Y-143658986D01*
X150620000Y-143547333D01*
X150620000Y-143547324D01*
X150623676Y-143510001D01*
X150620000Y-143472678D01*
X150620000Y-118424801D01*
X151638000Y-117406801D01*
X151638000Y-117612592D01*
G36*
X153362002Y-102719902D02*
G01*
X153362002Y-108454928D01*
X152273000Y-108454928D01*
X152148518Y-108467188D01*
X152028820Y-108503498D01*
X151918506Y-108562463D01*
X151821815Y-108641815D01*
X151742463Y-108738506D01*
X151683498Y-108848820D01*
X151647188Y-108968518D01*
X151634928Y-109093000D01*
X151634928Y-110617000D01*
X151647188Y-110741482D01*
X151683498Y-110861180D01*
X151742463Y-110971494D01*
X151821815Y-111068185D01*
X151918506Y-111147537D01*
X152028820Y-111206502D01*
X152148518Y-111242812D01*
X152232465Y-111251080D01*
X152144465Y-111309880D01*
X151949880Y-111504465D01*
X151796995Y-111733273D01*
X151691686Y-111987510D01*
X151638000Y-112257408D01*
X151638000Y-112532592D01*
X151691686Y-112802490D01*
X151796995Y-113056727D01*
X151949880Y-113285535D01*
X152144465Y-113480120D01*
X152373273Y-113633005D01*
X152450515Y-113665000D01*
X152373273Y-113696995D01*
X152144465Y-113849880D01*
X151949880Y-114044465D01*
X151796995Y-114273273D01*
X151691686Y-114527510D01*
X151638000Y-114797408D01*
X151638000Y-115072592D01*
X151668628Y-115226570D01*
X149348998Y-117546201D01*
X149320000Y-117569999D01*
X149296202Y-117598997D01*
X149296201Y-117598998D01*
X149225026Y-117685724D01*
X149154454Y-117817754D01*
X149110998Y-117961015D01*
X149096324Y-118110000D01*
X149100001Y-118147333D01*
X149100000Y-143195197D01*
X146808998Y-145486201D01*
X146780000Y-145509999D01*
X146756202Y-145538997D01*
X146756201Y-145538998D01*
X146685026Y-145625724D01*
X146614454Y-145757754D01*
X146584180Y-145857558D01*
X146570998Y-145901014D01*
X146560001Y-146012667D01*
X146556324Y-146050000D01*
X146560001Y-146087332D01*
X146560000Y-152267677D01*
X146556324Y-152305000D01*
X146560000Y-152342322D01*
X146560000Y-152342332D01*
X146570997Y-152453985D01*
X146614454Y-152597246D01*
X146685026Y-152729276D01*
X146724871Y-152777826D01*
X146779999Y-152845001D01*
X146809003Y-152868804D01*
X146905199Y-152965000D01*
X143694909Y-152965000D01*
X143688918Y-152950537D01*
X143509987Y-152682748D01*
X143282252Y-152455013D01*
X143014463Y-152276082D01*
X142716912Y-152152832D01*
X142401033Y-152090000D01*
X142078967Y-152090000D01*
X141763088Y-152152832D01*
X141465537Y-152276082D01*
X141197748Y-152455013D01*
X140970013Y-152682748D01*
X140791082Y-152950537D01*
X140729063Y-153100264D01*
X140092010Y-152463211D01*
X140092010Y-150360413D01*
X141284192Y-150360413D01*
X141379956Y-150624814D01*
X141669571Y-150765704D01*
X141981108Y-150847384D01*
X142302595Y-150866718D01*
X142621675Y-150822961D01*
X142926088Y-150717795D01*
X143100044Y-150624814D01*
X143195808Y-150360413D01*
X142240000Y-149404605D01*
X141284192Y-150360413D01*
X140092010Y-150360413D01*
X140092010Y-149287595D01*
X140598282Y-149287595D01*
X140642039Y-149606675D01*
X140747205Y-149911088D01*
X140840186Y-150085044D01*
X141104587Y-150180808D01*
X142060395Y-149225000D01*
X142419605Y-149225000D01*
X143375413Y-150180808D01*
X143639814Y-150085044D01*
X143780704Y-149795429D01*
X143862384Y-149483892D01*
X143881718Y-149162405D01*
X143837961Y-148843325D01*
X143732795Y-148538912D01*
X143639814Y-148364956D01*
X143375413Y-148269192D01*
X142419605Y-149225000D01*
X142060395Y-149225000D01*
X141104587Y-148269192D01*
X140840186Y-148364956D01*
X140699296Y-148654571D01*
X140617616Y-148966108D01*
X140598282Y-149287595D01*
X140092010Y-149287595D01*
X140092010Y-148089587D01*
X141284192Y-148089587D01*
X142240000Y-149045395D01*
X143195808Y-148089587D01*
X143100044Y-147825186D01*
X142810429Y-147684296D01*
X142498892Y-147602616D01*
X142177405Y-147583282D01*
X141858325Y-147627039D01*
X141553912Y-147732205D01*
X141379956Y-147825186D01*
X141284192Y-148089587D01*
X140092010Y-148089587D01*
X140092010Y-145908665D01*
X140170000Y-145908665D01*
X140170000Y-146191335D01*
X140225147Y-146468574D01*
X140333320Y-146729727D01*
X140490363Y-146964759D01*
X140690241Y-147164637D01*
X140925273Y-147321680D01*
X141186426Y-147429853D01*
X141463665Y-147485000D01*
X141746335Y-147485000D01*
X142023574Y-147429853D01*
X142284727Y-147321680D01*
X142519759Y-147164637D01*
X142719637Y-146964759D01*
X142876680Y-146729727D01*
X142984853Y-146468574D01*
X143040000Y-146191335D01*
X143040000Y-145908665D01*
X142984853Y-145631426D01*
X142876680Y-145370273D01*
X142719637Y-145135241D01*
X142519759Y-144935363D01*
X142284727Y-144778320D01*
X142023574Y-144670147D01*
X141746335Y-144615000D01*
X141463665Y-144615000D01*
X141186426Y-144670147D01*
X140925273Y-144778320D01*
X140690241Y-144935363D01*
X140490363Y-145135241D01*
X140333320Y-145370273D01*
X140225147Y-145631426D01*
X140170000Y-145908665D01*
X140092010Y-145908665D01*
X140092010Y-119049332D01*
X140095686Y-119012009D01*
X140092010Y-118974686D01*
X140092010Y-118974677D01*
X140081013Y-118863024D01*
X140037556Y-118719763D01*
X139966984Y-118587734D01*
X139944322Y-118560120D01*
X139895809Y-118501006D01*
X139895805Y-118501002D01*
X139872011Y-118472009D01*
X139843018Y-118448215D01*
X139161372Y-117766570D01*
X139192000Y-117612592D01*
X139192000Y-117337408D01*
X139138314Y-117067510D01*
X139033005Y-116813273D01*
X138957177Y-116699789D01*
X139037275Y-116656975D01*
X139153000Y-116562002D01*
X139176803Y-116532999D01*
X140211004Y-115498798D01*
X140240001Y-115475001D01*
X140334974Y-115359276D01*
X140405546Y-115227247D01*
X140449003Y-115083986D01*
X140460000Y-114972333D01*
X140460000Y-114972332D01*
X140463677Y-114935000D01*
X140460000Y-114897667D01*
X140460000Y-109399801D01*
X142972449Y-106887353D01*
X143224554Y-106937500D01*
X143525446Y-106937500D01*
X143820555Y-106878799D01*
X144098543Y-106763653D01*
X144348725Y-106596487D01*
X144520000Y-106425212D01*
X144691275Y-106596487D01*
X144941457Y-106763653D01*
X145219445Y-106878799D01*
X145514554Y-106937500D01*
X145815446Y-106937500D01*
X146110555Y-106878799D01*
X146388543Y-106763653D01*
X146638725Y-106596487D01*
X146810000Y-106425212D01*
X146981275Y-106596487D01*
X147231457Y-106763653D01*
X147509445Y-106878799D01*
X147804554Y-106937500D01*
X148105446Y-106937500D01*
X148400555Y-106878799D01*
X148678543Y-106763653D01*
X148928725Y-106596487D01*
X149056484Y-106468728D01*
X149365877Y-106468728D01*
X149448652Y-106722144D01*
X149719941Y-106852291D01*
X150011407Y-106927012D01*
X150311849Y-106943435D01*
X150609723Y-106900929D01*
X150893580Y-106801127D01*
X151041348Y-106722144D01*
X151124123Y-106468728D01*
X150245000Y-105589605D01*
X149365877Y-106468728D01*
X149056484Y-106468728D01*
X149141487Y-106383725D01*
X149241802Y-106233593D01*
X150065395Y-105410000D01*
X150424605Y-105410000D01*
X151303728Y-106289123D01*
X151557144Y-106206348D01*
X151687291Y-105935059D01*
X151762012Y-105643593D01*
X151778435Y-105343151D01*
X151735929Y-105045277D01*
X151636127Y-104761420D01*
X151557144Y-104613652D01*
X151303728Y-104530877D01*
X150424605Y-105410000D01*
X150065395Y-105410000D01*
X150051253Y-105395858D01*
X150230858Y-105216253D01*
X150245000Y-105230395D01*
X151124123Y-104351272D01*
X151041348Y-104097856D01*
X150770059Y-103967709D01*
X150478593Y-103892988D01*
X150249734Y-103880478D01*
X150286487Y-103843725D01*
X150453653Y-103593543D01*
X150568799Y-103315555D01*
X150627500Y-103020446D01*
X150627500Y-102719554D01*
X150568799Y-102424445D01*
X150453653Y-102146457D01*
X150286487Y-101896275D01*
X150247712Y-101857500D01*
X150395446Y-101857500D01*
X150690555Y-101798799D01*
X150968543Y-101683653D01*
X151218725Y-101516487D01*
X151431487Y-101303725D01*
X151598653Y-101053543D01*
X151627061Y-100984960D01*
X153362002Y-102719902D01*
X153362002Y-102719902D01*
G37*
X153362002Y-102719902D02*
X153362002Y-108454928D01*
X152273000Y-108454928D01*
X152148518Y-108467188D01*
X152028820Y-108503498D01*
X151918506Y-108562463D01*
X151821815Y-108641815D01*
X151742463Y-108738506D01*
X151683498Y-108848820D01*
X151647188Y-108968518D01*
X151634928Y-109093000D01*
X151634928Y-110617000D01*
X151647188Y-110741482D01*
X151683498Y-110861180D01*
X151742463Y-110971494D01*
X151821815Y-111068185D01*
X151918506Y-111147537D01*
X152028820Y-111206502D01*
X152148518Y-111242812D01*
X152232465Y-111251080D01*
X152144465Y-111309880D01*
X151949880Y-111504465D01*
X151796995Y-111733273D01*
X151691686Y-111987510D01*
X151638000Y-112257408D01*
X151638000Y-112532592D01*
X151691686Y-112802490D01*
X151796995Y-113056727D01*
X151949880Y-113285535D01*
X152144465Y-113480120D01*
X152373273Y-113633005D01*
X152450515Y-113665000D01*
X152373273Y-113696995D01*
X152144465Y-113849880D01*
X151949880Y-114044465D01*
X151796995Y-114273273D01*
X151691686Y-114527510D01*
X151638000Y-114797408D01*
X151638000Y-115072592D01*
X151668628Y-115226570D01*
X149348998Y-117546201D01*
X149320000Y-117569999D01*
X149296202Y-117598997D01*
X149296201Y-117598998D01*
X149225026Y-117685724D01*
X149154454Y-117817754D01*
X149110998Y-117961015D01*
X149096324Y-118110000D01*
X149100001Y-118147333D01*
X149100000Y-143195197D01*
X146808998Y-145486201D01*
X146780000Y-145509999D01*
X146756202Y-145538997D01*
X146756201Y-145538998D01*
X146685026Y-145625724D01*
X146614454Y-145757754D01*
X146584180Y-145857558D01*
X146570998Y-145901014D01*
X146560001Y-146012667D01*
X146556324Y-146050000D01*
X146560001Y-146087332D01*
X146560000Y-152267677D01*
X146556324Y-152305000D01*
X146560000Y-152342322D01*
X146560000Y-152342332D01*
X146570997Y-152453985D01*
X146614454Y-152597246D01*
X146685026Y-152729276D01*
X146724871Y-152777826D01*
X146779999Y-152845001D01*
X146809003Y-152868804D01*
X146905199Y-152965000D01*
X143694909Y-152965000D01*
X143688918Y-152950537D01*
X143509987Y-152682748D01*
X143282252Y-152455013D01*
X143014463Y-152276082D01*
X142716912Y-152152832D01*
X142401033Y-152090000D01*
X142078967Y-152090000D01*
X141763088Y-152152832D01*
X141465537Y-152276082D01*
X141197748Y-152455013D01*
X140970013Y-152682748D01*
X140791082Y-152950537D01*
X140729063Y-153100264D01*
X140092010Y-152463211D01*
X140092010Y-150360413D01*
X141284192Y-150360413D01*
X141379956Y-150624814D01*
X141669571Y-150765704D01*
X141981108Y-150847384D01*
X142302595Y-150866718D01*
X142621675Y-150822961D01*
X142926088Y-150717795D01*
X143100044Y-150624814D01*
X143195808Y-150360413D01*
X142240000Y-149404605D01*
X141284192Y-150360413D01*
X140092010Y-150360413D01*
X140092010Y-149287595D01*
X140598282Y-149287595D01*
X140642039Y-149606675D01*
X140747205Y-149911088D01*
X140840186Y-150085044D01*
X141104587Y-150180808D01*
X142060395Y-149225000D01*
X142419605Y-149225000D01*
X143375413Y-150180808D01*
X143639814Y-150085044D01*
X143780704Y-149795429D01*
X143862384Y-149483892D01*
X143881718Y-149162405D01*
X143837961Y-148843325D01*
X143732795Y-148538912D01*
X143639814Y-148364956D01*
X143375413Y-148269192D01*
X142419605Y-149225000D01*
X142060395Y-149225000D01*
X141104587Y-148269192D01*
X140840186Y-148364956D01*
X140699296Y-148654571D01*
X140617616Y-148966108D01*
X140598282Y-149287595D01*
X140092010Y-149287595D01*
X140092010Y-148089587D01*
X141284192Y-148089587D01*
X142240000Y-149045395D01*
X143195808Y-148089587D01*
X143100044Y-147825186D01*
X142810429Y-147684296D01*
X142498892Y-147602616D01*
X142177405Y-147583282D01*
X141858325Y-147627039D01*
X141553912Y-147732205D01*
X141379956Y-147825186D01*
X141284192Y-148089587D01*
X140092010Y-148089587D01*
X140092010Y-145908665D01*
X140170000Y-145908665D01*
X140170000Y-146191335D01*
X140225147Y-146468574D01*
X140333320Y-146729727D01*
X140490363Y-146964759D01*
X140690241Y-147164637D01*
X140925273Y-147321680D01*
X141186426Y-147429853D01*
X141463665Y-147485000D01*
X141746335Y-147485000D01*
X142023574Y-147429853D01*
X142284727Y-147321680D01*
X142519759Y-147164637D01*
X142719637Y-146964759D01*
X142876680Y-146729727D01*
X142984853Y-146468574D01*
X143040000Y-146191335D01*
X143040000Y-145908665D01*
X142984853Y-145631426D01*
X142876680Y-145370273D01*
X142719637Y-145135241D01*
X142519759Y-144935363D01*
X142284727Y-144778320D01*
X142023574Y-144670147D01*
X141746335Y-144615000D01*
X141463665Y-144615000D01*
X141186426Y-144670147D01*
X140925273Y-144778320D01*
X140690241Y-144935363D01*
X140490363Y-145135241D01*
X140333320Y-145370273D01*
X140225147Y-145631426D01*
X140170000Y-145908665D01*
X140092010Y-145908665D01*
X140092010Y-119049332D01*
X140095686Y-119012009D01*
X140092010Y-118974686D01*
X140092010Y-118974677D01*
X140081013Y-118863024D01*
X140037556Y-118719763D01*
X139966984Y-118587734D01*
X139944322Y-118560120D01*
X139895809Y-118501006D01*
X139895805Y-118501002D01*
X139872011Y-118472009D01*
X139843018Y-118448215D01*
X139161372Y-117766570D01*
X139192000Y-117612592D01*
X139192000Y-117337408D01*
X139138314Y-117067510D01*
X139033005Y-116813273D01*
X138957177Y-116699789D01*
X139037275Y-116656975D01*
X139153000Y-116562002D01*
X139176803Y-116532999D01*
X140211004Y-115498798D01*
X140240001Y-115475001D01*
X140334974Y-115359276D01*
X140405546Y-115227247D01*
X140449003Y-115083986D01*
X140460000Y-114972333D01*
X140460000Y-114972332D01*
X140463677Y-114935000D01*
X140460000Y-114897667D01*
X140460000Y-109399801D01*
X142972449Y-106887353D01*
X143224554Y-106937500D01*
X143525446Y-106937500D01*
X143820555Y-106878799D01*
X144098543Y-106763653D01*
X144348725Y-106596487D01*
X144520000Y-106425212D01*
X144691275Y-106596487D01*
X144941457Y-106763653D01*
X145219445Y-106878799D01*
X145514554Y-106937500D01*
X145815446Y-106937500D01*
X146110555Y-106878799D01*
X146388543Y-106763653D01*
X146638725Y-106596487D01*
X146810000Y-106425212D01*
X146981275Y-106596487D01*
X147231457Y-106763653D01*
X147509445Y-106878799D01*
X147804554Y-106937500D01*
X148105446Y-106937500D01*
X148400555Y-106878799D01*
X148678543Y-106763653D01*
X148928725Y-106596487D01*
X149056484Y-106468728D01*
X149365877Y-106468728D01*
X149448652Y-106722144D01*
X149719941Y-106852291D01*
X150011407Y-106927012D01*
X150311849Y-106943435D01*
X150609723Y-106900929D01*
X150893580Y-106801127D01*
X151041348Y-106722144D01*
X151124123Y-106468728D01*
X150245000Y-105589605D01*
X149365877Y-106468728D01*
X149056484Y-106468728D01*
X149141487Y-106383725D01*
X149241802Y-106233593D01*
X150065395Y-105410000D01*
X150424605Y-105410000D01*
X151303728Y-106289123D01*
X151557144Y-106206348D01*
X151687291Y-105935059D01*
X151762012Y-105643593D01*
X151778435Y-105343151D01*
X151735929Y-105045277D01*
X151636127Y-104761420D01*
X151557144Y-104613652D01*
X151303728Y-104530877D01*
X150424605Y-105410000D01*
X150065395Y-105410000D01*
X150051253Y-105395858D01*
X150230858Y-105216253D01*
X150245000Y-105230395D01*
X151124123Y-104351272D01*
X151041348Y-104097856D01*
X150770059Y-103967709D01*
X150478593Y-103892988D01*
X150249734Y-103880478D01*
X150286487Y-103843725D01*
X150453653Y-103593543D01*
X150568799Y-103315555D01*
X150627500Y-103020446D01*
X150627500Y-102719554D01*
X150568799Y-102424445D01*
X150453653Y-102146457D01*
X150286487Y-101896275D01*
X150247712Y-101857500D01*
X150395446Y-101857500D01*
X150690555Y-101798799D01*
X150968543Y-101683653D01*
X151218725Y-101516487D01*
X151431487Y-101303725D01*
X151598653Y-101053543D01*
X151627061Y-100984960D01*
X153362002Y-102719902D01*
G36*
X161526327Y-91516457D02*
G01*
X161753653Y-91585091D01*
X161963316Y-91696569D01*
X162147340Y-91846655D01*
X162298701Y-92029620D01*
X162411646Y-92238507D01*
X162481865Y-92465349D01*
X162510001Y-92733044D01*
X162510001Y-113545239D01*
X162437623Y-113181372D01*
X162148533Y-112483446D01*
X161728839Y-111855330D01*
X161194670Y-111321161D01*
X160566554Y-110901467D01*
X159868628Y-110612377D01*
X159127715Y-110465000D01*
X158372285Y-110465000D01*
X157631372Y-110612377D01*
X156933446Y-110901467D01*
X156305330Y-111321161D01*
X155771161Y-111855330D01*
X155351467Y-112483446D01*
X155062377Y-113181372D01*
X154915000Y-113922285D01*
X154915000Y-114677715D01*
X155021146Y-115211345D01*
X154882001Y-115072200D01*
X154882001Y-104740976D01*
X156218629Y-104740976D01*
X156438716Y-105111114D01*
X156904206Y-105355085D01*
X157408349Y-105503556D01*
X157931769Y-105550820D01*
X158454353Y-105495063D01*
X158956017Y-105338425D01*
X159381284Y-105111114D01*
X159601371Y-104740976D01*
X157910000Y-103049605D01*
X156218629Y-104740976D01*
X154882001Y-104740976D01*
X154882001Y-102891769D01*
X155229180Y-102891769D01*
X155284937Y-103414353D01*
X155441575Y-103916017D01*
X155668886Y-104341284D01*
X156039024Y-104561371D01*
X157730395Y-102870000D01*
X158089605Y-102870000D01*
X159780976Y-104561371D01*
X160151114Y-104341284D01*
X160395085Y-103875794D01*
X160543556Y-103371651D01*
X160590820Y-102848231D01*
X160535063Y-102325647D01*
X160378425Y-101823983D01*
X160151114Y-101398716D01*
X159780976Y-101178629D01*
X158089605Y-102870000D01*
X157730395Y-102870000D01*
X156039024Y-101178629D01*
X155668886Y-101398716D01*
X155424915Y-101864206D01*
X155276444Y-102368349D01*
X155229180Y-102891769D01*
X154882001Y-102891769D01*
X154882001Y-102442432D01*
X154885678Y-102405099D01*
X154871004Y-102256113D01*
X154827547Y-102112852D01*
X154756975Y-101980823D01*
X154685800Y-101894096D01*
X154662002Y-101865098D01*
X154633004Y-101841300D01*
X153790728Y-100999024D01*
X156218629Y-100999024D01*
X157910000Y-102690395D01*
X159601371Y-100999024D01*
X159381284Y-100628886D01*
X158915794Y-100384915D01*
X158411651Y-100236444D01*
X157888231Y-100189180D01*
X157365647Y-100244937D01*
X156863983Y-100401575D01*
X156438716Y-100628886D01*
X156218629Y-100999024D01*
X153790728Y-100999024D01*
X151393205Y-98601502D01*
X151369402Y-98572498D01*
X151253677Y-98477525D01*
X151121648Y-98406953D01*
X150978387Y-98363496D01*
X150866734Y-98352499D01*
X150866723Y-98352499D01*
X150829401Y-98348823D01*
X150792079Y-98352499D01*
X146919823Y-98352499D01*
X146882500Y-98348823D01*
X146845177Y-98352499D01*
X146845168Y-98352499D01*
X146733515Y-98363496D01*
X146590254Y-98406953D01*
X146458225Y-98477525D01*
X146342500Y-98572498D01*
X146318697Y-98601502D01*
X146067552Y-98852647D01*
X145815446Y-98802500D01*
X145514554Y-98802500D01*
X145219445Y-98861201D01*
X144941457Y-98976347D01*
X144691275Y-99143513D01*
X144520000Y-99314788D01*
X144348725Y-99143513D01*
X144098543Y-98976347D01*
X143820555Y-98861201D01*
X143525446Y-98802500D01*
X143224554Y-98802500D01*
X142929445Y-98861201D01*
X142651457Y-98976347D01*
X142401275Y-99143513D01*
X142230000Y-99314788D01*
X142058725Y-99143513D01*
X141808543Y-98976347D01*
X141530555Y-98861201D01*
X141235446Y-98802500D01*
X140934554Y-98802500D01*
X140639445Y-98861201D01*
X140361457Y-98976347D01*
X140111275Y-99143513D01*
X139898513Y-99356275D01*
X139731347Y-99606457D01*
X139616201Y-99884445D01*
X139557500Y-100179554D01*
X139557500Y-100480446D01*
X139616201Y-100775555D01*
X139731347Y-101053543D01*
X139898513Y-101303725D01*
X139937288Y-101342500D01*
X139789554Y-101342500D01*
X139494445Y-101401201D01*
X139216457Y-101516347D01*
X138966275Y-101683513D01*
X138753513Y-101896275D01*
X138586347Y-102146457D01*
X138471201Y-102424445D01*
X138412500Y-102719554D01*
X138412500Y-103020446D01*
X138471201Y-103315555D01*
X138586347Y-103593543D01*
X138753513Y-103843725D01*
X138966275Y-104056487D01*
X139216457Y-104223653D01*
X139494445Y-104338799D01*
X139578088Y-104355437D01*
X139566688Y-104393018D01*
X139554428Y-104517500D01*
X139554428Y-105964496D01*
X139483574Y-105935147D01*
X139206335Y-105880000D01*
X138923665Y-105880000D01*
X138888561Y-105886983D01*
X138438893Y-105437314D01*
X138539853Y-105193574D01*
X138595000Y-104916335D01*
X138595000Y-104633665D01*
X138539853Y-104356426D01*
X138431680Y-104095273D01*
X138274637Y-103860241D01*
X138074759Y-103660363D01*
X137839727Y-103503320D01*
X137578574Y-103395147D01*
X137301335Y-103340000D01*
X137018665Y-103340000D01*
X136741426Y-103395147D01*
X136480273Y-103503320D01*
X136245241Y-103660363D01*
X136045363Y-103860241D01*
X135888320Y-104095273D01*
X135780147Y-104356426D01*
X135725000Y-104633665D01*
X135725000Y-104916335D01*
X135780147Y-105193574D01*
X135888320Y-105454727D01*
X136045363Y-105689759D01*
X136245241Y-105889637D01*
X136480273Y-106046680D01*
X136590943Y-106092521D01*
X137636983Y-107138561D01*
X137630000Y-107173665D01*
X137630000Y-107456335D01*
X137685147Y-107733574D01*
X137793320Y-107994727D01*
X137950363Y-108229759D01*
X138150241Y-108429637D01*
X138385273Y-108586680D01*
X138646426Y-108694853D01*
X138923665Y-108750000D01*
X139017307Y-108750000D01*
X138994454Y-108792754D01*
X138950998Y-108936015D01*
X138939450Y-109053259D01*
X138880120Y-108964465D01*
X138685535Y-108769880D01*
X138456727Y-108616995D01*
X138202490Y-108511686D01*
X137932592Y-108458000D01*
X137657408Y-108458000D01*
X137387510Y-108511686D01*
X137133273Y-108616995D01*
X136904465Y-108769880D01*
X136709880Y-108964465D01*
X136556995Y-109193273D01*
X136451686Y-109447510D01*
X136398000Y-109717408D01*
X136398000Y-109992592D01*
X136451686Y-110262490D01*
X136556995Y-110516727D01*
X136709880Y-110745535D01*
X136904465Y-110940120D01*
X137133273Y-111093005D01*
X137204943Y-111122692D01*
X137191977Y-111127364D01*
X137076020Y-111189344D01*
X137009040Y-111429435D01*
X137795000Y-112215395D01*
X138580960Y-111429435D01*
X138513980Y-111189344D01*
X138378240Y-111125515D01*
X138456727Y-111093005D01*
X138685535Y-110940120D01*
X138880120Y-110745535D01*
X138940001Y-110655917D01*
X138940001Y-111659098D01*
X138760565Y-111609040D01*
X137974605Y-112395000D01*
X138760565Y-113180960D01*
X138940000Y-113130902D01*
X138940000Y-114134082D01*
X138880120Y-114044465D01*
X138685535Y-113849880D01*
X138456727Y-113696995D01*
X138385057Y-113667308D01*
X138398023Y-113662636D01*
X138513980Y-113600656D01*
X138580960Y-113360565D01*
X137795000Y-112574605D01*
X137009040Y-113360565D01*
X137076020Y-113600656D01*
X137211760Y-113664485D01*
X137133273Y-113696995D01*
X136904465Y-113849880D01*
X136709880Y-114044465D01*
X136556995Y-114273273D01*
X136451686Y-114527510D01*
X136398000Y-114797408D01*
X136398000Y-115072592D01*
X136435676Y-115262001D01*
X136110321Y-115262001D01*
X136072998Y-115258325D01*
X136035675Y-115262001D01*
X136035666Y-115262001D01*
X135924013Y-115272998D01*
X135788408Y-115314132D01*
X135915000Y-114677715D01*
X135915000Y-113922285D01*
X135767623Y-113181372D01*
X135478533Y-112483446D01*
X135467556Y-112467017D01*
X136393090Y-112467017D01*
X136434078Y-112739133D01*
X136527364Y-112998023D01*
X136589344Y-113113980D01*
X136829435Y-113180960D01*
X137615395Y-112395000D01*
X136829435Y-111609040D01*
X136589344Y-111676020D01*
X136472244Y-111925048D01*
X136405977Y-112192135D01*
X136393090Y-112467017D01*
X135467556Y-112467017D01*
X135058839Y-111855330D01*
X134524670Y-111321161D01*
X133896554Y-110901467D01*
X133198628Y-110612377D01*
X132457715Y-110465000D01*
X131702285Y-110465000D01*
X130961372Y-110612377D01*
X130263446Y-110901467D01*
X129635330Y-111321161D01*
X129101161Y-111855330D01*
X128681467Y-112483446D01*
X128392377Y-113181372D01*
X128320000Y-113545235D01*
X128320000Y-104740976D01*
X131228629Y-104740976D01*
X131448716Y-105111114D01*
X131914206Y-105355085D01*
X132418349Y-105503556D01*
X132941769Y-105550820D01*
X133464353Y-105495063D01*
X133966017Y-105338425D01*
X134391284Y-105111114D01*
X134611371Y-104740976D01*
X132920000Y-103049605D01*
X131228629Y-104740976D01*
X128320000Y-104740976D01*
X128320000Y-102891769D01*
X130239180Y-102891769D01*
X130294937Y-103414353D01*
X130451575Y-103916017D01*
X130678886Y-104341284D01*
X131049024Y-104561371D01*
X132740395Y-102870000D01*
X133099605Y-102870000D01*
X134790976Y-104561371D01*
X135161114Y-104341284D01*
X135405085Y-103875794D01*
X135553556Y-103371651D01*
X135600820Y-102848231D01*
X135545063Y-102325647D01*
X135388425Y-101823983D01*
X135161114Y-101398716D01*
X134790976Y-101178629D01*
X133099605Y-102870000D01*
X132740395Y-102870000D01*
X131049024Y-101178629D01*
X130678886Y-101398716D01*
X130434915Y-101864206D01*
X130286444Y-102368349D01*
X130239180Y-102891769D01*
X128320000Y-102891769D01*
X128320000Y-100999024D01*
X131228629Y-100999024D01*
X132920000Y-102690395D01*
X134611371Y-100999024D01*
X134391284Y-100628886D01*
X133925794Y-100384915D01*
X133421651Y-100236444D01*
X132898231Y-100189180D01*
X132375647Y-100244937D01*
X131873983Y-100401575D01*
X131448716Y-100628886D01*
X131228629Y-100999024D01*
X128320000Y-100999024D01*
X128320000Y-92743504D01*
X128346457Y-92473673D01*
X128415091Y-92246347D01*
X128526569Y-92036684D01*
X128676655Y-91852660D01*
X128859620Y-91701299D01*
X129068507Y-91588354D01*
X129295349Y-91518135D01*
X129563035Y-91490000D01*
X161256496Y-91490000D01*
X161526327Y-91516457D01*
X161526327Y-91516457D01*
G37*
X161526327Y-91516457D02*
X161753653Y-91585091D01*
X161963316Y-91696569D01*
X162147340Y-91846655D01*
X162298701Y-92029620D01*
X162411646Y-92238507D01*
X162481865Y-92465349D01*
X162510001Y-92733044D01*
X162510001Y-113545239D01*
X162437623Y-113181372D01*
X162148533Y-112483446D01*
X161728839Y-111855330D01*
X161194670Y-111321161D01*
X160566554Y-110901467D01*
X159868628Y-110612377D01*
X159127715Y-110465000D01*
X158372285Y-110465000D01*
X157631372Y-110612377D01*
X156933446Y-110901467D01*
X156305330Y-111321161D01*
X155771161Y-111855330D01*
X155351467Y-112483446D01*
X155062377Y-113181372D01*
X154915000Y-113922285D01*
X154915000Y-114677715D01*
X155021146Y-115211345D01*
X154882001Y-115072200D01*
X154882001Y-104740976D01*
X156218629Y-104740976D01*
X156438716Y-105111114D01*
X156904206Y-105355085D01*
X157408349Y-105503556D01*
X157931769Y-105550820D01*
X158454353Y-105495063D01*
X158956017Y-105338425D01*
X159381284Y-105111114D01*
X159601371Y-104740976D01*
X157910000Y-103049605D01*
X156218629Y-104740976D01*
X154882001Y-104740976D01*
X154882001Y-102891769D01*
X155229180Y-102891769D01*
X155284937Y-103414353D01*
X155441575Y-103916017D01*
X155668886Y-104341284D01*
X156039024Y-104561371D01*
X157730395Y-102870000D01*
X158089605Y-102870000D01*
X159780976Y-104561371D01*
X160151114Y-104341284D01*
X160395085Y-103875794D01*
X160543556Y-103371651D01*
X160590820Y-102848231D01*
X160535063Y-102325647D01*
X160378425Y-101823983D01*
X160151114Y-101398716D01*
X159780976Y-101178629D01*
X158089605Y-102870000D01*
X157730395Y-102870000D01*
X156039024Y-101178629D01*
X155668886Y-101398716D01*
X155424915Y-101864206D01*
X155276444Y-102368349D01*
X155229180Y-102891769D01*
X154882001Y-102891769D01*
X154882001Y-102442432D01*
X154885678Y-102405099D01*
X154871004Y-102256113D01*
X154827547Y-102112852D01*
X154756975Y-101980823D01*
X154685800Y-101894096D01*
X154662002Y-101865098D01*
X154633004Y-101841300D01*
X153790728Y-100999024D01*
X156218629Y-100999024D01*
X157910000Y-102690395D01*
X159601371Y-100999024D01*
X159381284Y-100628886D01*
X158915794Y-100384915D01*
X158411651Y-100236444D01*
X157888231Y-100189180D01*
X157365647Y-100244937D01*
X156863983Y-100401575D01*
X156438716Y-100628886D01*
X156218629Y-100999024D01*
X153790728Y-100999024D01*
X151393205Y-98601502D01*
X151369402Y-98572498D01*
X151253677Y-98477525D01*
X151121648Y-98406953D01*
X150978387Y-98363496D01*
X150866734Y-98352499D01*
X150866723Y-98352499D01*
X150829401Y-98348823D01*
X150792079Y-98352499D01*
X146919823Y-98352499D01*
X146882500Y-98348823D01*
X146845177Y-98352499D01*
X146845168Y-98352499D01*
X146733515Y-98363496D01*
X146590254Y-98406953D01*
X146458225Y-98477525D01*
X146342500Y-98572498D01*
X146318697Y-98601502D01*
X146067552Y-98852647D01*
X145815446Y-98802500D01*
X145514554Y-98802500D01*
X145219445Y-98861201D01*
X144941457Y-98976347D01*
X144691275Y-99143513D01*
X144520000Y-99314788D01*
X144348725Y-99143513D01*
X144098543Y-98976347D01*
X143820555Y-98861201D01*
X143525446Y-98802500D01*
X143224554Y-98802500D01*
X142929445Y-98861201D01*
X142651457Y-98976347D01*
X142401275Y-99143513D01*
X142230000Y-99314788D01*
X142058725Y-99143513D01*
X141808543Y-98976347D01*
X141530555Y-98861201D01*
X141235446Y-98802500D01*
X140934554Y-98802500D01*
X140639445Y-98861201D01*
X140361457Y-98976347D01*
X140111275Y-99143513D01*
X139898513Y-99356275D01*
X139731347Y-99606457D01*
X139616201Y-99884445D01*
X139557500Y-100179554D01*
X139557500Y-100480446D01*
X139616201Y-100775555D01*
X139731347Y-101053543D01*
X139898513Y-101303725D01*
X139937288Y-101342500D01*
X139789554Y-101342500D01*
X139494445Y-101401201D01*
X139216457Y-101516347D01*
X138966275Y-101683513D01*
X138753513Y-101896275D01*
X138586347Y-102146457D01*
X138471201Y-102424445D01*
X138412500Y-102719554D01*
X138412500Y-103020446D01*
X138471201Y-103315555D01*
X138586347Y-103593543D01*
X138753513Y-103843725D01*
X138966275Y-104056487D01*
X139216457Y-104223653D01*
X139494445Y-104338799D01*
X139578088Y-104355437D01*
X139566688Y-104393018D01*
X139554428Y-104517500D01*
X139554428Y-105964496D01*
X139483574Y-105935147D01*
X139206335Y-105880000D01*
X138923665Y-105880000D01*
X138888561Y-105886983D01*
X138438893Y-105437314D01*
X138539853Y-105193574D01*
X138595000Y-104916335D01*
X138595000Y-104633665D01*
X138539853Y-104356426D01*
X138431680Y-104095273D01*
X138274637Y-103860241D01*
X138074759Y-103660363D01*
X137839727Y-103503320D01*
X137578574Y-103395147D01*
X137301335Y-103340000D01*
X137018665Y-103340000D01*
X136741426Y-103395147D01*
X136480273Y-103503320D01*
X136245241Y-103660363D01*
X136045363Y-103860241D01*
X135888320Y-104095273D01*
X135780147Y-104356426D01*
X135725000Y-104633665D01*
X135725000Y-104916335D01*
X135780147Y-105193574D01*
X135888320Y-105454727D01*
X136045363Y-105689759D01*
X136245241Y-105889637D01*
X136480273Y-106046680D01*
X136590943Y-106092521D01*
X137636983Y-107138561D01*
X137630000Y-107173665D01*
X137630000Y-107456335D01*
X137685147Y-107733574D01*
X137793320Y-107994727D01*
X137950363Y-108229759D01*
X138150241Y-108429637D01*
X138385273Y-108586680D01*
X138646426Y-108694853D01*
X138923665Y-108750000D01*
X139017307Y-108750000D01*
X138994454Y-108792754D01*
X138950998Y-108936015D01*
X138939450Y-109053259D01*
X138880120Y-108964465D01*
X138685535Y-108769880D01*
X138456727Y-108616995D01*
X138202490Y-108511686D01*
X137932592Y-108458000D01*
X137657408Y-108458000D01*
X137387510Y-108511686D01*
X137133273Y-108616995D01*
X136904465Y-108769880D01*
X136709880Y-108964465D01*
X136556995Y-109193273D01*
X136451686Y-109447510D01*
X136398000Y-109717408D01*
X136398000Y-109992592D01*
X136451686Y-110262490D01*
X136556995Y-110516727D01*
X136709880Y-110745535D01*
X136904465Y-110940120D01*
X137133273Y-111093005D01*
X137204943Y-111122692D01*
X137191977Y-111127364D01*
X137076020Y-111189344D01*
X137009040Y-111429435D01*
X137795000Y-112215395D01*
X138580960Y-111429435D01*
X138513980Y-111189344D01*
X138378240Y-111125515D01*
X138456727Y-111093005D01*
X138685535Y-110940120D01*
X138880120Y-110745535D01*
X138940001Y-110655917D01*
X138940001Y-111659098D01*
X138760565Y-111609040D01*
X137974605Y-112395000D01*
X138760565Y-113180960D01*
X138940000Y-113130902D01*
X138940000Y-114134082D01*
X138880120Y-114044465D01*
X138685535Y-113849880D01*
X138456727Y-113696995D01*
X138385057Y-113667308D01*
X138398023Y-113662636D01*
X138513980Y-113600656D01*
X138580960Y-113360565D01*
X137795000Y-112574605D01*
X137009040Y-113360565D01*
X137076020Y-113600656D01*
X137211760Y-113664485D01*
X137133273Y-113696995D01*
X136904465Y-113849880D01*
X136709880Y-114044465D01*
X136556995Y-114273273D01*
X136451686Y-114527510D01*
X136398000Y-114797408D01*
X136398000Y-115072592D01*
X136435676Y-115262001D01*
X136110321Y-115262001D01*
X136072998Y-115258325D01*
X136035675Y-115262001D01*
X136035666Y-115262001D01*
X135924013Y-115272998D01*
X135788408Y-115314132D01*
X135915000Y-114677715D01*
X135915000Y-113922285D01*
X135767623Y-113181372D01*
X135478533Y-112483446D01*
X135467556Y-112467017D01*
X136393090Y-112467017D01*
X136434078Y-112739133D01*
X136527364Y-112998023D01*
X136589344Y-113113980D01*
X136829435Y-113180960D01*
X137615395Y-112395000D01*
X136829435Y-111609040D01*
X136589344Y-111676020D01*
X136472244Y-111925048D01*
X136405977Y-112192135D01*
X136393090Y-112467017D01*
X135467556Y-112467017D01*
X135058839Y-111855330D01*
X134524670Y-111321161D01*
X133896554Y-110901467D01*
X133198628Y-110612377D01*
X132457715Y-110465000D01*
X131702285Y-110465000D01*
X130961372Y-110612377D01*
X130263446Y-110901467D01*
X129635330Y-111321161D01*
X129101161Y-111855330D01*
X128681467Y-112483446D01*
X128392377Y-113181372D01*
X128320000Y-113545235D01*
X128320000Y-104740976D01*
X131228629Y-104740976D01*
X131448716Y-105111114D01*
X131914206Y-105355085D01*
X132418349Y-105503556D01*
X132941769Y-105550820D01*
X133464353Y-105495063D01*
X133966017Y-105338425D01*
X134391284Y-105111114D01*
X134611371Y-104740976D01*
X132920000Y-103049605D01*
X131228629Y-104740976D01*
X128320000Y-104740976D01*
X128320000Y-102891769D01*
X130239180Y-102891769D01*
X130294937Y-103414353D01*
X130451575Y-103916017D01*
X130678886Y-104341284D01*
X131049024Y-104561371D01*
X132740395Y-102870000D01*
X133099605Y-102870000D01*
X134790976Y-104561371D01*
X135161114Y-104341284D01*
X135405085Y-103875794D01*
X135553556Y-103371651D01*
X135600820Y-102848231D01*
X135545063Y-102325647D01*
X135388425Y-101823983D01*
X135161114Y-101398716D01*
X134790976Y-101178629D01*
X133099605Y-102870000D01*
X132740395Y-102870000D01*
X131049024Y-101178629D01*
X130678886Y-101398716D01*
X130434915Y-101864206D01*
X130286444Y-102368349D01*
X130239180Y-102891769D01*
X128320000Y-102891769D01*
X128320000Y-100999024D01*
X131228629Y-100999024D01*
X132920000Y-102690395D01*
X134611371Y-100999024D01*
X134391284Y-100628886D01*
X133925794Y-100384915D01*
X133421651Y-100236444D01*
X132898231Y-100189180D01*
X132375647Y-100244937D01*
X131873983Y-100401575D01*
X131448716Y-100628886D01*
X131228629Y-100999024D01*
X128320000Y-100999024D01*
X128320000Y-92743504D01*
X128346457Y-92473673D01*
X128415091Y-92246347D01*
X128526569Y-92036684D01*
X128676655Y-91852660D01*
X128859620Y-91701299D01*
X129068507Y-91588354D01*
X129295349Y-91518135D01*
X129563035Y-91490000D01*
X161256496Y-91490000D01*
X161526327Y-91516457D01*
M02*
