G04 #@! TF.GenerationSoftware,KiCad,Pcbnew,(5.1.4)-1*
G04 #@! TF.CreationDate,2020-11-28T22:24:57-05:00*
G04 #@! TF.ProjectId,snek,736e656b-2e6b-4696-9361-645f70636258,rev?*
G04 #@! TF.SameCoordinates,Original*
G04 #@! TF.FileFunction,Legend,Top*
G04 #@! TF.FilePolarity,Positive*
%FSLAX46Y46*%
G04 Gerber Fmt 4.6, Leading zero omitted, Abs format (unit mm)*
G04 Created by KiCad (PCBNEW (5.1.4)-1) date 2020-11-28 22:24:57*
%MOMM*%
%LPD*%
G04 APERTURE LIST*
%ADD10C,0.127000*%
%ADD11C,0.120000*%
%ADD12C,0.015000*%
%ADD13C,0.150000*%
G04 APERTURE END LIST*
D10*
X160835000Y-107660000D02*
X160835000Y-91440000D01*
X129995000Y-107660000D02*
X160835000Y-107660000D01*
X129995000Y-91440000D02*
X129995000Y-107660000D01*
X160835000Y-91440000D02*
X129995000Y-91440000D01*
D11*
X156610000Y-159845000D02*
X156610000Y-158345000D01*
X155360000Y-155845000D02*
X150860000Y-155845000D01*
X149610000Y-158345000D02*
X149610000Y-159845000D01*
X150860000Y-162345000D02*
X155360000Y-162345000D01*
X148990000Y-167465000D02*
X148990000Y-165965000D01*
X147740000Y-163465000D02*
X143240000Y-163465000D01*
X141990000Y-165965000D02*
X141990000Y-167465000D01*
X143240000Y-169965000D02*
X147740000Y-169965000D01*
X141370000Y-159845000D02*
X141370000Y-158345000D01*
X140120000Y-155845000D02*
X135620000Y-155845000D01*
X134370000Y-158345000D02*
X134370000Y-159845000D01*
X135620000Y-162345000D02*
X140120000Y-162345000D01*
X148990000Y-152225000D02*
X148990000Y-150725000D01*
X147740000Y-148225000D02*
X143240000Y-148225000D01*
X141990000Y-150725000D02*
X141990000Y-152225000D01*
X143240000Y-154725000D02*
X147740000Y-154725000D01*
X148685000Y-147420000D02*
X148685000Y-147090000D01*
X142145000Y-147420000D02*
X148685000Y-147420000D01*
X142145000Y-147090000D02*
X142145000Y-147420000D01*
X148685000Y-144680000D02*
X148685000Y-145010000D01*
X142145000Y-144680000D02*
X148685000Y-144680000D01*
X142145000Y-145010000D02*
X142145000Y-144680000D01*
X159285000Y-129000000D02*
X159615000Y-129000000D01*
X159285000Y-122460000D02*
X159285000Y-129000000D01*
X159615000Y-122460000D02*
X159285000Y-122460000D01*
X162025000Y-129000000D02*
X161695000Y-129000000D01*
X162025000Y-122460000D02*
X162025000Y-129000000D01*
X161695000Y-122460000D02*
X162025000Y-122460000D01*
X128805000Y-139795000D02*
X129135000Y-139795000D01*
X128805000Y-133255000D02*
X128805000Y-139795000D01*
X129135000Y-133255000D02*
X128805000Y-133255000D01*
X131545000Y-139795000D02*
X131215000Y-139795000D01*
X131545000Y-133255000D02*
X131545000Y-139795000D01*
X131215000Y-133255000D02*
X131545000Y-133255000D01*
X128805000Y-129000000D02*
X129135000Y-129000000D01*
X128805000Y-122460000D02*
X128805000Y-129000000D01*
X129135000Y-122460000D02*
X128805000Y-122460000D01*
X131545000Y-129000000D02*
X131215000Y-129000000D01*
X131545000Y-122460000D02*
X131545000Y-129000000D01*
X131215000Y-122460000D02*
X131545000Y-122460000D01*
X128805000Y-150590000D02*
X129135000Y-150590000D01*
X128805000Y-144050000D02*
X128805000Y-150590000D01*
X129135000Y-144050000D02*
X128805000Y-144050000D01*
X131545000Y-150590000D02*
X131215000Y-150590000D01*
X131545000Y-144050000D02*
X131545000Y-150590000D01*
X131215000Y-144050000D02*
X131545000Y-144050000D01*
X128805000Y-161385000D02*
X129135000Y-161385000D01*
X128805000Y-154845000D02*
X128805000Y-161385000D01*
X129135000Y-154845000D02*
X128805000Y-154845000D01*
X131545000Y-161385000D02*
X131215000Y-161385000D01*
X131545000Y-154845000D02*
X131545000Y-161385000D01*
X131215000Y-154845000D02*
X131545000Y-154845000D01*
X159285000Y-161385000D02*
X159615000Y-161385000D01*
X159285000Y-154845000D02*
X159285000Y-161385000D01*
X159615000Y-154845000D02*
X159285000Y-154845000D01*
X162025000Y-161385000D02*
X161695000Y-161385000D01*
X162025000Y-154845000D02*
X162025000Y-161385000D01*
X161695000Y-154845000D02*
X162025000Y-154845000D01*
X162025000Y-133255000D02*
X161695000Y-133255000D01*
X162025000Y-139795000D02*
X162025000Y-133255000D01*
X161695000Y-139795000D02*
X162025000Y-139795000D01*
X159285000Y-133255000D02*
X159615000Y-133255000D01*
X159285000Y-139795000D02*
X159285000Y-133255000D01*
X159615000Y-139795000D02*
X159285000Y-139795000D01*
X162025000Y-144050000D02*
X161695000Y-144050000D01*
X162025000Y-150590000D02*
X162025000Y-144050000D01*
X161695000Y-150590000D02*
X162025000Y-150590000D01*
X159285000Y-144050000D02*
X159615000Y-144050000D01*
X159285000Y-150590000D02*
X159285000Y-144050000D01*
X159615000Y-150590000D02*
X159285000Y-150590000D01*
D12*
X145081666Y-97877380D02*
X145081666Y-98591666D01*
X145034047Y-98734523D01*
X144938809Y-98829761D01*
X144795952Y-98877380D01*
X144700714Y-98877380D01*
X146081666Y-98877380D02*
X145510238Y-98877380D01*
X145795952Y-98877380D02*
X145795952Y-97877380D01*
X145700714Y-98020238D01*
X145605476Y-98115476D01*
X145510238Y-98163095D01*
D13*
X151776666Y-155249761D02*
X151919523Y-155297380D01*
X152157619Y-155297380D01*
X152252857Y-155249761D01*
X152300476Y-155202142D01*
X152348095Y-155106904D01*
X152348095Y-155011666D01*
X152300476Y-154916428D01*
X152252857Y-154868809D01*
X152157619Y-154821190D01*
X151967142Y-154773571D01*
X151871904Y-154725952D01*
X151824285Y-154678333D01*
X151776666Y-154583095D01*
X151776666Y-154487857D01*
X151824285Y-154392619D01*
X151871904Y-154345000D01*
X151967142Y-154297380D01*
X152205238Y-154297380D01*
X152348095Y-154345000D01*
X152681428Y-154297380D02*
X152919523Y-155297380D01*
X153110000Y-154583095D01*
X153300476Y-155297380D01*
X153538571Y-154297380D01*
X154348095Y-154630714D02*
X154348095Y-155297380D01*
X154110000Y-154249761D02*
X153871904Y-154964047D01*
X154490952Y-154964047D01*
X144156666Y-162869761D02*
X144299523Y-162917380D01*
X144537619Y-162917380D01*
X144632857Y-162869761D01*
X144680476Y-162822142D01*
X144728095Y-162726904D01*
X144728095Y-162631666D01*
X144680476Y-162536428D01*
X144632857Y-162488809D01*
X144537619Y-162441190D01*
X144347142Y-162393571D01*
X144251904Y-162345952D01*
X144204285Y-162298333D01*
X144156666Y-162203095D01*
X144156666Y-162107857D01*
X144204285Y-162012619D01*
X144251904Y-161965000D01*
X144347142Y-161917380D01*
X144585238Y-161917380D01*
X144728095Y-161965000D01*
X145061428Y-161917380D02*
X145299523Y-162917380D01*
X145490000Y-162203095D01*
X145680476Y-162917380D01*
X145918571Y-161917380D01*
X146204285Y-161917380D02*
X146823333Y-161917380D01*
X146490000Y-162298333D01*
X146632857Y-162298333D01*
X146728095Y-162345952D01*
X146775714Y-162393571D01*
X146823333Y-162488809D01*
X146823333Y-162726904D01*
X146775714Y-162822142D01*
X146728095Y-162869761D01*
X146632857Y-162917380D01*
X146347142Y-162917380D01*
X146251904Y-162869761D01*
X146204285Y-162822142D01*
X136536666Y-155249761D02*
X136679523Y-155297380D01*
X136917619Y-155297380D01*
X137012857Y-155249761D01*
X137060476Y-155202142D01*
X137108095Y-155106904D01*
X137108095Y-155011666D01*
X137060476Y-154916428D01*
X137012857Y-154868809D01*
X136917619Y-154821190D01*
X136727142Y-154773571D01*
X136631904Y-154725952D01*
X136584285Y-154678333D01*
X136536666Y-154583095D01*
X136536666Y-154487857D01*
X136584285Y-154392619D01*
X136631904Y-154345000D01*
X136727142Y-154297380D01*
X136965238Y-154297380D01*
X137108095Y-154345000D01*
X137441428Y-154297380D02*
X137679523Y-155297380D01*
X137870000Y-154583095D01*
X138060476Y-155297380D01*
X138298571Y-154297380D01*
X138631904Y-154392619D02*
X138679523Y-154345000D01*
X138774761Y-154297380D01*
X139012857Y-154297380D01*
X139108095Y-154345000D01*
X139155714Y-154392619D01*
X139203333Y-154487857D01*
X139203333Y-154583095D01*
X139155714Y-154725952D01*
X138584285Y-155297380D01*
X139203333Y-155297380D01*
X144156666Y-156614761D02*
X144299523Y-156662380D01*
X144537619Y-156662380D01*
X144632857Y-156614761D01*
X144680476Y-156567142D01*
X144728095Y-156471904D01*
X144728095Y-156376666D01*
X144680476Y-156281428D01*
X144632857Y-156233809D01*
X144537619Y-156186190D01*
X144347142Y-156138571D01*
X144251904Y-156090952D01*
X144204285Y-156043333D01*
X144156666Y-155948095D01*
X144156666Y-155852857D01*
X144204285Y-155757619D01*
X144251904Y-155710000D01*
X144347142Y-155662380D01*
X144585238Y-155662380D01*
X144728095Y-155710000D01*
X145061428Y-155662380D02*
X145299523Y-156662380D01*
X145490000Y-155948095D01*
X145680476Y-156662380D01*
X145918571Y-155662380D01*
X146823333Y-156662380D02*
X146251904Y-156662380D01*
X146537619Y-156662380D02*
X146537619Y-155662380D01*
X146442380Y-155805238D01*
X146347142Y-155900476D01*
X146251904Y-155948095D01*
X151598333Y-146502380D02*
X151265000Y-146026190D01*
X151026904Y-146502380D02*
X151026904Y-145502380D01*
X151407857Y-145502380D01*
X151503095Y-145550000D01*
X151550714Y-145597619D01*
X151598333Y-145692857D01*
X151598333Y-145835714D01*
X151550714Y-145930952D01*
X151503095Y-145978571D01*
X151407857Y-146026190D01*
X151026904Y-146026190D01*
X152074523Y-146502380D02*
X152265000Y-146502380D01*
X152360238Y-146454761D01*
X152407857Y-146407142D01*
X152503095Y-146264285D01*
X152550714Y-146073809D01*
X152550714Y-145692857D01*
X152503095Y-145597619D01*
X152455476Y-145550000D01*
X152360238Y-145502380D01*
X152169761Y-145502380D01*
X152074523Y-145550000D01*
X152026904Y-145597619D01*
X151979285Y-145692857D01*
X151979285Y-145930952D01*
X152026904Y-146026190D01*
X152074523Y-146073809D01*
X152169761Y-146121428D01*
X152360238Y-146121428D01*
X152455476Y-146073809D01*
X152503095Y-146026190D01*
X152550714Y-145930952D01*
X158567380Y-125896666D02*
X158091190Y-126230000D01*
X158567380Y-126468095D02*
X157567380Y-126468095D01*
X157567380Y-126087142D01*
X157615000Y-125991904D01*
X157662619Y-125944285D01*
X157757857Y-125896666D01*
X157900714Y-125896666D01*
X157995952Y-125944285D01*
X158043571Y-125991904D01*
X158091190Y-126087142D01*
X158091190Y-126468095D01*
X157995952Y-125325238D02*
X157948333Y-125420476D01*
X157900714Y-125468095D01*
X157805476Y-125515714D01*
X157757857Y-125515714D01*
X157662619Y-125468095D01*
X157615000Y-125420476D01*
X157567380Y-125325238D01*
X157567380Y-125134761D01*
X157615000Y-125039523D01*
X157662619Y-124991904D01*
X157757857Y-124944285D01*
X157805476Y-124944285D01*
X157900714Y-124991904D01*
X157948333Y-125039523D01*
X157995952Y-125134761D01*
X157995952Y-125325238D01*
X158043571Y-125420476D01*
X158091190Y-125468095D01*
X158186428Y-125515714D01*
X158376904Y-125515714D01*
X158472142Y-125468095D01*
X158519761Y-125420476D01*
X158567380Y-125325238D01*
X158567380Y-125134761D01*
X158519761Y-125039523D01*
X158472142Y-124991904D01*
X158376904Y-124944285D01*
X158186428Y-124944285D01*
X158091190Y-124991904D01*
X158043571Y-125039523D01*
X157995952Y-125134761D01*
X133167380Y-136691666D02*
X132691190Y-137025000D01*
X133167380Y-137263095D02*
X132167380Y-137263095D01*
X132167380Y-136882142D01*
X132215000Y-136786904D01*
X132262619Y-136739285D01*
X132357857Y-136691666D01*
X132500714Y-136691666D01*
X132595952Y-136739285D01*
X132643571Y-136786904D01*
X132691190Y-136882142D01*
X132691190Y-137263095D01*
X132167380Y-136358333D02*
X132167380Y-135691666D01*
X133167380Y-136120238D01*
X133167380Y-125896666D02*
X132691190Y-126230000D01*
X133167380Y-126468095D02*
X132167380Y-126468095D01*
X132167380Y-126087142D01*
X132215000Y-125991904D01*
X132262619Y-125944285D01*
X132357857Y-125896666D01*
X132500714Y-125896666D01*
X132595952Y-125944285D01*
X132643571Y-125991904D01*
X132691190Y-126087142D01*
X132691190Y-126468095D01*
X132167380Y-125039523D02*
X132167380Y-125230000D01*
X132215000Y-125325238D01*
X132262619Y-125372857D01*
X132405476Y-125468095D01*
X132595952Y-125515714D01*
X132976904Y-125515714D01*
X133072142Y-125468095D01*
X133119761Y-125420476D01*
X133167380Y-125325238D01*
X133167380Y-125134761D01*
X133119761Y-125039523D01*
X133072142Y-124991904D01*
X132976904Y-124944285D01*
X132738809Y-124944285D01*
X132643571Y-124991904D01*
X132595952Y-125039523D01*
X132548333Y-125134761D01*
X132548333Y-125325238D01*
X132595952Y-125420476D01*
X132643571Y-125468095D01*
X132738809Y-125515714D01*
X133167380Y-147486666D02*
X132691190Y-147820000D01*
X133167380Y-148058095D02*
X132167380Y-148058095D01*
X132167380Y-147677142D01*
X132215000Y-147581904D01*
X132262619Y-147534285D01*
X132357857Y-147486666D01*
X132500714Y-147486666D01*
X132595952Y-147534285D01*
X132643571Y-147581904D01*
X132691190Y-147677142D01*
X132691190Y-148058095D01*
X132167380Y-146581904D02*
X132167380Y-147058095D01*
X132643571Y-147105714D01*
X132595952Y-147058095D01*
X132548333Y-146962857D01*
X132548333Y-146724761D01*
X132595952Y-146629523D01*
X132643571Y-146581904D01*
X132738809Y-146534285D01*
X132976904Y-146534285D01*
X133072142Y-146581904D01*
X133119761Y-146629523D01*
X133167380Y-146724761D01*
X133167380Y-146962857D01*
X133119761Y-147058095D01*
X133072142Y-147105714D01*
X132997380Y-158281666D02*
X132521190Y-158615000D01*
X132997380Y-158853095D02*
X131997380Y-158853095D01*
X131997380Y-158472142D01*
X132045000Y-158376904D01*
X132092619Y-158329285D01*
X132187857Y-158281666D01*
X132330714Y-158281666D01*
X132425952Y-158329285D01*
X132473571Y-158376904D01*
X132521190Y-158472142D01*
X132521190Y-158853095D01*
X132330714Y-157424523D02*
X132997380Y-157424523D01*
X131949761Y-157662619D02*
X132664047Y-157900714D01*
X132664047Y-157281666D01*
X158567380Y-158281666D02*
X158091190Y-158615000D01*
X158567380Y-158853095D02*
X157567380Y-158853095D01*
X157567380Y-158472142D01*
X157615000Y-158376904D01*
X157662619Y-158329285D01*
X157757857Y-158281666D01*
X157900714Y-158281666D01*
X157995952Y-158329285D01*
X158043571Y-158376904D01*
X158091190Y-158472142D01*
X158091190Y-158853095D01*
X157567380Y-157948333D02*
X157567380Y-157329285D01*
X157948333Y-157662619D01*
X157948333Y-157519761D01*
X157995952Y-157424523D01*
X158043571Y-157376904D01*
X158138809Y-157329285D01*
X158376904Y-157329285D01*
X158472142Y-157376904D01*
X158519761Y-157424523D01*
X158567380Y-157519761D01*
X158567380Y-157805476D01*
X158519761Y-157900714D01*
X158472142Y-157948333D01*
X158567380Y-136691666D02*
X158091190Y-137025000D01*
X158567380Y-137263095D02*
X157567380Y-137263095D01*
X157567380Y-136882142D01*
X157615000Y-136786904D01*
X157662619Y-136739285D01*
X157757857Y-136691666D01*
X157900714Y-136691666D01*
X157995952Y-136739285D01*
X158043571Y-136786904D01*
X158091190Y-136882142D01*
X158091190Y-137263095D01*
X157662619Y-136310714D02*
X157615000Y-136263095D01*
X157567380Y-136167857D01*
X157567380Y-135929761D01*
X157615000Y-135834523D01*
X157662619Y-135786904D01*
X157757857Y-135739285D01*
X157853095Y-135739285D01*
X157995952Y-135786904D01*
X158567380Y-136358333D01*
X158567380Y-135739285D01*
X158567380Y-147486666D02*
X158091190Y-147820000D01*
X158567380Y-148058095D02*
X157567380Y-148058095D01*
X157567380Y-147677142D01*
X157615000Y-147581904D01*
X157662619Y-147534285D01*
X157757857Y-147486666D01*
X157900714Y-147486666D01*
X157995952Y-147534285D01*
X158043571Y-147581904D01*
X158091190Y-147677142D01*
X158091190Y-148058095D01*
X158567380Y-146534285D02*
X158567380Y-147105714D01*
X158567380Y-146820000D02*
X157567380Y-146820000D01*
X157710238Y-146915238D01*
X157805476Y-147010476D01*
X157853095Y-147105714D01*
M02*
